<?xml version="1.0" encoding="UTF-8"?><svg id="Layer_2" xmlns="http://www.w3.org/2000/svg" viewBox="0 0 860.84 173.34"><defs><style>.cls-1{letter-spacing:-.01em;}.cls-2{letter-spacing:-.03em;}.cls-3{letter-spacing:-.03em;}.cls-4{letter-spacing:-.05em;}.cls-5{letter-spacing:0em;}.cls-6{fill:#56002a;font-family:AMKlarheit-Extrabold, 'AM Klarheit';font-size:109px;font-weight:700;}.cls-7{letter-spacing:-.02em;}.cls-8{letter-spacing:-.03em;}.cls-9{fill:#f93e55;}.cls-9,.cls-10,.cls-11,.cls-12,.cls-13,.cls-14{stroke-width:0px;}.cls-10{fill:#d90065;}.cls-11{fill:#f50075;}.cls-12{fill:#ffa316;}.cls-13{fill:#ffbe16;}.cls-14{fill:#fc7d32;}</style></defs><g id="Layer_1-2"><path class="cls-10" d="m115.92,13.74h-50.74,0s-15.49,0-15.49,0c-.91,0-1.52.48-1.73,1.19L.07,171.68c-.25.82.2,1.65,1.22,1.65h46.71c.71,0,1.33-.48,1.55-1.19l8.01-25.87h48.55l7.92,25.87c.22.71.84,1.18,1.55,1.18h50.32L117.47,14.93c-.22-.71-.84-1.18-1.55-1.18Zm-46.99,95.83l12.87-41.54,12.72,41.54h-25.58Z"/><path class="cls-12" d="m411.84,171.66L363.82,15.31c-.29-.99-.65-1.56-1.84-1.56h-54.73c-.08,0-.15,0-.21.02,0,0,0,0,0,0-.07,0-.14.03-.21.04-.02,0-.03,0-.05.01-.06.02-.11.04-.17.06-.37.17-.67.51-.83,1.04l-16.7,55.53,26.29,87.13,17.86-59.21-25.64-83.49,48.29,157.26c.22.71.84,1.18,1.55,1.18h53.22c.94,0,1.49-.75,1.2-1.68Z"/><path class="cls-9" d="m270.7,13.74h-54.86s0,0,0,0c0,0,0,0,0,0,0,0,0,0,0,0-.06,0-.11,0-.17.01-.03,0-.05,0-.08.01-.03,0-.05,0-.08.01-.04,0-.07.01-.11.02-.02,0-.04.01-.06.02-.06.02-.11.04-.17.06-.38.17-.67.51-.84,1.04l-48.43,158.41h52.15c.71,0,1.33-.48,1.55-1.19l22.15-73.99,22.72,73.99c.22.71.84,1.18,1.55,1.18h43.4c.71,0,1.35-.49,1.56-1.2l4.38-14.54h0S272.32,15.01,272.32,15.01c-.23-.74-.74-1.27-1.63-1.27Z"/><path class="cls-11" d="m117.47,14.93c-.22-.71-.84-1.18-1.55-1.18h-50.74,0s29.34,95.83,29.34,95.83h-25.58l-11.37,36.71h48.55l7.92,25.87c.22.71.84,1.18,1.55,1.18h50.32L117.47,14.93Z"/><path class="cls-13" d="m411.84,171.66L363.82,15.31c-.29-.99-.65-1.56-1.84-1.56h-54.73c-.08,0-.15,0-.21.02,0,0,0,0,0,0-.07,0-.14.03-.21.04-.02,0-.03,0-.05.01-.06.02-.11.04-.17.06.46-.11.72.18.97,1.01l48.29,157.26c.22.71.84,1.18,1.55,1.18h53.22c.94,0,1.49-.75,1.2-1.68Z"/><path class="cls-14" d="m315.35,157.6L272.32,15.01c-.23-.74-.74-1.27-1.63-1.27h-54.86s0,0,0,0c0,0,0,0,0,0,0,0,0,0,0,0-.06,0-.11,0-.17.01-.03,0-.05,0-.08.01-.03,0-.05,0-.08.01-.04,0-.07.01-.11.02-.02,0-.04.01-.06.02-.06.02-.11.04-.17.06.05-.01.09-.02.13-.02,0,0,0,0,0,0,.22,0,.39.1.53.28,0,0,.01.01.02.02,0,0,0,.01.01.02.11.17.2.4.3.7l25.6,83.27,22.72,73.99c.22.71.84,1.18,1.55,1.18h43.4c.71,0,1.35-.49,1.56-1.2l4.38-14.54h0Z"/><text class="cls-6" transform="translate(434.24 94.56)"><tspan class="cls-7" x="0" y="0">Q</tspan><tspan class="cls-8" x="91.54" y="0">u</tspan><tspan class="cls-3" x="153.87" y="0">a</tspan><tspan class="cls-5" x="213.28" y="0">r</tspan><tspan class="cls-2" x="257.75" y="0">t</tspan><tspan class="cls-4" x="302.83" y="0">e</tspan><tspan class="cls-1" x="360.87" y="0">x</tspan></text></g></svg>