<?xml version="1.0" encoding="utf-8"?>
<!-- Generator: Adobe Illustrator 18.1.1, SVG Export Plug-In . SVG Version: 6.00 Build 0)  -->
<svg version="1.1" id="Layer_1" xmlns="http://www.w3.org/2000/svg" xmlns:xlink="http://www.w3.org/1999/xlink" x="0px" y="0px"
	 viewBox="0 0 282.5 39" enable-background="new 0 0 282.5 39" xml:space="preserve">
<path fill="#009FC2" d="M199.7,19.5c0,3.5-0.8,6.8-2.5,9.8c-1.6,3-4.1,5.3-7.3,7.1c-3.2,1.8-7.2,2.6-11.8,2.6
	c-4.7,0-8.7-0.9-11.9-2.7c-3.2-1.8-5.7-4.2-7.2-7.2c-1.6-3-2.4-6.2-2.4-9.6c0-3.4,0.8-6.6,2.4-9.6c1.6-3,4-5.4,7.2-7.2
	c3.3-1.8,7.2-2.7,11.9-2.7c3.5,0,6.6,0.5,9.4,1.6c2.7,1,5,2.5,6.8,4.2c1.8,1.8,3.1,3.9,4,6.2C199.3,14.4,199.7,16.9,199.7,19.5
	 M188.1,19.5c0-1.4-0.2-2.7-0.6-3.9c-0.4-1.2-1.1-2.2-1.9-3.1c-0.8-0.9-1.9-1.5-3.1-2c-1.2-0.5-2.6-0.7-4.2-0.7
	c-3.1,0-5.5,0.9-7.2,2.7c-1.8,1.8-2.6,4.1-2.6,7c0,2.9,0.9,5.3,2.6,7.1c1.8,1.8,4.2,2.7,7.2,2.7c2.1,0,3.9-0.4,5.4-1.2
	s2.6-2,3.4-3.5C187.7,23.1,188.1,21.4,188.1,19.5"/>
<polygon fill="#009FC2" points="244.3,30.9 244.3,10.1 239.8,10.1 239.8,5.6 245.3,0.5 233.8,0.5 233.8,21.6 214.2,0.5 204,0.5 
	204,38.5 215.4,38.5 215.4,17.4 235.1,38.5 240.7,38.5 240.7,30.9 "/>
<polygon fill="#009FC2" points="282.5,30.9 265.8,30.9 265.8,22.7 281.7,22.7 281.7,15.1 265.8,15.1 265.8,8.2 282.5,8.2 282.5,0.5 
	254.3,0.5 254.3,30.9 257.9,30.9 257.9,38.5 282.5,38.5 "/>
<path fill="#878787" d="M0,0.6h10.5c4,0,7.1,0.9,9.2,2.7c2.1,1.8,3.2,4.2,3.2,7.3c0,3.1-1.1,5.6-3.2,7.4c-2.1,1.8-5.3,2.7-9.4,2.7
	H2.9v17.7H0V0.6z M2.9,3v15.3H10c3.2,0,5.6-0.7,7.2-2s2.5-3.2,2.5-5.7c0-2.3-0.8-4.2-2.4-5.6C15.7,3.7,13.3,3,10.3,3H2.9z"/>
<polygon fill="#878787" points="59.6,0.6 59.6,38.5 56.6,38.5 56.6,20.5 31.3,20.5 31.3,38.5 28.4,38.5 28.4,0.6 31.3,0.6 
	31.3,18.1 56.6,18.1 56.6,0.6 "/>
<path fill="#878787" d="M83.4,0.3l17.5,38.2h-3.1l-6-13.1H73.3l-6,13.1h-3.1L81.7,0.3H83.4z M90.7,22.9L82.5,5.1l-8.1,17.9H90.7z"/>
<path fill="#878787" d="M123.4,2.4v3.2c-3.3-1.9-6.1-2.9-8.5-2.9c-2.3,0-4.2,0.7-5.7,2.1c-1.5,1.4-2.3,3.1-2.3,5.1
	c0,1.5,0.5,2.8,1.4,4c0.9,1.2,2.8,2.3,5.7,3.4c2.9,1.1,5,2,6.3,2.7c1.3,0.7,2.4,1.8,3.4,3.1c0.9,1.4,1.4,3.2,1.4,5.4
	c0,2.9-1.1,5.4-3.2,7.4c-2.1,2-4.7,3-7.8,3c-3.2,0-6.4-1.1-9.7-3.3v-3.4c3.7,2.7,6.9,4,9.6,4c2.2,0,4.1-0.7,5.7-2.2
	c1.6-1.5,2.3-3.3,2.3-5.4c0-1.6-0.5-3.1-1.4-4.4c-1-1.3-2.9-2.5-5.8-3.6c-2.9-1.1-5-2-6.3-2.7c-1.3-0.7-2.3-1.7-3.2-2.9
	c-0.9-1.3-1.3-2.9-1.3-4.9c0-2.8,1.1-5.2,3.2-7.1c2.1-2,4.7-2.9,7.7-2.9C117.5,0.1,120.5,0.8,123.4,2.4"/>
<polygon fill="#878787" points="152.3,0.6 152.3,3 134.6,3 134.6,18.2 151.9,18.2 151.9,20.7 134.6,20.7 134.6,36.1 152.3,36.1 
	152.3,38.5 131.7,38.5 131.7,0.6 "/>
</svg>
