<?xml version="1.0" encoding="UTF-8" standalone="no"?>
<svg xmlns:dc="http://purl.org/dc/elements/1.1/" xmlns:cc="http://creativecommons.org/ns#" xmlns:rdf="http://www.w3.org/1999/02/22-rdf-syntax-ns#" xmlns:svg="http://www.w3.org/2000/svg" xmlns="http://www.w3.org/2000/svg" viewBox="0 0 676.5625 252.325" height="252.325" width="676.5625" xml:space="preserve" version="1.1" id="svg2"><metadata id="metadata8"><rdf:RDF><cc:Work rdf:about=""><dc:format>image/svg+xml</dc:format><dc:type rdf:resource="http://purl.org/dc/dcmitype/StillImage"/></cc:Work></rdf:RDF></metadata><defs id="defs6"><clipPath id="clipPath18" clipPathUnits="userSpaceOnUse"><path id="path20" d="m 0,0 5412.5,0 0,2018.57 L 0,2018.57 0,0 Z"/></clipPath></defs><g transform="matrix(1.25,0,0,-1.25,0,252.325)" id="g10"><g transform="scale(0.1,0.1)" id="g12"><g id="g14"><g clip-path="url(#clipPath18)" id="g16"><path id="path22" style="fill:#231f20;fill-opacity:1;fill-rule:nonzero;stroke:none" d="m 245.898,1009.31 128.633,114.37 c 11.477,8.58 14.336,22.88 14.336,31.41 8.543,134.38 28.574,446.01 162.93,863.54 l -265.891,0 c -19.988,0 -31.402,-14.36 -34.297,-25.81 0,-2.86 -160.1246,-443.15 -168.7067,-903.47 L 0,1009.31 82.9023,929.211 C 91.4844,468.891 251.609,28.6016 251.609,25.7383 254.504,14.3008 265.918,0 285.906,0 L 551.797,0 C 417.441,417.469 397.41,729.09 388.867,863.48 c 0,8.59 -2.859,22.821 -14.336,31.469 L 245.898,1009.31 Z M 2101.5,614.66 c 0,-277.289 -185.82,-317.281 -443.15,-317.281 l -231.59,0 0,634.699 185.82,0 c 231.59,0 488.92,-25.75 488.92,-317.418 m -674.74,557.64 0,548.95 205.85,0 c 174.4,0 360.28,-40.05 360.28,-263.06 0,-245.95 -180.16,-285.89 -420.36,-285.89 l -145.77,0 z m -288.8,791.98 0,-1909.9987 534.66,0 c 354.57,0 734.82,77.1797 734.82,560.3787 0,243.102 -171.55,423.26 -437.43,463.25 214.45,54.35 317.34,202.98 317.34,423.19 0,320.21 -265.91,463.18 -586.09,463.18 l -563.3,0 z m 1532.51,-405.97 c 45.76,-91.54 51.48,-303.16 51.48,-448.93 l 0,-1055.0987 288.77,0 0,723.4377 c 0,228.731 31.42,331.661 82.96,408.831 65.74,94.34 162.94,145.83 277.31,145.83 100.11,0 171.51,-34.33 220.14,-88.62 51.5,-57.21 74.38,-140.11 74.38,-337.432 l 0,-852.0467 288.8,0 0,912.1167 c 0,257.332 -42.91,380.282 -123,471.762 -82.84,94.35 -205.85,148.7 -368.85,148.7 -211.62,0 -380.27,-85.76 -471.7,-240.18 0,94.35 -11.5,162.94 -31.46,211.63 l -288.83,0 z m 1944.29,-400.36 0,554.71 797.68,0 0,251.62 -1092.22,0 0,-1909.9987 303.11,0 0,849.1877 720.52,0 0,254.481 -729.09,0"/></g></g></g></g></svg>