<?xml version="1.0" encoding="UTF-8" standalone="no"?>
<svg xmlns:dc="http://purl.org/dc/elements/1.1/" xmlns:cc="http://creativecommons.org/ns#" xmlns:rdf="http://www.w3.org/1999/02/22-rdf-syntax-ns#" xmlns:svg="http://www.w3.org/2000/svg" xmlns="http://www.w3.org/2000/svg" width="305" height="72" viewBox="0 0 305.48749 72.3125" xml:space="preserve" version="1.1">
	<g transform="matrix(1.25,0,0,-1.25,0,72.3125)">
		<g transform="scale(0.1,0.1)">
			<path style="fill:#1d1d1b;" d="m 931.148,1.47266 11.4844,0 0,86.4375 -11.4844,0 0,-86.4375 z"/>
			<path style="fill:#1d1d1b;" d="m 968.027,63.1758 10.551,0 0,-7.7149 c 0.813,0.8555 1.512,1.5899 2.32,2.3204 1.625,1.4765 6.383,5.1406 12.649,6.3789 1.156,0.2343 2.781,0.6054 5.453,0.6054 6.37,-0.1172 10.09,-1.7109 12.52,-3.3008 8.47,-5.75 8.12,-16.1718 8.12,-25.3515 l 0,-34.64064 -10.44,0 0,34.64064 c -0.11,6.4922 0,13.9648 -5.91,18.125 -2.44,1.707 -5.224,2.3242 -8.122,2.3242 -2.207,0 -9.277,-0.3633 -13.57,-6.8555 -3.129,-4.7656 -3.02,-10.2812 -3.02,-15.7929 l 0,-32.44144 -10.551,0 0,61.70314"/>
			<path style="fill:#1d1d1b;" d="m 1046.78,56.8164 -9.39,0 0,6.3594 9.39,0 0,6.1211 c -0.11,5.6328 -0.11,10.6523 3.02,15.4219 1.74,2.5664 6.14,7.5859 14.26,7.5859 4.41,0 7.42,-1.582 8.93,-2.5703 l -2.32,-5.625 c -1.97,0.6094 -3.01,0.8515 -5.1,0.8515 -0.81,0 -3.13,0 -5.11,-1.4648 -3.71,-2.8125 -3.24,-8.332 -3.24,-12.3633 l 0,-7.957 14.03,0 0,-6.3594 -14.03,0 0,-55.34374 -10.44,0 0,55.34374"/>
			<path style="fill:#1d1d1b;" d="m 1107.2,55.4609 c -5.33,-2.5703 -10.32,-9.4257 -10.32,-22.8945 0,-12.4766 4.18,-19.4531 8.81,-22.5273 1.51,-0.9766 4.18,-2.19535 8.47,-2.19535 5.22,0 12.76,2.07813 15.65,14.44145 0.82,3.4296 1.17,7.2187 1.17,10.7695 0,1.8359 0,5.2656 -1.04,9.5508 -0.94,3.4297 -4.3,14.0742 -15.67,14.3281 -1.27,0 -4.06,0 -7.07,-1.4727 z m 18.33,6.7266 c 5.8,-2.8125 16.81,-11.2578 16.81,-29.375 C 1142.34,15.3047 1131.79,0 1113.93,0 c -5.69,0 -9.51,1.59375 -11.6,2.57813 -11.6,5.26562 -16.7,17.51167 -16.7,30.23437 0,2.0781 0,7.3438 1.97,12.8516 4.18,11.875 14.5,18.9843 26.33,19.1015 1.85,0 6.61,-0.2539 11.6,-2.5781"/>
			<path style="fill:#1d1d1b;" d="m 1163.22,63.1758 10.55,0 0,-9.3086 2.68,3.4375 c 1.5,2.0703 4.29,5.8711 6.72,6.9726 0.81,0.2344 1.85,0.4883 2.66,0.4883 1.51,0 2.45,-0.3711 3.02,-0.4883 1.86,-0.7304 4.29,-2.3242 7.43,-5.6367 l -4.88,-7.0976 c -0.69,0.3711 -4.4,2.4492 -7.77,2.4492 -3.24,0 -5.8,-1.8438 -7.3,-4.7813 -2.67,-4.7695 -2.56,-12.6015 -2.56,-17.8632 l 0,-29.87504 -10.55,0 0,61.70314"/>
			<path style="fill:#1d1d1b;" d="m 1212.98,63.1758 10.56,0 0,-7.7149 c 1.04,1.2188 2.2,2.6914 4.86,4.6446 4.41,3.1836 8.47,4.6601 13.81,4.6601 2.55,0 8.81,-0.2539 14.14,-5.625 1.75,-1.7187 2.33,-2.707 3.02,-3.6797 1.4,1.2188 2.78,2.4493 4.41,3.6797 6.96,5.0196 12.06,5.625 15.89,5.625 1.27,0 3.71,0 6.72,-1.1054 1.97,-0.6055 6.15,-2.5743 9.05,-7.7149 3.25,-5.6328 3.02,-11.875 3.02,-18.1133 l 0,-36.35934 -10.55,0 0,35.86324 c 0,2.461 0,4.7813 -0.24,7.1055 -0.69,6.2422 -3.48,9.0664 -5.8,10.4024 -2.67,1.5898 -5.57,1.7187 -6.49,1.7187 -1.98,0 -7.66,-0.3633 -11.36,-5.3828 -2.68,-3.6797 -2.91,-6.9922 -3.02,-15.3008 l 0,-34.40624 -10.44,0 0,35.86324 c -0.23,5.8868 -0.13,12.4883 -4.99,16.5313 -3.02,2.5664 -6.26,2.6953 -7.77,2.6953 -1.86,0 -7.66,-0.5 -11.25,-5.6328 -3.01,-4.2813 -3.01,-9.2969 -3.01,-14.3203 l 0,-35.13674 -10.56,0 0,61.70314"/>
			<path style="fill:#1d1d1b;" d="m 1348.46,35.8789 c -0.7,-0.2539 -7.44,-2.0898 -11.61,-4.6484 -5.92,-3.8008 -6.73,-8.9453 -6.73,-12.0117 0,-0.7344 0,-2.2071 0.58,-4.0352 1.75,-5.63282 6.27,-6.48438 8.35,-6.48438 5,0 9.41,4.16018 11.96,8.56638 4.52,7.8399 3.94,18.2422 3.94,20.4492 l -6.49,-1.8359 z m 8,-34.40624 c -1.17,3.3125 -1.51,4.76562 -1.87,10.77344 C 1353.22,10.5352 1346.02,0 1335.35,0 c -9.75,0 -16.13,8.58594 -16.13,18.3672 0,6.4844 2.55,11.5039 7.43,15.4219 5.21,4.1601 12.87,6.3672 18.9,8.2148 l 9.17,3.0547 c -0.13,1.3359 -0.36,5.625 -3.26,8.6797 -3.48,3.8008 -7.75,3.8008 -9.39,3.8008 -1.05,0 -2.2,0 -4.17,-0.4883 -3.83,-0.9883 -7.9,-3.6641 -8.59,-4.2774 -0.69,-0.4882 -1.51,-1.1015 -2.21,-1.8437 l -3.94,5.6328 c 3.25,3.0664 9.75,8.2031 20.77,8.2031 12.18,-0.1172 18.1,-6.4961 19.94,-11.6289 1.52,-4.164 1.41,-9.6679 1.41,-13.9492 l 0,-18.0078 c 0,-11.1406 0.22,-13.69923 2.55,-19.70704 l -11.37,0"/>
			<path style="fill:#1d1d1b;" d="m 1383.94,63.1758 8.23,0 0,15.0469 10.57,3.6796 -0.13,-18.7265 15.31,0 0,-6.3594 -15.42,0 -0.24,-32.6953 c 0,-2.9414 0,-5.7539 0.35,-8.6836 0.35,-2.4609 1.4,-7.59375 8.02,-7.59375 1.72,0 4.28,0.24219 7.65,2.19535 l 2.55,-6.12504 C 1418.62,2.57813 1414.45,0 1407.84,0 c -1.74,0 -6.04,0.136719 -9.98,3.18359 -6.5,5.14454 -6.15,12.60551 -6.15,20.20311 l 0.35,33.4297 -8.12,0 0,6.3594"/>
			<path style="fill:#1d1d1b;" d="m 1437.16,63.1758 10.55,0 0,-61.70314 -10.55,0 0,61.70314 z m 11.95,19.832 c 0,-3.914 -2.89,-7.1094 -6.74,-7.1094 -1.61,0 -2.66,0.6133 -3.12,0.8672 -1.16,0.6055 -3.46,2.4453 -3.46,6.2422 0,4.0313 2.66,6.9727 6.48,6.9727 3.82,0.1172 6.84,-2.8125 6.84,-6.9727"/>
			<path style="fill:#1d1d1b;" d="m 1490.29,55.4609 c -5.34,-2.5703 -10.32,-9.4257 -10.32,-22.8945 0,-12.4766 4.17,-19.4531 8.81,-22.5273 1.51,-0.9766 4.17,-2.19535 8.46,-2.19535 5.23,0 12.76,2.07813 15.67,14.44145 0.81,3.4296 1.15,7.2187 1.15,10.7695 0,1.8359 0,5.2656 -1.05,9.5508 -0.92,3.4297 -4.28,14.0742 -15.64,14.3281 -1.28,0 -4.07,0 -7.08,-1.4727 z m 18.33,6.7266 c 5.79,-2.8125 16.81,-11.2578 16.81,-29.375 C 1525.43,15.3047 1514.87,0 1497.02,0 c -5.69,0 -9.52,1.59375 -11.61,2.57813 -11.6,5.26562 -16.69,17.51167 -16.69,30.23437 0,2.0781 0,7.3438 1.96,12.8516 4.18,11.875 14.5,18.9843 26.34,19.1015 1.84,0 6.6,-0.2539 11.6,-2.5781"/>
			<path style="fill:#1d1d1b;" d="m 1546.28,63.1758 10.57,0 0,-7.7149 c 0.81,0.8555 1.51,1.5899 2.32,2.3204 1.63,1.4765 6.37,5.1406 12.63,6.3789 1.17,0.2343 2.79,0.6054 5.46,0.6054 6.38,-0.1172 10.09,-1.7109 12.53,-3.3008 8.46,-5.75 8.12,-16.1718 8.12,-25.3515 l 0,-34.64064 -10.44,0 0,34.64064 c -0.12,6.4922 0,13.9648 -5.92,18.125 -2.44,1.707 -5.22,2.3242 -8.12,2.3242 -2.19,0 -9.27,-0.3633 -13.57,-6.8555 -3.14,-4.7656 -3.01,-10.2812 -3.01,-15.7929 l 0,-32.44144 -10.57,0 0,61.70314"/>
			<path style="fill:#1d1d1b;" d="m 1662.74,63.1758 10.56,0 0,-61.70314 -10.56,0 0,61.70314 z m 11.95,19.832 c 0,-3.914 -2.89,-7.1094 -6.74,-7.1094 -1.61,0 -2.65,0.6133 -3.11,0.8672 -1.17,0.6055 -3.49,2.4453 -3.49,6.2422 0,4.0313 2.68,6.9727 6.51,6.9727 3.81,0.1172 6.83,-2.8125 6.83,-6.9727"/>
			<path style="fill:#1d1d1b;" d="m 1697.99,63.1758 10.56,0 0,-7.7149 c 0.81,0.8555 1.51,1.5899 2.32,2.3204 1.63,1.4765 6.38,5.1406 12.64,6.3789 1.16,0.2343 2.78,0.6054 5.46,0.6054 6.38,-0.1172 10.08,-1.7109 12.52,-3.3008 8.47,-5.75 8.12,-16.1718 8.12,-25.3515 l 0,-34.64064 -10.44,0 0,34.64064 c -0.12,6.4922 0,13.9648 -5.91,18.125 -2.44,1.707 -5.22,2.3242 -8.12,2.3242 -2.21,0 -9.29,-0.3633 -13.57,-6.8555 -3.14,-4.7656 -3.02,-10.2812 -3.02,-15.7929 l 0,-32.44144 -10.56,0 0,61.70314"/>
			<path style="fill:#1d1d1b;" d="m 1851.31,38.6914 c -0.11,5.9961 -0.92,12.3711 -6.02,16.0352 -1.15,0.8593 -3.61,2.207 -7.31,2.207 -1.73,0 -5.81,-0.3711 -9.51,-3.5469 -5.56,-4.7851 -6.03,-12.8594 -6.15,-14.6953 l 28.99,0 z m 9.06,-31.46484 C 1853.4,2.57813 1847.84,0 1839.49,0 c -3.6,0 -11.36,0.253906 -18.57,6.98047 -9.96,9.17973 -10.19,22.04293 -10.19,26.43753 0,3.5625 0.11,12.0117 5.68,19.9687 2.77,3.918 9.51,11.3789 21.92,11.3789 4.87,-0.1172 7.77,-1.1054 9.62,-2.082 3.83,-1.7148 9.74,-6.6211 12.19,-17.0195 0.81,-3.4297 1.27,-6.8555 1.27,-14.0703 l -39.43,0 c 0,-2.336 0,-6.1329 2.08,-11.2735 4.64,-11.1328 13.81,-12.60546 17.87,-12.60546 3.24,0 8.92,0.8711 15.42,5.51566 l 3.02,-6.00394"/>
			<path style="fill:#1d1d1b;" d="m 1881.13,63.1758 10.55,0 0,-9.3086 2.67,3.4375 c 1.5,2.0703 4.3,5.8711 6.73,6.9726 0.81,0.2344 1.85,0.4883 2.67,0.4883 1.51,0 2.43,-0.3711 3.01,-0.4883 1.86,-0.7304 4.29,-2.3242 7.42,-5.6367 l -4.87,-7.0976 c -0.69,0.3711 -4.41,2.4492 -7.77,2.4492 -3.24,0 -5.79,-1.8438 -7.31,-4.7813 -2.66,-4.7695 -2.55,-12.6015 -2.55,-17.8632 l 0,-29.87504 -10.55,0 0,61.70314"/>
			<path style="fill:#1d1d1b;" d="m 1957.21,53.5078 c -4.29,3.4258 -8.58,3.9141 -10.55,3.9141 -0.58,0 -1.86,0 -3.25,-0.4883 -2.79,-0.8711 -5.1,-3.3125 -5.1,-6.4961 0,-2.3242 1.03,-3.7891 1.5,-4.4023 2.09,-2.9493 6.61,-5.625 12.87,-10.8985 5.34,-4.4062 9.75,-9.2969 9.75,-17.0234 0,-1.336 -0.12,-4.8828 -1.86,-8.30861 C 1958.48,5.76172 1953.27,0 1942.83,0 c -10.21,0 -15.55,5.13672 -18.56,7.96094 l 5.22,6.12106 c 3.71,-3.5468 7.18,-6.36716 12.41,-6.23825 1.74,0 2.9,0.11719 4.4,0.74219 4.88,1.94926 5.35,6.23826 5.35,8.19136 0,3.7969 -1.86,6.004 -2.67,6.9727 -2.43,2.8125 -5.69,5.0195 -8.48,7.1094 -2.09,1.707 -4.29,3.4258 -6.37,5.2539 -1.51,1.4765 -6.04,5.5195 -6.16,12.4883 0,1.3593 0.12,3.8007 1.52,6.6132 1.86,3.6719 6.84,9.4336 16.93,9.5508 7.89,-0.1172 12.65,-3.5547 14.96,-5.625 l -4.17,-5.6328"/>
			<path style="fill:#1d1d1b;" d="m 1975.99,63.1758 8.24,0 0,15.0469 10.56,3.6796 -0.12,-18.7265 15.31,0 0,-6.3594 -15.43,0 -0.23,-32.6953 c 0,-2.9414 0,-5.7539 0.35,-8.6836 0.34,-2.4609 1.39,-7.59375 7.99,-7.59375 1.75,0 4.3,0.24219 7.67,2.19535 l 2.55,-6.12504 C 2010.68,2.57813 2006.51,0 1999.89,0 c -1.74,0 -6.03,0.136719 -9.97,3.18359 -6.5,5.14454 -6.16,12.60551 -6.16,20.20311 l 0.35,33.4297 -8.12,0 0,6.3594"/>
			<path style="fill:#1d1d1b;" d="m 2066.12,38.6914 c -0.12,5.9961 -0.93,12.3711 -6.03,16.0352 -1.16,0.8593 -3.6,2.207 -7.31,2.207 -1.74,0 -5.8,-0.3711 -9.5,-3.5469 -5.57,-4.7851 -6.04,-12.8594 -6.16,-14.6953 l 29,0 z m 9.04,-31.46484 C 2068.21,2.57813 2062.64,0 2054.28,0 c -3.58,0 -11.36,0.253906 -18.55,6.98047 -9.96,9.17973 -10.21,22.04293 -10.21,26.43753 0,3.5625 0.13,12.0117 5.69,19.9687 2.78,3.918 9.51,11.3789 21.92,11.3789 4.87,-0.1172 7.76,-1.1054 9.63,-2.082 3.83,-1.7148 9.74,-6.6211 12.18,-17.0195 0.81,-3.4297 1.28,-6.8555 1.28,-14.0703 l -39.45,0 c 0,-2.336 0,-6.1329 2.09,-11.2735 4.64,-11.1328 13.8,-12.60546 17.86,-12.60546 3.25,0 8.93,0.8711 15.43,5.51566 l 3.01,-6.00394"/>
			<path style="fill:#1d1d1b;" d="m 2095.91,63.1758 10.56,0 0,-9.3086 2.68,3.4375 c 1.49,2.0703 4.28,5.8711 6.71,6.9726 0.81,0.2344 1.86,0.4883 2.67,0.4883 1.51,0 2.43,-0.3711 3.02,-0.4883 1.86,-0.7304 4.28,-2.3242 7.42,-5.6367 l -4.87,-7.0976 c -0.69,0.3711 -4.41,2.4492 -7.77,2.4492 -3.24,0 -5.79,-1.8438 -7.31,-4.7813 -2.67,-4.7695 -2.55,-12.6015 -2.55,-17.8632 l 0,-29.87504 -10.56,0 0,61.70314"/>
			<path style="fill:#1d1d1b;" d="m 2186.63,87.9102 11.47,0 0,-77.7461 33.52,0 0,-8.69144 -44.99,0 0,86.43754"/>
			<path style="fill:#1d1d1b;" d="m 2250.05,63.1758 10.56,0 0,-61.70314 -10.56,0 0,61.70314 z m 11.96,19.832 c 0,-3.914 -2.9,-7.1094 -6.74,-7.1094 -1.62,0 -2.66,0.6133 -3.13,0.8672 -1.16,0.6055 -3.47,2.4453 -3.47,6.2422 0,4.0313 2.66,6.9727 6.49,6.9727 3.83,0.1172 6.85,-2.8125 6.85,-6.9727"/>
			<path style="fill:#1d1d1b;" d="m 2285.32,63.1758 10.55,0 0,-7.7149 c 0.81,0.8555 1.52,1.5899 2.33,2.3204 1.62,1.4765 6.38,5.1406 12.63,6.3789 1.17,0.2343 2.79,0.6054 5.46,0.6054 6.38,-0.1172 10.08,-1.7109 12.52,-3.3008 8.47,-5.75 8.13,-16.1718 8.13,-25.3515 l 0,-34.64064 -10.45,0 0,34.64064 c -0.12,6.4922 0,13.9648 -5.91,18.125 -2.44,1.707 -5.21,2.3242 -8.11,2.3242 -2.21,0 -9.29,-0.3633 -13.58,-6.8555 -3.13,-4.7656 -3.02,-10.2812 -3.02,-15.7929 l 0,-32.44144 -10.55,0 0,61.70314"/>
			<path style="fill:#1d1d1b;" d="m 2361.63,63.1758 10.55,0 0,-61.70314 -10.55,0 0,61.70314 z m 11.95,19.832 c 0,-3.914 -2.89,-7.1094 -6.73,-7.1094 -1.62,0 -2.66,0.6133 -3.12,0.8672 -1.18,0.6055 -3.48,2.4453 -3.48,6.2422 0,4.0313 2.67,6.9727 6.49,6.9727 3.83,0.1172 6.84,-2.8125 6.84,-6.9727"/>
			<path style="fill:#1d1d1b;" d="m 2433.76,38.6914 c -0.11,5.9961 -0.92,12.3711 -6.02,16.0352 -1.16,0.8593 -3.6,2.207 -7.31,2.207 -1.74,0 -5.81,-0.3711 -9.51,-3.5469 -5.56,-4.7851 -6.03,-12.8594 -6.15,-14.6953 l 28.99,0 z m 9.06,-31.46484 C 2435.85,2.57813 2430.29,0 2421.93,0 c -3.59,0 -11.36,0.253906 -18.56,6.98047 -9.96,9.17973 -10.19,22.04293 -10.19,26.43753 0,3.5625 0.12,12.0117 5.68,19.9687 2.78,3.918 9.51,11.3789 21.92,11.3789 4.87,-0.1172 7.77,-1.1054 9.63,-2.082 3.82,-1.7148 9.73,-6.6211 12.17,-17.0195 0.81,-3.4297 1.28,-6.8555 1.28,-14.0703 l -39.43,0 c 0,-2.336 0,-6.1329 2.08,-11.2735 4.64,-11.1328 13.8,-12.60546 17.87,-12.60546 3.24,0 8.93,0.8711 15.42,5.51566 l 3.02,-6.00394"/>
			<path style="fill:#1d1d1b;" d="m 52.9961,404.789 26.2227,0 c 45.8982,0 85.7812,31.691 85.7812,72.676 0,33.859 -23.5,53 -67.2031,53 l -44.8008,0 0,-125.676 z m 0,-180.285 51.3559,0 c 43.16,0 80.316,23.492 80.316,69.387 0,53.547 -45.891,72.668 -89.0469,72.668 l -42.625,0 0,-142.055 z M 0,186.262 l 0,382.445 118.57,0 c 56.801,0 99.434,-28.418 99.434,-78.144 0,-62.278 -48.633,-91.77 -78.133,-97.239 l 0,-1.094 c 50.258,-1.64 101.613,-32.773 101.613,-95.058 0,-63.918 -54.625,-110.91 -133.847,-110.91 L 0,186.262"/>
			<path style="fill:#1d1d1b;" d="m 448.367,479.879 c -9.633,33.711 -29.441,70.117 -71.726,70.117 -24.086,0 -51.922,-15 -51.922,-54.601 0,-37.469 35.863,-56.2 94.207,-100.625 54.597,-41.231 71.734,-71.192 71.734,-111.883 0,-65.828 -65.308,-101.16 -141.855,-101.16 -44.418,0 -73.867,6.425 -101.7,17.121 -2.148,1.082 -3.75,3.211 -3.75,7.492 l 0,81.359 14.458,0 c 9.089,-48.695 39.597,-86.703 85.109,-86.703 34.781,0 65.832,28.367 65.832,67.434 0,35.324 -15.527,59.425 -90.457,108.136 -40.149,25.696 -73.34,55.129 -73.34,102.227 0,53 50.859,90.461 124.715,90.461 34.805,0 61.031,-1.066 87.789,-8.555 3.746,-1.613 5.352,-4.824 5.352,-7.5 l 0,-73.32 -14.446,0"/>
			<path style="fill:#1d1d1b;" d="m 624.285,276.539 15.75,0 c 22.863,0 55.883,0.508 55.883,32 0,32.004 -35.559,31.504 -57.914,31.504 l -13.719,0 0,-63.504 z m 12.707,144.277 c 20.321,0 43.18,2.032 43.18,28.446 0,28.449 -25.91,26.426 -46.231,26.426 l -9.656,0 0,-54.872 12.707,0 z m -74.078,147.332 94.399,0 c 74.167,0 149.871,-17.781 149.871,-106.179 0,-33.528 -16.77,-66.543 -50.293,-77.219 l 0,-3.047 c 41.66,-14.726 68.066,-45.234 68.066,-90.945 0,-78.738 -73.148,-105.653 -140.215,-105.653 l -121.828,0 0,383.043"/>
			<path style="fill:#1d1d1b;" d="m 957.301,438.227 c 0,-20.907 4.281,-26.856 24,-26.856 21.409,0 31.619,13.078 31.619,36.613 0,28.77 -18.061,38.985 -40.408,38.985 l -15.211,0 0,-48.742 z m 0,56.347 18.07,0 c 13.547,0 29.699,7.844 29.699,35.422 0,23.535 -11.398,32.578 -34.226,32.578 l -13.543,0 0,-68 z m 15.211,75.598 c 36.368,0 56.338,-9.035 56.338,-36.133 0,-19.973 -15.45,-34.719 -34.237,-40.176 l 0,-0.468 c 25.207,-0.723 45.417,-17.129 45.417,-42.09 0,-33.274 -25.44,-47.539 -60.382,-47.539 l -65.847,0 0,6.172 c 21.387,2.617 20.437,1.433 20.437,23.554 l 0,106.961 c 0,22.121 0.95,20.93 -20.437,23.547 l 0,6.172 58.711,0"/>
			<path style="fill:#1d1d1b;" d="m 1119.11,473.668 c -20.92,-7.852 -45.4,-13.555 -45.4,-37.813 0,-11.171 7.36,-20.195 18.31,-20.195 12.36,0 27.09,8.067 27.09,39.453 l 0,18.555 z m 5.47,-72.754 c -3.56,4.277 -5.47,11.641 -5.47,18.77 l -18.54,-12.356 c -5.47,-3.562 -12.12,-6.414 -19.5,-6.414 -15.68,0 -28.76,13.777 -28.76,31.141 0,22.578 13.32,29.707 41.13,40.644 l 25.67,9.992 c 0,20.684 -5.47,34.473 -20.21,34.473 -14.5,0 -19.49,-13.086 -25.19,-21.641 -0.72,-1.191 -1.67,-1.191 -3.09,-0.949 l -8.09,1.906 c -1.42,0.469 -2.13,1.426 -1.9,3.086 l 3.56,12.606 c 1.44,4.512 4.05,6.418 6.89,7.363 10.95,4.278 19.03,5.938 29.49,5.938 27.81,0 39.94,-12.352 39.94,-38.27 l 0,-52.773 c 0,-12.11 0.71,-22.336 16.64,-16.172 l 1.43,-6.653 -34,-10.691"/>
			<path style="fill:#1d1d1b;" d="m 1252.69,497.438 c 7.13,17.109 -5.96,19.023 -18.29,19.023 l 0,6.172 49.2,0 0,-6.172 c -11.65,0 -16.17,-11.66 -20.69,-21.406 l -63.24,-135.5 c -4.52,-9.285 -7.85,-15.235 -17.11,-15.235 l -17.59,0 c -1.91,0 -2.63,2.383 -2.63,4.524 l 0,4.051 c 0,1.894 0,3.8 2.86,4.746 l 14.02,5 c 9.28,3.554 15.93,9.023 19.73,16.875 l 12.36,25.91 -39.93,92.48 c -6.41,14.5 -9.5,18.555 -19.96,18.555 l 0,6.172 62.03,0 0,-6.172 c -12.59,0 -25.19,1.894 -19.01,-14.746 l 28.52,-70.371 29.73,66.094"/>
			<path style="fill:#1d1d1b;" d="m 1351.85,477.699 c 5.23,0 11.89,3.321 11.89,13.781 0,15.215 -11.66,25.684 -24.98,25.684 -15.92,0 -31.36,-9.512 -31.36,-39.465 l 44.45,0 z m -44.45,-8.308 c 0,-27.11 12.6,-54.934 46.59,-54.934 13.09,0 20.9,5.715 26.63,8.555 l 3.8,-7.352 -31.16,-14.746 -7.37,0 c -5.93,0 -25.89,-3.098 -45.14,18.066 -7.15,8.086 -15.94,26.875 -15.94,44.696 0,27.804 14.98,61.797 55.38,61.797 26.89,0 44.23,-19.481 44.23,-49.442 l 0,-6.64 -77.02,0"/>
			<path style="fill:#1d1d1b;" d="m 1453.37,502.895 c -2.39,1.183 -5.22,0.949 -8.79,0.949 -9.75,0 -11.42,-16.153 -11.42,-33.281 l 0,-37.071 c 0,-7.851 0,-11.172 0.96,-16.894 0.93,-4.993 9.51,-5.461 22.34,-6.653 l 0,-6.179 -63.71,0 0,6.179 c 20.2,2.852 19.02,2.149 19.02,23.547 l 0,65.84 c 0,10.938 -7.38,9.981 -18.78,9.981 l 0,6.191 c 12.84,0.469 28.76,3.32 39.7,9.969 l 0.47,-0.477 0,-21.379 12.36,12.844 c 5.71,5.937 9.05,9.012 13.09,9.012 2.14,0 5,-0.235 8.8,-7.118 l 6.88,-12.128 c 0.71,-1.426 -0.48,-2.383 -1.9,-3.332 l -6.9,-4.5 c -1.42,-0.957 -2.37,-0.489 -3.56,0.222 l -8.56,4.278"/>
			<path style="fill:#1d1d1b;" d="m 1503.52,568.746 c 7.59,0 14.01,-6.406 14.01,-13.789 0,-7.363 -6.42,-14.023 -13.78,-14.023 -7.61,0 -14.04,6.179 -14.04,14.023 0,7.617 6.43,13.789 13.81,13.789 z m 13.31,-43.75 0,-91.504 c 0,-21.398 -1.19,-20.695 19,-23.547 l 0,-6.179 -59.42,0 0,6.179 c 20.21,2.852 19.02,2.149 19.02,23.547 l 0,65.84 c 0,10.938 -7.37,9.981 -19.02,9.981 l 0,6.191 c 13.07,0.469 29.01,3.32 39.95,9.969 l 0.47,-0.477"/>
			<path style="fill:#1d1d1b;" d="m 1547.47,433.961 6.19,0 c -0.24,-16.641 12.11,-24.727 25.91,-24.727 13.78,0 21.87,10.45 21.87,20.438 0,15.461 -12.36,20.93 -26.63,31.144 -19.26,14.024 -27.09,17.832 -27.09,33.516 0,19.981 18.53,31.141 38.04,31.141 7.59,0 17.11,-0.477 28.04,-4.032 l 0,-23.781 -6.18,0 c -0.71,8.078 -7.84,19.504 -21.38,19.504 -9.99,0 -18.32,-5.937 -18.32,-15.226 0,-11.407 12.13,-17.586 29.5,-29.93 22.33,-15.703 25.17,-24.492 25.17,-35.43 0,-24.738 -22.34,-35.664 -43.02,-35.664 -13.08,0 -23.3,2.137 -32.1,6.414 l 0,26.633"/>
			<path style="fill:#1d1d1b;" d="m 1732.94,415.895 -31.63,-14.981 c -5.93,0 -33.52,-2.863 -52.27,18.301 -7.62,8.328 -15.94,26.863 -15.94,44.461 0,37.551 28.75,61.797 63.94,61.797 8.8,0 21.39,-1.66 29.25,-6.18 l 8.3,-15.918 c 0.73,-0.957 0.73,-1.895 0,-2.375 l -8.3,-5.234 c -1.18,-0.711 -2.62,-0.946 -3.58,-0.235 l -12.12,14.035 c -3.34,3.789 -9.75,7.598 -18.79,7.598 -14.01,0 -35.17,-11.172 -35.17,-45.644 0,-25.196 11.41,-57.063 45.63,-57.063 13.08,0 20.68,5.715 26.64,8.801 l 4.04,-7.363"/>
			<path style="fill:#1d1d1b;" d="m 1779.07,578.023 0,-73.468 c 10.23,11.906 27.34,20.918 48.01,20.918 29,0 34.73,-17.352 34.73,-42.059 l 0,-49.922 c 0,-21.398 -1.21,-20.695 19.02,-23.547 l 0,-6.179 -59.43,0 0,6.179 c 20.19,2.852 19.01,2.149 19.01,23.547 l 0,43.731 c 0,14.98 -0.96,35.898 -26.16,35.898 -30.44,0 -35.18,-26.144 -35.18,-50.637 l 0,-28.992 c 0,-21.398 -1.18,-20.695 19.02,-23.547 l 0,-6.179 -59.43,0 0,6.179 c 20.2,2.852 19,2.149 19,23.547 l 0,121.231 c 0,6.414 -2.82,10.457 -9.01,10.457 l -9.99,0 0,6.191 c 14.26,0.481 29.47,3.313 39.94,7.121 l 0.47,-0.469"/>
			<path style="fill:#1d1d1b;" d="m 1956.24,477.699 c 5.24,0 11.88,3.321 11.88,13.781 0,15.215 -11.65,25.684 -24.96,25.684 -15.93,0 -31.38,-9.512 -31.38,-39.465 l 44.46,0 z m -44.46,-8.308 c 0,-27.11 12.59,-54.934 46.58,-54.934 13.08,0 20.93,5.715 26.64,8.555 l 3.8,-7.352 -31.14,-14.746 -7.37,0 c -5.95,0 -25.92,-3.098 -45.16,18.066 -7.14,8.086 -15.95,26.875 -15.95,44.696 0,27.804 15,61.797 55.41,61.797 26.85,0 44.21,-19.481 44.21,-49.442 l 0,-6.64 -77.02,0"/>
			<path style="fill:#1d1d1b;" d="m 1002.24,326.41 c -8.099,5.938 -18.799,11.887 -28.771,11.887 -16.649,0 -25.91,-9.758 -25.91,-22.59 0,-11.894 10.218,-20.664 31.613,-36.121 22.818,-16.648 36.128,-31.863 36.128,-53.246 0,-26.391 -24.956,-43.496 -51.577,-43.496 -15.93,0 -34.953,5.679 -46.844,17.34 l 10.223,13.781 c 9.753,-6.887 20.457,-14.5 36.14,-14.5 16.406,0 29.004,8.797 29.004,27.34 0,20.918 -24.973,34.472 -38.516,44.445 -13.789,10.707 -29.238,20.922 -29.238,44.457 0,22.344 21.637,39.219 47.543,39.219 17.36,0 31.865,-6.172 41.115,-16.629 l -10.91,-11.887"/>
			<path style="fill:#1d1d1b;" d="m 1064.03,304.535 31.15,0 0,-12.363 -31.15,0 0,-67.262 c 0,-16.648 3.33,-26.64 16.4,-26.64 7.86,0 12.37,1.914 16.41,4.054 l 5.23,-11.894 c -7.36,-4.746 -16.17,-7.586 -24.25,-7.586 -23.77,0 -35.18,13.777 -35.18,38.004 l 0,71.324 -16.65,0 0,12.363 16.65,0 0,28.535 21.39,7.129 0,-35.664"/>
			<path style="fill:#1d1d1b;" d="m 1154.39,249.387 c -18.77,-5.696 -28.52,-14.739 -28.52,-29.707 0,-12.367 8.56,-20.215 17.12,-20.215 15.21,0 34.71,18.789 31.85,55.879 l -20.45,-5.957 z m 12.85,-50.864 c -8.33,-8.32 -18.79,-15.679 -29.73,-15.679 -19.97,0 -33.75,14.254 -33.75,36.597 0,20.676 17.59,33.75 42.33,41.114 l 28.75,9.035 c -0.95,14.496 -12.13,23.785 -23.77,23.785 -13.79,0 -22.59,-5.715 -31.14,-12.852 l -8.32,10.704 c 11.88,11.414 24.01,16.16 40.65,16.16 17.82,0 43.98,-5.703 43.98,-40.414 l 0,-52.293 c 0,-9.028 1.19,-20.434 5.22,-28.996 l -23.3,0 c -2.85,4.992 -3.32,12.586 -3.32,20.203 l -7.6,-7.364"/>
			<path style="fill:#1d1d1b;" d="m 1265.47,249.387 c -18.79,-5.696 -28.53,-14.739 -28.53,-29.707 0,-12.367 8.56,-20.215 17.12,-20.215 15.19,0 34.7,18.789 31.85,55.879 l -20.44,-5.957 z m 12.85,-50.864 c -8.33,-8.32 -18.8,-15.679 -29.73,-15.679 -19.98,0 -33.77,14.254 -33.77,36.597 0,20.676 17.6,33.75 42.32,41.114 l 28.77,9.035 c -0.95,14.496 -12.13,23.785 -23.77,23.785 -13.8,0 -22.58,-5.715 -31.16,-12.852 l -8.3,10.704 c 11.89,11.414 24,16.16 40.65,16.16 17.84,0 43.99,-5.703 43.99,-40.414 l 0,-52.293 c 0,-9.028 1.17,-20.434 5.21,-28.996 l -23.3,0 c -2.84,4.992 -3.32,12.586 -3.32,20.203 l -7.59,-7.364"/>
			<path style="fill:#1d1d1b;" d="m 1360.36,304.535 31.15,0 0,-12.363 -31.15,0 0,-67.262 c 0,-16.648 3.34,-26.64 16.4,-26.64 7.85,0 12.38,1.914 16.41,4.054 l 5.21,-11.894 c -7.36,-4.746 -16.16,-7.586 -24.23,-7.586 -23.77,0 -35.19,13.777 -35.19,38.004 l 0,71.324 -16.64,0 0,12.363 16.64,0 0,28.535 21.4,7.129 0,-35.664"/>
			<path style="fill:#1d1d1b;" d="m 1464.04,285.523 c -8.57,5.704 -15.45,7.606 -21.89,7.606 -7.6,0 -17.34,-3.574 -17.34,-13.543 0,-9.996 10.94,-14.988 24.48,-25.199 15.23,-11.664 25.2,-21.391 25.2,-38.047 0,-19.973 -19.74,-33.496 -41.6,-33.496 -13.54,0 -28.75,5.926 -36.61,14.961 l 10.46,12.125 c 6.89,-6.422 16.17,-11.895 25.69,-11.895 9.96,0 20.19,5.227 20.19,16.895 0,13.769 -12.34,19.718 -23.52,27.793 -13.57,9.746 -25.44,17.832 -25.44,34 0,18.789 18.53,30.664 39.44,30.664 11.65,0 23.09,-4.746 29.25,-10.938 l -8.31,-10.926"/>
			<path style="fill:#1d1d1b;" d="m 1518.24,280.766 11.43,0 c 19.96,0 37.32,13.789 37.32,31.621 0,14.746 -10.22,23.047 -29.24,23.047 l -19.51,0 0,-54.668 z m 0,-78.442 22.36,0 c 18.79,0 34.94,10.227 34.94,30.188 0,23.297 -19.97,31.621 -38.74,31.621 l -18.56,0 0,-61.809 z m -23.05,-16.64 0,166.402 51.59,0 c 24.73,0 43.26,-12.363 43.26,-33.996 0,-27.11 -21.16,-39.942 -33.99,-42.328 l 0,-0.457 c 21.87,-0.715 44.21,-14.258 44.21,-41.371 0,-27.813 -23.76,-48.25 -58.23,-48.25 l -46.84,0"/>
			<path style="fill:#1d1d1b;" d="m 1618.62,343.766 c 0,5.945 5,12.597 13.55,12.597 8.57,0 13.56,-6.652 13.56,-12.597 0,-6.418 -3.1,-14.504 -13.56,-14.504 -10.47,0 -13.55,8.086 -13.55,14.504 z m 24.26,-39.231 0,-118.851 -21.41,0 0,118.851 21.41,0"/>
			<path style="fill:#1d1d1b;" d="m 1761.47,248.445 c 0,21.614 -10.94,43.727 -33.04,43.727 -24.25,0 -37.34,-18.774 -37.34,-49.449 0,-22.813 10.46,-44.688 37.08,-44.688 25.69,0 33.3,28.77 33.3,50.41 z m -91.76,111.961 21.38,0 0,-74.406 0.48,0 c 8.82,14.258 25.67,21.387 38.99,21.387 46.37,0 53.98,-41.606 53.98,-58.715 0,-36.121 -21.4,-65.828 -56.37,-65.828 -14.95,0 -27.78,7.105 -36.6,18.523 l -0.48,0 0,-15.683 -21.38,0 0,174.722"/>
			<path style="fill:#1d1d1b;" d="m 1803.82,185.684 21.4102,0 0,174.723 -21.4102,0 0,-174.723 z"/>
			<path style="fill:#1d1d1b;" d="m 1849.69,343.766 c 0,5.945 5,12.597 13.54,12.597 8.56,0 13.56,-6.652 13.56,-12.597 0,-6.418 -3.09,-14.504 -13.56,-14.504 -10.45,0 -13.54,8.086 -13.54,14.504 z m 24.25,-39.231 0,-118.851 -21.41,0 0,118.851 21.41,0"/>
			<path style="fill:#1d1d1b;" d="m 1916.24,246.531 c 0,-22.343 7.57,-48.496 35.41,-48.496 28.04,0 35.64,26.153 35.64,48.496 0,21.399 -8.79,45.641 -35.64,45.641 -26.65,0 -35.41,-24.242 -35.41,-45.641 z m -23.08,0 c 0,38.512 28.52,60.856 58.49,60.856 29.96,0 58.72,-22.344 58.72,-60.856 0,-36.851 -23.54,-63.687 -58.72,-63.687 -34.96,0 -58.49,26.836 -58.49,63.687"/>
			<path style="fill:#1d1d1b;" d="m 2056.05,304.535 31.15,0 0,-12.363 -31.15,0 0,-67.262 c 0,-16.648 3.33,-26.64 16.41,-26.64 7.85,0 12.38,1.914 16.4,4.054 l 5.25,-11.894 c -7.4,-4.746 -16.17,-7.586 -24.26,-7.586 -23.78,0 -35.18,13.777 -35.18,38.004 l 0,71.324 -16.65,0 0,12.363 16.65,0 0,28.535 21.38,7.129 0,-35.664"/>
			<path style="fill:#1d1d1b;" d="m 2125.02,289.809 c 11.18,11.875 28.3,17.578 40.67,17.578 27.32,0 42.06,-15.215 42.06,-45.16 l 0,-76.543 -21.38,0 0,72.019 c 0,22.34 -9.51,34 -28.78,34 -16.86,0 -32.32,-11.66 -32.32,-34.469 l 0,-71.55 -21.41,0 0,174.722 21.16,0 0,-70.597"/>
			<path style="fill:#1d1d1b;" d="m 2309.79,257.938 c 0,18.55 -7.84,34.234 -26.63,34.234 -22.82,0 -31.85,-19.008 -32.57,-34.234 l 59.2,0 z m -60.62,-14.247 c -0.24,-23.781 16.65,-45.656 40.18,-45.656 10.92,0 24.25,4.043 32.57,10.227 l 6.17,-11.641 c -12.34,-8.801 -27.1,-13.777 -39.44,-13.777 -37.11,0 -61.59,22.808 -61.59,64.644 0,41.129 29.48,59.899 56.34,59.899 36.13,0 48.27,-32.563 45.88,-63.696 l -80.11,0"/>
			<path style="fill:#1d1d1b;" d="m 2347.83,360.406 21.41,0 0,-103.883 3.57,0 46.58,50.395 15.93,-9.043 -42.33,-44.195 50.18,-60.645 -21.16,-9.746 -52.3,67.285 -0.47,0 0,-64.89 -21.41,0 0,174.722"/>
			<path style="fill:#e20020;" d="m 493.227,185.105 69.6992,0 0,383.445 -69.6992,0 0,-383.445 z"/>
		</g>
	</g>
</svg>