<?xml version="1.0" encoding="UTF-8" standalone="no"?>
<!-- Created with Inkscape (http://www.inkscape.org/) -->
<svg xmlns:dc="http://purl.org/dc/elements/1.1/" xmlns:cc="http://creativecommons.org/ns#" xmlns:rdf="http://www.w3.org/1999/02/22-rdf-syntax-ns#" xmlns:svg="http://www.w3.org/2000/svg" xmlns="http://www.w3.org/2000/svg" xmlns:sodipodi="http://sodipodi.sourceforge.net/DTD/sodipodi-0.dtd" xmlns:inkscape="http://www.inkscape.org/namespaces/inkscape" width="355.747701741" height="281.098091458" viewBox="0 0 546.09149 431.5004" id="svg2" sodipodi:version="0.32" inkscape:version="0.46" version="1.0" sodipodi:docname="CUHK.svg" inkscape:output_extension="org.inkscape.output.svg.inkscape">
  <defs id="defs4">
    <inkscape:perspective sodipodi:type="inkscape:persp3d" inkscape:vp_x="0 : 526.18109 : 1" inkscape:vp_y="0 : 1000 : 0" inkscape:vp_z="744.09448 : 526.18109 : 1" inkscape:persp3d-origin="372.04724 : 350.78739 : 1" id="perspective10"/>
    <clipPath id="clipPath2418" clipPathUnits="userSpaceOnUse">
      <path id="path2420" d="M 272.656,453.785 L 322.546,453.785 L 322.546,388.235 L 272.656,388.235 L 272.656,453.785 z"/>
    </clipPath>
    <inkscape:perspective id="perspective2410" inkscape:persp3d-origin="372.04724 : 350.78739 : 1" inkscape:vp_z="744.09448 : 526.18109 : 1" inkscape:vp_y="0 : 1000 : 0" inkscape:vp_x="0 : 526.18109 : 1" sodipodi:type="inkscape:persp3d"/>
  </defs>
  <sodipodi:namedview id="base" pagecolor="#ffffff" bordercolor="#666666" borderopacity="1.0" gridtolerance="10000" guidetolerance="10" objecttolerance="10" inkscape:pageopacity="0.0" inkscape:pageshadow="2" inkscape:zoom="1.2221311" inkscape:cx="288.57143" inkscape:cy="198.57143" inkscape:document-units="px" inkscape:current-layer="layer1" showgrid="false" inkscape:window-width="1440" inkscape:window-height="844" inkscape:window-x="-4" inkscape:window-y="-4"/>
  <metadata id="metadata7">
    <rdf:RDF>
      <cc:Work rdf:about="">
        <dc:format>image/svg+xml</dc:format>
        <dc:type rdf:resource="http://purl.org/dc/dcmitype/StillImage"/>
      </cc:Work>
    </rdf:RDF>
  </metadata>
  <g inkscape:label="Layer 1" inkscape:groupmode="layer" id="layer1" transform="translate(-28.330298,-54.866127)">
    <g id="g2428" transform="matrix(0,10.490493,10.490493,0,301.62043,398.37732)">
      <path d="M 0,0 C 0,0.375 -0.62,2.11 -0.977,2.788 C -2.895,6.423 -5.495,9.596 -9.088,11.665 C -11.977,13.324 -15.538,13.428 -18.774,13.699 C -22.958,14.049 -27.146,14.018 -31.346,13.952 C -31.647,13.948 -32.309,7.942 -32.365,7.325 C -32.593,4.891 -32.745,1.63 -32.745,0 C -32.745,-1.63 -32.593,-4.891 -32.365,-7.326 C -32.309,-7.943 -31.647,-13.948 -31.346,-13.953 C -27.146,-14.019 -22.958,-14.051 -18.774,-13.701 C -15.538,-13.428 -11.977,-13.325 -9.088,-11.665 C -5.495,-9.597 -2.895,-6.423 -0.977,-2.79 C -0.62,-2.112 0,-0.376 0,0" style="fill:#69246b;fill-opacity:1;fill-rule:nonzero;stroke:none" id="path2430"/>
    </g>
    <g id="g2432" transform="matrix(0,10.490493,10.490493,0,395.54181,230.70777)">
      <path d="M 0,0 L 0.004,0 C 0.006,0.017 0.009,0.033 0.013,0.048 C 0.008,0.032 0.004,0.017 0,0 M 0.26,1.506 C 0.271,1.52 0.281,1.534 0.294,1.544 C 0.291,1.545 0.29,1.545 0.288,1.546 C 0.278,1.534 0.269,1.52 0.26,1.506 M 1.044,1.255 C 1.052,1.271 1.062,1.287 1.071,1.301 L 1.064,1.301 C 1.058,1.286 1.05,1.271 1.044,1.255 M 2.917,0.699 C 2.93,0.715 2.943,0.729 2.957,0.743 L 2.95,0.743 C 2.938,0.729 2.927,0.714 2.917,0.699 M -0.606,0.741 C -0.618,0.71 -0.627,0.677 -0.632,0.638 C -0.631,0.639 -0.627,0.639 -0.625,0.64 C -0.622,0.678 -0.615,0.71 -0.606,0.741 M 9.457,-8.591 C 9.505,-8.705 9.546,-8.825 9.571,-8.955 L 9.571,-8.912 C 9.542,-8.799 9.502,-8.693 9.457,-8.591 M -9.339,-1.656 C -9.339,-1.656 -9.313,-1.697 -9.273,-1.763 C -9.302,-1.711 -9.322,-1.676 -9.331,-1.659 C -9.333,-1.659 -9.336,-1.658 -9.339,-1.656 M -13.888,-0.315 L -13.892,-0.314 C -13.892,-0.314 -13.888,-0.329 -13.88,-0.354 C -13.883,-0.338 -13.886,-0.323 -13.888,-0.315 M -11.816,-0.821 C -11.816,-0.821 -11.795,-0.86 -11.763,-0.923 C -11.786,-0.873 -11.802,-0.84 -11.808,-0.824 C -11.81,-0.823 -11.813,-0.822 -11.816,-0.821 M 1.987,1.035 C 1.998,1.05 2.01,1.064 2.023,1.075 L 2.016,1.075 C 2.006,1.063 1.996,1.05 1.987,1.035 M -6.388,0.931 C -6.421,0.97 -6.447,1.009 -6.469,1.047 C -6.448,1.007 -6.423,0.968 -6.392,0.928 C -6.391,0.929 -6.389,0.93 -6.388,0.931 M -3.256,-1.597 C -3.262,-1.577 -3.265,-1.558 -3.27,-1.539 C -3.266,-1.559 -3.265,-1.578 -3.26,-1.598 L -3.256,-1.597 z M -8.932,2.304 L -8.586,2.279 C -3.603,1.955 -1.804,0.408 -0.701,-1.063 L -0.66,-1.116 C -0.314,-1.58 0.079,-2.105 0.399,-3.068 L 0.41,-3.098 C 0.467,-3.28 0.645,-3.833 0.897,-3.98 C 1.139,-4.121 1.159,-4.164 1.146,-4.189 C 1.113,-4.249 0.781,-4.134 0.703,-4.092 C 0.499,-3.985 0.387,-3.801 0.226,-3.455 C -0.083,-2.794 -0.477,-2.708 -0.685,-2.716 C -0.979,-2.727 -1.259,-2.93 -1.365,-3.209 C -1.446,-3.423 -1.403,-3.631 -1.251,-3.762 C -1.226,-3.704 -1.159,-3.551 -0.913,-3.526 C -0.541,-3.493 -0.384,-3.689 -0.363,-3.867 C -0.338,-4.078 -0.483,-4.319 -0.766,-4.359 C -1.294,-4.436 -1.633,-4.157 -1.751,-3.98 C -1.894,-3.765 -1.941,-3.629 -1.994,-3.47 C -1.994,-3.47 -2.098,-3.195 -2.098,-3.192 C -2.175,-2.753 -1.935,-2.448 -1.806,-2.285 C -1.758,-2.225 -1.717,-2.172 -1.724,-2.151 L -1.748,-2.129 C -1.878,-2.067 -2.391,-2.155 -2.665,-2.264 L -2.691,-2.255 L -2.693,-2.239 C -2.749,-1.836 -2.477,-1.63 -2.316,-1.507 C -2.261,-1.465 -2.209,-1.425 -2.216,-1.406 C -2.22,-1.398 -2.231,-1.39 -2.248,-1.383 C -2.404,-1.33 -2.966,-1.472 -3.231,-1.597 C -3.238,-1.602 -3.247,-1.605 -3.253,-1.609 L -3.254,-1.608 C -3.258,-1.609 -3.263,-1.611 -3.265,-1.613 C -3.387,-1.204 -3.159,-0.951 -3.037,-0.815 C -2.992,-0.764 -2.952,-0.721 -2.962,-0.703 L -2.992,-0.685 C -3.141,-0.644 -3.668,-0.829 -3.926,-0.981 C -3.926,-0.981 -4.01,-0.905 -4.013,-0.9 C -4.167,-0.506 -4.01,-0.254 -3.916,-0.102 C -3.88,-0.044 -3.853,0.001 -3.863,0.023 L -3.897,0.043 C -4.045,0.076 -4.525,-0.116 -4.752,-0.271 C -4.752,-0.271 -4.846,-0.196 -4.851,-0.19 C -4.957,0.126 -4.877,0.37 -4.83,0.515 C -4.81,0.577 -4.795,0.625 -4.806,0.644 C -4.811,0.654 -4.823,0.66 -4.842,0.663 C -4.981,0.683 -5.413,0.497 -5.569,0.355 C -5.569,0.355 -5.663,0.421 -5.667,0.428 C -5.769,0.72 -5.696,0.947 -5.649,1.081 L -5.626,1.197 C -5.633,1.208 -5.653,1.215 -5.683,1.215 C -5.854,1.217 -6.274,1.035 -6.379,0.926 C -6.379,0.926 -6.38,0.923 -6.382,0.921 L -6.382,0.922 C -6.382,0.922 -6.389,0.915 -6.391,0.913 C -6.627,1.197 -6.612,1.464 -6.604,1.608 L -6.611,1.716 C -6.617,1.721 -6.626,1.725 -6.642,1.723 C -6.754,1.718 -7.056,1.512 -7.17,1.369 C -7.805,1.709 -8.396,1.95 -8.932,2.085 C -9.608,2.256 -9.602,2.283 -9.599,2.308 C -9.592,2.346 -9.457,2.341 -8.932,2.304 M 2.626,-5.623 L 2.628,-5.624 C 3.387,-6.078 3.857,-6.652 3.857,-8.103 C 3.857,-8.103 3.856,-8.476 3.856,-8.966 L 3.059,-8.966 L 3.059,-8.19 C 3.059,-7.005 2.9,-6.195 2.599,-5.848 C 2.46,-5.688 2.465,-5.641 2.48,-5.619 C 2.509,-5.578 2.607,-5.615 2.626,-5.623 M -3.124,-8.966 C -3.133,-8.882 -3.139,-8.791 -3.138,-8.688 C -3.138,-7.986 -2.808,-7.674 -2.068,-7.674 C -1.535,-7.674 -0.993,-7.834 -0.942,-8.966 L -3.124,-8.966 z M -14.901,-8.966 C -14.65,-8.254 -14.065,-7.864 -13.318,-7.924 C -12.599,-7.983 -11.956,-8.45 -11.877,-8.966 L -14.901,-8.966 z M -6.578,3.153 C -6.578,3.153 -6.788,3.167 -6.8,3.176 C -6.849,3.33 -7.122,4.009 -7.983,4.137 C -8.117,4.155 -8.263,4.16 -8.426,4.149 L -8.392,4.112 C -8.264,3.977 -7.877,3.566 -7.927,3.34 C -7.94,3.284 -7.978,3.241 -8.048,3.215 C -8.906,3.216 -9.588,3.148 -10.472,3.059 C -10.606,3.304 -10.986,3.817 -11.798,3.815 C -11.906,3.813 -12.021,3.803 -12.144,3.781 L -12.097,3.739 C -11.943,3.606 -11.536,3.251 -11.562,3.043 C -11.568,2.992 -11.597,2.954 -11.655,2.927 L -11.77,2.915 C -13.591,2.745 -14.49,2.371 -14.874,1.625 C -14.874,1.625 -14.891,1.578 -14.896,1.578 C -14.882,1.578 -14.825,1.617 -14.771,1.654 C -14.609,1.763 -14.341,1.944 -14.022,2.014 C -13.479,2.134 -13.042,2.177 -12.686,2.177 C -12.273,2.177 -11.964,2.12 -11.718,2.056 C -11.538,1.958 -11.426,1.818 -11.384,1.64 C -11.286,1.229 -11.741,0.76 -12.111,0.605 C -12.123,0.599 -12.135,0.592 -12.135,0.582 C -12.135,0.549 -12.036,0.492 -11.966,0.462 C -11.48,0.328 -10.869,0.493 -10.633,0.823 C -10.546,0.944 -10.476,1.139 -10.634,1.372 C -10.715,1.492 -10.745,1.581 -10.727,1.645 C -10.717,1.678 -10.693,1.701 -10.648,1.718 C -10.213,1.562 -9.775,1.385 -9.344,1.188 C -9.243,1.075 -9.189,0.951 -9.181,0.814 C -9.152,0.352 -9.723,-0.036 -10.127,-0.127 C -10.144,-0.131 -10.154,-0.136 -10.155,-0.145 C -10.163,-0.179 -10.07,-0.259 -10.002,-0.303 C -9.521,-0.537 -8.856,-0.484 -8.55,-0.189 C -8.436,-0.078 -8.326,0.11 -8.449,0.387 C -8.512,0.531 -8.529,0.628 -8.499,0.685 C -8.485,0.71 -8.46,0.727 -8.418,0.732 C -7.994,0.506 -7.57,0.256 -7.156,-0.015 C -7.09,-0.117 -7.058,-0.228 -7.059,-0.354 C -7.061,-0.845 -7.626,-1.168 -8.017,-1.206 C -8.032,-1.207 -8.041,-1.211 -8.044,-1.219 C -8.054,-1.253 -7.964,-1.351 -7.897,-1.409 C -7.441,-1.715 -6.81,-1.759 -6.489,-1.508 C -6.31,-1.367 -6.262,-1.15 -6.354,-0.9 C -6.41,-0.747 -6.423,-0.651 -6.393,-0.609 C -6.382,-0.592 -6.363,-0.583 -6.333,-0.586 C -5.978,-0.848 -5.626,-1.129 -5.285,-1.424 C -5.156,-1.619 -5.108,-1.813 -5.14,-2.017 C -5.221,-2.538 -5.965,-2.86 -6.461,-2.86 C -6.484,-2.86 -6.498,-2.866 -6.503,-2.875 C -6.52,-2.916 -6.427,-3.034 -6.366,-3.098 C -5.871,-3.49 -5.091,-3.599 -4.664,-3.335 C -4.504,-3.237 -4.329,-3.046 -4.401,-2.694 C -4.439,-2.508 -4.434,-2.401 -4.386,-2.366 C -4.356,-2.346 -4.315,-2.352 -4.259,-2.385 C -4.259,-2.385 -3.471,-3.235 -3.47,-3.237 C -3.336,-3.448 -3.201,-3.773 -3.326,-4.114 C -3.529,-4.685 -4.445,-4.888 -5.011,-4.781 C -5.038,-4.776 -5.055,-4.78 -5.063,-4.792 C -5.092,-4.837 -5.012,-4.993 -4.955,-5.079 C -4.476,-5.631 -3.61,-5.92 -3.065,-5.712 C -2.861,-5.634 -2.621,-5.455 -2.626,-5.038 C -2.629,-4.809 -2.597,-4.684 -2.528,-4.659 C -2.47,-4.638 -2.393,-4.689 -2.291,-4.816 C -2.225,-4.931 -2.139,-5.064 -2.006,-5.173 C -1.699,-5.425 -1.449,-5.54 -1.142,-5.57 L -0.83,-5.593 C -0.586,-5.61 -0.336,-5.628 -0.094,-5.679 C 0.135,-5.725 0.34,-5.797 0.514,-5.892 C 1.479,-6.423 1.983,-7.663 2.173,-8.966 L 0.359,-8.966 C 0.311,-7.381 -0.38,-6.698 -1.929,-6.698 C -3.248,-6.698 -3.821,-7.174 -3.843,-8.29 C -3.848,-8.513 -3.812,-8.745 -3.737,-8.966 L -4.746,-8.966 C -5.106,-8.172 -5.513,-7.273 -5.752,-6.336 C -6.299,-4.181 -7.491,-2.447 -8.762,-1.842 C -8.945,-1.758 -9.131,-1.698 -9.322,-1.661 C -9.248,-1.776 -8.335,-3.216 -8.104,-4.292 L -8.079,-4.439 C -8.052,-4.584 -8.023,-4.735 -8.088,-4.813 C -8.118,-4.849 -8.165,-4.867 -8.231,-4.867 C -8.812,-4.867 -9.268,-4.547 -9.515,-3.964 L -9.54,-3.905 C -10.094,-2.602 -10.526,-1.585 -11.202,-1.094 C -11.382,-0.967 -11.578,-0.874 -11.799,-0.826 C -11.74,-0.935 -10.942,-2.447 -10.805,-3.421 L -10.796,-3.474 C -10.776,-3.591 -10.742,-3.787 -10.841,-3.88 C -10.899,-3.934 -10.994,-3.944 -11.126,-3.912 C -11.568,-3.801 -11.83,-3.612 -12.031,-3.262 C -12.25,-2.879 -12.434,-2.468 -12.611,-2.07 C -12.91,-1.396 -13.18,-0.793 -13.539,-0.492 C -13.557,-0.476 -13.578,-0.459 -13.599,-0.444 C -13.604,-0.44 -13.609,-0.437 -13.614,-0.434 C -13.697,-0.378 -13.785,-0.34 -13.877,-0.318 L -13.432,-1.736 L -13.345,-2.014 C -13.217,-2.42 -13.086,-2.84 -13.218,-2.974 C -13.268,-3.024 -13.347,-3.032 -13.462,-2.996 C -13.706,-2.925 -13.844,-2.862 -14.006,-2.747 C -14.761,-2.217 -15.561,-1.141 -15.334,0.149 C -15.294,0.364 -15.31,0.473 -15.334,0.48 C -15.348,0.483 -15.39,0.446 -15.451,0.279 C -15.805,-0.695 -15.772,-1.603 -15.355,-2.42 C -14.591,-3.912 -12.531,-5.142 -9.232,-6.076 C -7.347,-6.61 -6.668,-7.77 -6.13,-8.966 L -10.337,-8.966 C -10.51,-8.531 -10.754,-8.154 -11.077,-7.831 C -11.986,-6.923 -13.12,-6.6 -14.11,-6.969 C -14.911,-7.268 -15.467,-7.976 -15.524,-8.774 C -15.529,-8.84 -15.53,-8.903 -15.532,-8.966 L -16.138,-8.966 C -16.138,-10.461 -15.999,-13.556 -15.774,-15.97 C -15.693,-16.836 -15.067,-22.3 -14.804,-22.305 C -13.379,-22.328 -11.964,-22.346 -10.555,-22.346 C -7.931,-22.346 -5.327,-22.282 -2.716,-22.064 L -1.698,-21.983 C 1.161,-21.762 4.118,-21.533 6.592,-20.114 C 9.728,-18.319 12.351,-15.46 14.388,-11.618 C 14.514,-11.38 15.081,-10.277 15.278,-9.357 C 15.279,-9.354 15.28,-9.349 15.281,-9.345 C 15.29,-9.304 15.296,-9.263 15.303,-9.223 C 15.318,-9.134 15.332,-9.048 15.337,-8.966 L 10.831,-8.966 C 10.85,-7.686 10.865,-5.698 10.681,-5.169 C 10.506,-4.66 10.116,-4.333 9.583,-4.247 C 8.966,-4.15 8.277,-4.398 7.942,-4.839 C 7.896,-4.9 7.891,-4.984 7.919,-5.007 C 7.94,-5.026 7.964,-5.015 8.016,-4.985 C 8.103,-4.938 8.246,-4.859 8.535,-4.859 C 8.803,-4.859 9.025,-4.952 9.195,-5.134 C 9.659,-5.631 9.596,-6.642 9.596,-6.652 L 9.583,-7.82 L 9.583,-8.955 C 9.58,-8.941 9.574,-8.929 9.571,-8.915 L 9.571,-8.957 C 9.418,-8.298 8.942,-7.834 8.58,-7.636 C 7.664,-7.132 7.059,-7.555 6.884,-7.688 C 6.858,-7.712 6.843,-7.727 6.843,-7.727 L 6.843,-7.72 C 6.836,-7.724 6.833,-7.727 6.833,-7.727 C 6.831,-7.649 6.828,-7.572 6.825,-7.498 C 6.828,-7.571 6.835,-7.642 6.833,-7.718 C 6.833,-7.718 6.837,-7.715 6.843,-7.709 C 6.841,-7.411 6.81,-7.141 6.754,-6.893 C 6.793,-7.075 6.813,-7.273 6.824,-7.48 C 6.685,-5.054 4.495,-4.542 3.302,-4.262 L 3.105,-4.214 C 2.75,-4.128 2.127,-3.904 1.961,-3.369 C 1.853,-3.028 1.724,-2.803 1.629,-2.639 L 1.524,-2.442 C 1.524,-2.442 1.498,-2.376 1.497,-2.37 C 1.506,-2.064 1.764,-2.072 1.935,-2.077 C 2.006,-2.078 2.072,-2.081 2.085,-2.057 C 2.092,-2.045 2.085,-2.02 2.064,-1.986 C 1.903,-1.723 1.415,-1.592 1.134,-1.558 C 1.114,-1.556 1.092,-1.554 1.074,-1.554 L 1.075,-1.553 L 1.062,-1.549 C 1.181,-1.217 1.377,-1.187 1.482,-1.17 C 1.51,-1.166 1.536,-1.162 1.539,-1.154 C 1.544,-1.144 1.527,-1.115 1.49,-1.069 C 1.294,-0.826 0.846,-0.772 0.584,-0.765 L 0.574,-0.765 C 0.57,-0.764 0.565,-0.764 0.565,-0.764 C 0.591,-0.356 0.821,-0.316 0.933,-0.297 C 0.956,-0.293 0.988,-0.287 0.99,-0.281 C 0.99,-0.281 0.989,-0.264 0.937,-0.213 C 0.712,-0.002 0.236,-0.002 0.028,-0.009 C 0.021,-0.01 0.01,-0.011 0.001,-0.013 L 0.003,-0.011 L -0.007,-0.011 C 0.013,0.252 0.211,0.312 0.33,0.348 C 0.372,0.36 0.412,0.373 0.414,0.387 C 0.416,0.394 0.411,0.411 0.362,0.448 C 0.051,0.69 -0.413,0.677 -0.588,0.64 C -0.602,0.636 -0.618,0.631 -0.626,0.626 L -0.626,0.63 C -0.63,0.629 -0.636,0.628 -0.636,0.628 C -0.623,0.898 -0.448,0.959 -0.344,0.995 C -0.308,1.006 -0.276,1.017 -0.275,1.029 C -0.274,1.039 -0.283,1.057 -0.338,1.1 C -0.584,1.293 -1.058,1.277 -1.312,1.225 C -1.732,1.582 -2.092,1.804 -2.353,1.867 C -2.55,1.915 -2.576,1.946 -2.574,1.97 C -2.57,2.01 -2.459,2.022 -2.393,2.026 C -1.755,1.97 -0.935,1.837 -0.093,1.645 C -0.088,1.643 -0.082,1.642 -0.078,1.641 C -0.072,1.64 -0.066,1.638 -0.06,1.637 C 0.059,1.611 0.176,1.585 0.297,1.557 C 0.297,1.557 0.294,1.553 0.292,1.552 C 0.297,1.55 0.302,1.549 0.306,1.548 C 0.193,1.429 0.157,1.124 0.226,1.056 C 0.259,1.024 0.31,1.06 0.346,1.096 C 0.483,1.226 0.739,1.298 0.972,1.307 C 1.006,1.311 1.04,1.313 1.071,1.314 L 1.068,1.308 C 1.073,1.307 1.077,1.308 1.077,1.308 C 1.004,1.163 0.988,0.924 1.052,0.876 C 1.085,0.851 1.134,0.885 1.169,0.919 C 1.329,1.073 1.662,1.125 1.909,1.1 C 1.951,1.096 1.991,1.094 2.026,1.088 C 2.024,1.086 2.022,1.083 2.021,1.081 C 2.024,1.08 2.03,1.08 2.034,1.079 C 1.921,0.961 1.883,0.655 1.953,0.585 C 1.985,0.552 2.038,0.588 2.074,0.625 C 2.215,0.76 2.591,0.793 2.843,0.766 C 2.886,0.763 2.926,0.76 2.96,0.755 C 2.958,0.753 2.956,0.75 2.954,0.749 C 2.96,0.747 2.964,0.747 2.969,0.746 C 2.845,0.61 2.777,0.376 2.823,0.323 C 2.843,0.301 2.891,0.312 2.954,0.356 C 3.208,0.529 3.678,0.472 3.856,0.42 C 5.586,-0.359 6.473,-1.226 6.491,-2.158 C 6.506,-2.916 5.828,-3.322 5.342,-3.37 C 4.637,-3.437 4.169,-2.767 4.003,-2.36 C 3.881,-2.067 4.049,-1.882 4.125,-1.817 C 4.413,-1.579 4.609,-1.609 4.725,-1.676 C 4.877,-1.765 4.952,-1.968 4.928,-2.103 C 4.887,-2.326 4.972,-2.506 5.155,-2.582 C 5.328,-2.654 5.524,-2.606 5.622,-2.468 C 5.779,-2.244 5.788,-1.953 5.652,-1.647 C 5.48,-1.264 5.107,-0.935 4.799,-0.899 C 4.529,-0.835 3.989,-0.94 3.767,-1.149 C 3.119,-1.626 2.927,-2.226 3.255,-2.753 C 3.838,-3.692 4.5,-4.22 5.172,-4.277 C 5.786,-4.327 6.413,-3.994 7.034,-3.287 C 7.773,-2.446 7.32,-1.085 6.668,-0.476 C 6.668,-0.476 6.615,-0.403 6.615,-0.392 C 6.673,-0.235 6.898,0.512 6.246,1.178 C 6.165,1.26 6.068,1.341 5.957,1.42 L 5.962,1.359 C 5.983,1.16 6.038,0.631 5.865,0.504 C 5.819,0.469 5.759,0.466 5.685,0.497 C 5.158,0.882 4.488,1.234 3.684,1.554 C 3.674,1.717 3.58,2.445 2.776,2.783 C 2.651,2.834 2.512,2.876 2.353,2.904 L 2.383,2.847 C 2.49,2.661 2.772,2.164 2.648,2.003 C 2.606,1.95 2.526,1.94 2.407,1.971 C 1.76,2.159 1.042,2.328 0.261,2.484 C 0.226,2.712 0.041,3.402 -0.853,3.615 C -0.961,3.638 -1.079,3.657 -1.21,3.665 L -1.176,3.614 C -1.058,3.44 -0.748,2.982 -0.834,2.778 C -0.857,2.726 -0.902,2.694 -0.973,2.683 C -1.665,2.787 -2.413,2.877 -3.21,2.959 C -3.24,3.065 -3.536,3.964 -4.687,3.964 C -4.726,3.964 -4.768,3.962 -4.809,3.96 C -4.797,3.946 -4.782,3.929 -4.782,3.929 C -4.643,3.777 -4.271,3.372 -4.325,3.16 C -4.338,3.106 -4.375,3.071 -4.441,3.049 L -6.29,3.14 L -6.578,3.153 z M 1.08,-1.541 C 1.089,-1.515 1.1,-1.492 1.11,-1.47 C 1.099,-1.492 1.086,-1.514 1.075,-1.541 L 1.08,-1.541 z M 0.576,-0.753 C 0.576,-0.739 0.579,-0.725 0.581,-0.712 C 0.579,-0.727 0.575,-0.737 0.574,-0.753" style="fill:#dda52d;fill-opacity:1;fill-rule:nonzero;stroke:none" id="path2434"/>
    </g>
    <g id="g2436" transform="matrix(0,10.490493,10.490493,0,289.32557,206.32786)">
      <path d="M 0,0 C 0.088,-0.021 0.185,0.017 0.21,0.081 C 0.22,0.106 0.23,0.174 0.11,0.24 L -0.037,0.302 C -0.394,0.445 -0.708,0.571 -0.774,1.172 L -1.442,1.172 C -1.251,0.594 -0.786,0.088 0,0 M 3.933,-8.382 L 3.934,-8.382 C 3.934,-8.405 3.933,-8.431 3.933,-8.457 C 3.932,-8.422 3.933,-8.395 3.933,-8.382 M 3.945,-8.394 L 3.945,-8.379 L 3.931,-8.356 L 2.431,-8.579 C 2.35,-8.578 2.293,-8.578 2.264,-8.617 C 2.234,-8.658 2.242,-8.736 2.288,-8.888 C 2.983,-11.009 3.784,-11.016 5.258,-10.843 C 5.355,-10.83 5.53,-10.697 5.53,-10.647 L 5.532,-10.636 L 5.511,-10.625 C 5.381,-10.598 5.201,-10.519 5.138,-10.484 C 4.044,-9.864 3.939,-8.815 3.945,-8.394 M -1.942,-1.808 C -1.598,-2.068 -0.79,-2.2 0.461,-2.2 C 2.441,-2.2 2.715,-0.67 2.715,0.981 C 2.715,1.047 2.711,1.109 2.709,1.172 L 1.357,1.172 C 1.36,1.111 1.363,1.047 1.363,0.981 C 1.363,-0.417 1.256,-0.945 0.135,-0.945 C -1.195,-0.945 -1.731,-0.338 -2.129,0.573 L -2.391,1.158 C -2.391,1.158 -2.395,1.167 -2.397,1.172 L -3.837,1.172 C -3.769,1.021 -3.703,0.87 -3.638,0.719 C -3.241,-0.194 -2.832,-1.139 -1.942,-1.808 M -12.477,-0.749 C -12.356,-0.843 -12.215,-0.919 -12.178,-0.881 C -12.16,-0.86 -12.176,-0.82 -12.229,-0.758 C -12.681,-0.233 -12.798,0.387 -12.579,1.085 C -12.57,1.117 -12.556,1.142 -12.545,1.172 L -13.231,1.172 C -13.261,-0.049 -12.668,-0.603 -12.477,-0.749 M 0.731,-7.132 C 1.048,-7.132 1.306,-6.861 1.306,-6.529 C 1.306,-6.196 1.048,-5.925 0.731,-5.925 C 0.416,-5.925 0.16,-6.196 0.16,-6.529 C 0.16,-6.861 0.416,-7.132 0.731,-7.132 M -8.552,-5.089 L -8.553,-5.089 L -8.549,-5.086 C -8.549,-5.086 -8.55,-5.089 -8.552,-5.089 M 0.731,-5.585 C 1.226,-5.585 1.629,-6.008 1.629,-6.529 C 1.629,-7.049 1.226,-7.472 0.731,-7.472 C 0.238,-7.472 -0.163,-7.049 -0.163,-6.529 C -0.163,-6.008 0.238,-5.585 0.731,-5.585 M -9.672,0.724 C -9.804,0.591 -10.406,0.604 -10.412,0.604 C -11.186,0.604 -11.46,-0.043 -11.46,-0.596 C -11.46,-1.188 -11.148,-1.8 -10.627,-1.8 L -8.657,-1.796 C -8.553,-1.796 -8.468,-1.831 -8.411,-1.898 C -8.362,-1.955 -8.335,-2.036 -8.335,-2.126 C -8.335,-2.308 -8.447,-2.496 -8.636,-2.496 L -9.697,-2.496 C -10.902,-2.496 -11.083,-3.844 -11.083,-4.649 C -11.083,-5.8 -10.568,-7.024 -9.614,-7.024 L -4.745,-7.024 C -4.485,-7.017 -4.296,-7.184 -4.214,-7.329 C -4.142,-7.456 -4.135,-7.586 -4.192,-7.677 C -4.244,-7.758 -4.369,-7.848 -4.668,-7.823 C -4.708,-7.819 -4.738,-7.838 -4.745,-7.868 C -4.755,-7.908 -4.723,-7.973 -4.604,-8.02 C -4.243,-8.159 -3.911,-8.15 -3.615,-7.995 C -3.238,-7.797 -3.022,-7.402 -2.969,-7.186 L -2.296,-7.197 L -2.296,-7.202 C -2.308,-7.967 -2.604,-8.892 -3.998,-8.892 L -10.709,-8.892 C -11.734,-8.892 -12.08,-9.316 -12.189,-9.673 C -12.394,-10.329 -11.95,-11.187 -11.425,-11.548 C -10.873,-11.927 -10.374,-11.815 -10.09,-11.586 C -9.769,-11.325 -9.663,-10.89 -9.825,-10.502 C -9.828,-10.493 -9.875,-10.424 -9.922,-10.428 C -9.952,-10.432 -9.97,-10.461 -9.978,-10.516 C -10.019,-10.779 -10.197,-10.936 -10.452,-10.936 C -10.733,-10.936 -10.969,-10.691 -10.969,-10.399 C -10.969,-10.111 -10.737,-9.876 -10.452,-9.876 L -9.469,-9.876 L -3.7,-9.871 C -3.713,-10.651 -3.076,-10.862 -2.7,-10.862 C -2.11,-10.862 -1.887,-10.449 -1.878,-10.432 C -1.868,-10.414 -1.871,-10.374 -1.895,-10.349 C -1.913,-10.329 -1.952,-10.313 -2.023,-10.349 C -2.219,-10.446 -2.389,-10.451 -2.514,-10.36 C -2.679,-10.242 -2.739,-9.989 -2.714,-9.8 C -2.696,-9.682 -2.648,-9.6 -2.582,-9.576 C -1.77,-9.289 -1.357,-8.543 -1.321,-7.297 C -1.321,-7.27 -1.293,-7.224 -1.248,-7.179 L -0.879,-7.183 C -0.715,-7.565 -0.156,-8.416 1.446,-8.379 C 2.67,-8.352 4.377,-8.111 4.548,-7.878 C 4.563,-7.858 4.568,-7.838 4.563,-7.818 C 4.275,-6.781 4.255,-5.241 4.719,-4.461 C 4.784,-4.353 4.86,-4.295 4.931,-4.302 C 4.973,-4.306 5.005,-4.331 5.017,-4.368 C 5.032,-4.406 5.02,-4.446 4.987,-4.48 C 4.646,-4.82 4.605,-5.782 4.602,-6.068 C 4.584,-7.145 4.915,-9.356 6.297,-10.008 C 7.087,-10.382 8.683,-9.626 9.189,-9.221 C 9.222,-9.197 9.221,-9.141 9.205,-9.103 C 9.191,-9.07 9.167,-9.053 9.142,-9.058 C 8.35,-9.216 7.571,-8.903 6.947,-8.176 C 6.187,-7.293 5.84,-6.003 6.139,-5.175 C 6.18,-5.065 6.248,-4.992 6.323,-4.981 C 6.359,-4.975 6.392,-4.985 6.408,-5.008 C 6.424,-5.028 6.425,-5.056 6.413,-5.087 C 5.948,-6.163 6.655,-7.265 6.661,-7.276 C 9.458,-6.809 9.388,-3.404 9.338,-0.918 L 9.326,-0.067 C 9.332,-0.066 10.27,0.884 11.061,0.755 C 11.379,0.702 11.632,0.484 11.815,0.105 C 11.999,-0.276 11.904,-1.793 11.778,-1.95 C 11.71,-2.033 11.51,-2.068 11.27,-2.036 C 10.895,-1.985 10.385,-1.761 10.181,-1.291 C 10.167,-1.24 10.145,-1.215 10.118,-1.22 C 10.06,-1.231 10.017,-1.391 10.029,-1.498 C 10.137,-2.365 10.574,-2.988 11.229,-3.208 C 11.374,-3.257 11.445,-3.279 11.599,-3.281 C 11.874,-3.305 11.88,-3.37 11.919,-3.731 L 11.941,-3.925 C 12.025,-4.61 12.352,-5 12.912,-5.083 C 13.354,-5.147 13.8,-5.01 14.138,-4.707 C 14.418,-4.453 14.571,-4.129 14.559,-3.812 C 14.559,-3.794 14.541,-3.764 14.512,-3.758 C 14.485,-3.75 14.444,-3.758 14.398,-3.839 C 14.177,-4.224 13.815,-4.324 13.557,-4.253 C 13.272,-4.176 13.099,-3.903 13.104,-3.542 C 13.104,-3.537 13.1,-3.388 13.213,-3.382 L 13.32,-3.38 L 13.633,-3.357 C 14.478,-3.212 15.216,-2.567 15.43,-1.79 C 15.438,-1.761 15.415,-1.702 15.373,-1.687 C 15.34,-1.675 15.288,-1.688 15.234,-1.819 C 14.93,-2.23 14.325,-2.38 13.861,-2.382 C 13.553,-2.385 13.297,-2.321 13.224,-2.224 C 13.09,-2.052 13.007,-1.416 13.323,-1.1 C 13.634,-0.788 13.92,-0.647 14.127,-0.703 C 14.264,-0.74 14.364,-0.866 14.417,-1.065 C 14.422,-1.091 14.465,-1.105 14.498,-1.097 C 14.514,-1.094 14.566,-1.077 14.553,-1.001 C 14.43,-0.169 13.779,0.121 13.257,0.116 C 13.253,0.114 13.225,0.106 13.203,0.124 C 13.182,0.139 13.169,0.176 13.169,0.227 L 13.177,0.839 C 13.178,0.942 13.18,1.056 13.182,1.172 L 6.155,1.172 L 6.151,-1.164 C 6.151,-1.705 6.388,-1.912 6.609,-1.926 C 6.9,-1.945 7.25,-1.637 7.325,-1.034 C 7.33,-0.997 7.387,-0.903 7.424,-0.904 C 7.432,-0.904 7.462,-0.916 7.465,-1.045 C 7.47,-1.445 7.482,-2.278 6.99,-2.581 C 6.69,-2.766 6.302,-2.779 6.004,-2.612 C 5.62,-2.397 5.409,-1.913 5.409,-1.249 L 5.409,1.172 L 4.472,1.172 C 4.65,-0.041 4.552,-1.313 4.293,-2.113 C 3.801,-3.619 2.425,-4.875 0.744,-4.361 C 0.512,-4.289 0.27,-4.127 0.005,-3.862 C -0.322,-3.533 -0.331,-3.205 -0.334,-3.096 C -0.327,-3.051 -0.335,-3.022 -0.358,-3.009 C -0.411,-2.981 -0.511,-3.076 -0.516,-3.079 C -1.136,-3.601 -1.323,-5.779 -1.14,-6.212 C -1.134,-6.224 -1.154,-6.236 -1.167,-6.244 C -1.486,-6.421 -3.542,-6.485 -4.085,-5.706 C -4.309,-5.381 -4.392,-5.04 -4.305,-4.795 C -4.236,-4.595 -4.061,-4.452 -3.785,-4.373 C -3.464,-4.277 -3.089,-4.373 -2.948,-4.586 C -2.844,-4.744 -2.88,-4.944 -3.05,-5.15 C -3.097,-5.207 -3.166,-5.232 -3.227,-5.254 L -3.295,-5.281 C -3.339,-5.302 -3.39,-5.34 -3.387,-5.377 C -3.387,-5.389 -3.381,-5.405 -3.352,-5.413 C -2.696,-5.443 -2.221,-5.183 -2.045,-4.699 C -1.739,-3.863 -2.059,-2.951 -2.86,-2.378 C -3.606,-1.847 -4.862,-1.623 -5.304,-2.144 C -5.334,-2.18 -5.343,-2.208 -5.33,-2.228 C -5.304,-2.275 -5.188,-2.254 -5.165,-2.249 C -4.466,-2.245 -3.964,-2.699 -3.882,-3.139 C -3.812,-3.518 -4.044,-3.838 -4.52,-4.015 C -4.52,-4.015 -4.622,-4 -4.612,-3.885 C -4.579,-3.501 -4.718,-3.225 -5.015,-3.084 C -5.39,-2.91 -5.91,-3.055 -6.226,-3.423 C -6.23,-3.437 -6.252,-3.513 -6.226,-3.545 C -6.219,-3.553 -6.207,-3.561 -6.188,-3.558 C -5.731,-3.504 -5.441,-3.626 -5.388,-3.889 C -5.34,-4.132 -5.517,-4.422 -5.751,-4.489 C -6.001,-4.557 -6.233,-4.354 -6.385,-3.931 C -6.394,-3.908 -6.408,-3.902 -6.417,-3.899 C -6.452,-3.891 -6.495,-3.928 -6.499,-3.931 C -6.686,-4.489 -6.485,-5.08 -6.048,-5.286 C -5.756,-5.422 -5.24,-5.296 -5.092,-4.978 C -5.092,-4.978 -5.074,-4.965 -5.043,-4.988 C -4.955,-5.049 -4.841,-5.342 -4.927,-5.615 C -4.989,-5.812 -5.175,-6.047 -5.709,-6.047 L -8.926,-6.047 C -9.256,-6.047 -9.432,-5.684 -9.462,-5.326 C -9.492,-4.971 -9.38,-4.564 -9.065,-4.512 C -8.661,-4.445 -8.556,-4.498 -8.494,-4.626 C -8.378,-4.874 -8.569,-5.09 -8.569,-5.09 C -8.565,-5.094 -8.562,-5.095 -8.558,-5.097 L -8.56,-5.1 C -8.554,-5.102 -8.549,-5.102 -8.544,-5.104 C -8.467,-5.144 -8.388,-5.138 -8.311,-5.096 C -8.142,-5.007 -8.003,-4.77 -7.954,-4.494 C -7.907,-4.22 -7.94,-4.015 -8.05,-3.883 C -8.136,-3.78 -8.272,-3.726 -8.44,-3.726 L -8.963,-3.726 C -9.206,-3.726 -9.322,-3.592 -9.328,-3.469 C -9.333,-3.357 -9.251,-3.237 -9.057,-3.218 L -8.365,-3.212 L -7.222,-3.218 C -6.399,-3.218 -6.024,-2.577 -6.024,-1.981 C -6.024,-1.381 -6.408,-0.776 -7.141,-0.776 L -8.835,-0.776 C -9.148,-0.776 -9.348,-0.648 -9.369,-0.435 C -9.389,-0.222 -9.209,0.048 -8.882,0.111 C -8.508,0.184 -8.45,0.154 -8.258,0.055 L -8.147,-0.002 L -8.062,-0.044 C -7.866,-0.14 -7.777,-0.183 -7.733,-0.153 C -7.697,-0.128 -7.698,-0.064 -7.713,0.062 C -7.762,0.47 -7.855,0.837 -7.988,1.172 L -9.58,1.172 C -9.579,1.165 -9.577,1.158 -9.576,1.15 C -9.554,1.004 -9.545,0.85 -9.672,0.724" style="fill:#69246b;fill-opacity:1;fill-rule:nonzero;stroke:none" id="path2438"/>
    </g>
    <g id="g2440" transform="matrix(0,10.490493,10.490493,0,571.26806,427.49892)">
      <path d="M 0,0 C -1.256,-0.101 -2.135,-1.168 -0.968,-6.2 C -1.542,-6.223 -2.053,-6.245 -2.301,-6.256 C -3.268,-6.299 -3.799,-7.328 -3.731,-9.415 C -3.698,-10.443 -3.657,-10.99 -3.602,-11.377 C -4.686,-12.777 -6.408,-13.195 -7.953,-13.116 L -10.292,-11.092 C -10.71,-10.552 -12.552,-12.361 -12.033,-14.116 L -7.499,-17.559 C -7.544,-17.504 -7.582,-17.45 -7.621,-17.396 C -6.562,-18.231 -4.545,-18.17 -2.544,-16.97 C -2.075,-19.805 -1.621,-23.031 -1.621,-25.325 C -1.621,-25.456 -1.622,-25.592 -1.626,-25.729 C -1.622,-25.865 -1.621,-26.001 -1.621,-26.133 C -1.621,-28.426 -2.075,-31.652 -2.544,-34.487 C -4.545,-33.288 -6.562,-33.226 -7.621,-34.061 C -7.582,-34.006 -7.544,-33.952 -7.499,-33.898 L -12.033,-37.341 C -12.552,-39.096 -10.71,-40.905 -10.292,-40.365 L -7.953,-38.34 C -6.408,-38.262 -4.686,-38.68 -3.602,-40.08 C -3.657,-40.466 -3.698,-41.014 -3.731,-42.042 C -3.799,-44.129 -3.268,-45.159 -2.301,-45.201 C -2.053,-45.212 -1.542,-45.235 -0.968,-45.256 C -2.135,-50.289 -1.256,-51.355 0,-51.456 C 1.03,-51.538 3.04,-51.575 3.782,-51.457 C 4.524,-51.34 5.073,-50.231 5.277,-49.04 C 5.749,-46.285 5.142,-41.052 1.582,-37.03 C 2.171,-34.496 2.916,-31.407 2.916,-26.133 C 2.916,-25.996 2.913,-25.863 2.912,-25.729 C 2.913,-25.592 2.916,-25.462 2.916,-25.325 C 2.916,-20.049 2.171,-16.962 1.582,-14.427 C 5.142,-10.404 5.749,-5.171 5.277,-2.416 C 5.073,-1.225 4.524,-0.116 3.782,0.001 C 3.04,0.119 1.03,0.082 0,0" style="fill:#eddbae;fill-opacity:1;fill-rule:nonzero;stroke:none" id="path2442"/>
    </g>
    <g id="g2444" transform="matrix(0,10.490493,10.490493,0,570.07214,458.28852)">
      <path d="M 0,0 C -0.049,-0.045 -0.099,-0.09 -0.141,-0.144 C -0.768,-0.943 -0.554,-2.551 -0.305,-3.997 C -0.228,-4.438 -0.08,-4.98 0.075,-5.55 C 0.422,-6.827 0.855,-8.415 0.454,-8.984 C 0.362,-9.116 0.227,-9.184 0.033,-9.2 C -0.095,-9.209 -0.146,-9.173 -0.174,-9.144 C -0.349,-8.972 -0.307,-8.396 -0.269,-7.887 C -0.218,-7.18 -0.174,-6.458 -0.556,-6.093 C -0.726,-5.932 -1.172,-5.873 -1.587,-5.848 C -1.938,-5.821 -2.574,-5.821 -3.743,-5.862 C -4.372,-3.09 -4.412,-1.299 -3.859,-0.54 C -3.647,-0.25 -3.349,-0.099 -2.918,-0.064 C -2.182,-0.006 -0.911,0.03 0,0 M 2.143,-2.316 C 2.527,-4.56 2.257,-9.692 -1.247,-13.869 C -1.592,-12.371 -1.864,-11.045 -1.862,-9.531 C -1.525,-9.682 -1.074,-9.717 -0.845,-9.724 C -0.243,-9.74 0.486,-9.631 0.735,-9.281 C 0.737,-9.276 0.737,-9.27 0.74,-9.266 C 0.754,-9.248 0.771,-9.236 0.784,-9.217 C 1.294,-8.493 0.872,-6.943 0.464,-5.445 C 0.311,-4.882 0.166,-4.35 0.093,-3.928 C -0.16,-2.468 -0.325,-1.029 0.175,-0.394 C 0.331,-0.196 0.548,-0.09 0.837,-0.066 C 1.399,-0.177 1.936,-1.094 2.143,-2.316 M -1.517,-14.492 C -1.118,-16.201 -0.653,-18.201 -0.403,-20.971 C -0.434,-20.944 -0.469,-20.932 -0.508,-20.947 C -0.508,-20.947 -1.707,-21.09 -2.304,-21.776 C -2.553,-21.56 -3.086,-21.151 -3.066,-20.985 C -3.058,-20.889 -2.581,-20.967 -2.514,-20.878 C -2.47,-20.823 -2.467,-20.545 -2.544,-20.537 C -3.051,-20.488 -4.385,-20.785 -4.246,-22.093 L -4.48,-22.063 L -4.547,-22.059 C -4.76,-20.006 -5.117,-17.747 -5.457,-15.763 C -5.431,-15.822 -5.392,-15.863 -5.328,-15.86 C -5.063,-15.852 -4.947,-15.57 -4.985,-15.353 C -4.997,-15.291 -4.847,-15.299 -4.787,-15.349 C -4.698,-15.433 -4.644,-15.728 -4.297,-15.705 C -3.136,-15.635 -3.701,-14.847 -3.581,-14.8 C -3.351,-14.714 -3.476,-15.283 -3.265,-15.283 C -2.969,-15.28 -3.285,-14.607 -3.218,-14.587 C -2.891,-14.487 -3.106,-15.368 -2.789,-15.361 C -2.464,-15.353 -2.806,-14.471 -2.739,-14.46 C -2.417,-14.382 -2.634,-14.962 -2.32,-14.951 C -2.186,-14.944 -2.203,-14.73 -2.233,-14.619 C -2.304,-14.379 -2.381,-14.138 -2.545,-13.946 C -2.459,-13.859 -2.346,-13.824 -2.237,-13.783 C -2.09,-13.729 -1.929,-13.759 -1.749,-13.729 C -1.729,-13.731 -1.712,-13.728 -1.693,-13.724 C -1.636,-13.976 -1.578,-14.23 -1.517,-14.492 M -0.305,-22.305 L -0.396,-22.305 C -0.835,-22.252 -1.506,-22.201 -1.743,-22.066 C -2.038,-21.896 -1.506,-21.642 -1.436,-21.619 C -1.184,-21.531 -0.542,-21.323 -0.374,-21.312 C -0.348,-21.634 -0.325,-21.963 -0.305,-22.305 M -0.305,-22.656 C -0.298,-22.658 -0.292,-22.65 -0.285,-22.646 C -0.244,-23.441 -0.221,-24.291 -0.221,-25.209 C -0.221,-25.347 -0.224,-25.477 -0.224,-25.614 C -0.224,-25.748 -0.221,-25.881 -0.221,-26.018 C -0.221,-27.76 -0.305,-29.261 -0.435,-30.587 C -0.551,-30.63 -0.944,-30.702 -0.958,-30.55 C -0.975,-30.352 -0.713,-30.091 -0.879,-29.983 C -1.269,-29.735 -1.553,-30.235 -1.763,-30.553 C -1.851,-30.472 -2.009,-30.352 -1.992,-30.323 C -1.664,-29.79 -1.56,-28.863 -2.295,-28.766 C -2.983,-28.677 -3.747,-28.251 -4.449,-28.626 C -4.467,-28.628 -4.48,-28.632 -4.493,-28.636 C -4.408,-27.693 -4.354,-26.802 -4.354,-26.018 C -4.354,-25.887 -4.359,-25.749 -4.36,-25.614 C -4.359,-25.477 -4.354,-25.34 -4.354,-25.209 C -4.354,-24.427 -4.407,-23.541 -4.493,-22.601 L -4.435,-22.595 C -4.348,-22.595 -4.087,-22.46 -4.051,-22.819 C -3.976,-23.606 -2.069,-23.858 -2.054,-23.433 C -2.041,-23.143 -2.364,-23.287 -2.51,-23.22 C -2.578,-23.191 -2.367,-22.568 -2.176,-22.336 C -1.796,-22.545 -1.35,-22.622 -0.909,-22.653 C -0.747,-22.661 -0.349,-22.645 -0.305,-22.656 M -2.884,-30.654 C -2.938,-30.51 -2.598,-30.394 -2.407,-30.34 C -2.291,-30.305 -2.041,-30.445 -2.07,-30.542 C -2.179,-30.913 -2.731,-31.057 -2.884,-30.654 M -0.489,-31.11 C -0.751,-33.445 -1.16,-35.206 -1.517,-36.735 C -1.708,-37.559 -1.886,-38.322 -2.02,-39.079 C -2.94,-39.088 -3.929,-38.855 -4.849,-38.999 C -4.869,-39.003 -4.852,-39.203 -4.852,-39.324 C -3.964,-39.277 -2.999,-39.583 -2.094,-39.525 C -2.287,-40.786 -2.346,-42.063 -2.128,-43.603 C -2.05,-44.163 -1.977,-44.626 -1.711,-44.986 C -1.824,-44.991 -1.965,-44.995 -2.173,-44.995 C -2.712,-44.995 -3.614,-44.972 -5.119,-44.906 L -5.226,-44.902 C -6.327,-44.854 -6.508,-43.268 -6.464,-41.949 C -6.406,-40.138 -6.326,-39.831 -6.18,-39.271 C -6.102,-38.968 -6.004,-38.593 -5.882,-37.899 C -5.86,-37.86 -5.838,-37.818 -5.821,-37.785 C -5.705,-37.456 -5.045,-37.19 -4.61,-37.182 C -3.717,-37.159 -2.797,-37.617 -1.918,-37.232 C -1.887,-37.216 -1.909,-37.088 -1.909,-37.008 C -3.048,-37.205 -4.276,-36.362 -5.36,-36.989 C -5.441,-37.033 -5.653,-37.012 -5.71,-36.925 C -5.388,-35.096 -5.006,-32.86 -4.728,-30.714 C -4.593,-30.838 -4.267,-31.085 -4.113,-31.138 C -3.627,-31.305 -3.151,-30.886 -2.647,-31.247 C -2.427,-31.405 -2.088,-31.072 -1.917,-31.116 C -1.556,-31.205 -1.265,-31.874 -0.908,-31.588 C -0.626,-31.359 -1.385,-31.232 -1.307,-31.068 C -1.178,-30.811 -0.629,-30.995 -0.489,-31.11 M 2.143,-48.912 C 1.936,-50.134 1.399,-51.051 0.837,-51.161 C 0.548,-51.138 0.331,-51.031 0.175,-50.832 C -0.325,-50.197 -0.16,-48.758 0.093,-47.299 C 0.166,-46.876 0.311,-46.344 0.464,-45.781 C 0.872,-44.284 1.294,-42.734 0.784,-42.01 C 0.771,-41.992 0.754,-41.978 0.74,-41.962 C 0.737,-41.957 0.737,-41.951 0.735,-41.947 C 0.486,-41.595 -0.243,-41.488 -0.845,-41.503 C -1.074,-41.509 -1.525,-41.545 -1.862,-41.696 C -1.864,-40.183 -1.592,-38.856 -1.247,-37.357 C 2.257,-41.535 2.527,-46.667 2.143,-48.912 M -1.238,-44.912 C -1.559,-44.644 -1.631,-44.255 -1.729,-43.547 C -1.797,-43.061 -1.838,-42.602 -1.854,-42.159 C -1.743,-42.043 -1.37,-41.921 -0.834,-41.907 C -0.734,-41.904 -0.639,-41.906 -0.548,-41.911 C -0.753,-42.24 -0.714,-42.79 -0.67,-43.369 C -0.629,-43.953 -0.581,-44.613 -0.826,-44.835 C -0.914,-44.913 -1.051,-44.937 -1.238,-44.912 M -2.918,-51.163 C -3.349,-51.127 -3.647,-50.977 -3.859,-50.687 C -4.412,-49.928 -4.372,-48.137 -3.743,-45.365 C -2.574,-45.406 -1.938,-45.406 -1.587,-45.38 C -1.172,-45.354 -0.726,-45.295 -0.556,-45.134 C -0.174,-44.769 -0.218,-44.047 -0.269,-43.34 C -0.307,-42.832 -0.349,-42.256 -0.174,-42.082 C -0.146,-42.054 -0.095,-42.018 0.033,-42.028 C 0.227,-42.043 0.362,-42.111 0.454,-42.243 C 0.855,-42.812 0.422,-44.399 0.075,-45.675 C -0.08,-46.248 -0.228,-46.788 -0.305,-47.229 C -0.554,-48.676 -0.768,-50.284 -0.141,-51.082 C -0.099,-51.137 -0.049,-51.181 0,-51.226 C -0.911,-51.256 -2.182,-51.221 -2.918,-51.163 M -8.595,-38.318 C -9.164,-38.131 -9.757,-38.046 -10.342,-38.03 L -9.319,-37.144 C -9.272,-37.102 -9.247,-37.041 -9.25,-36.978 C -9.255,-36.914 -9.287,-36.858 -9.34,-36.822 C -10.132,-36.297 -10.595,-35.711 -10.679,-35.13 C -10.731,-34.783 -10.641,-34.439 -10.418,-34.105 C -10.202,-33.934 -9.939,-33.802 -9.635,-33.716 C -9.361,-33.637 -9.047,-33.597 -8.704,-33.597 C -7.834,-33.597 -6.779,-33.871 -5.702,-34.492 C -5.879,-35.556 -6.056,-36.57 -6.213,-37.457 L -6.276,-37.81 C -6.397,-38.501 -6.494,-38.871 -6.571,-39.169 C -6.603,-39.293 -6.632,-39.407 -6.659,-39.525 C -7.253,-38.897 -7.951,-38.529 -8.595,-38.318 M -13.359,-40.11 C -13.368,-40.12 -13.377,-40.129 -13.385,-40.139 C -13.396,-40.151 -13.414,-40.159 -13.44,-40.159 C -13.486,-40.159 -13.556,-40.137 -13.633,-40.098 C -14.205,-39.804 -15.107,-38.577 -14.782,-37.348 C -14.678,-37.268 -12.036,-35.261 -11.034,-34.499 C -11.094,-34.725 -11.113,-34.955 -11.078,-35.188 C -10.985,-35.827 -10.525,-36.446 -9.77,-36.999 C -10.107,-37.292 -13.359,-40.11 -13.359,-40.11 M -4.25,-30.553 C -4.163,-30.472 -4.088,-30.371 -3.984,-30.316 C -3.727,-30.188 -3.619,-30.429 -3.466,-30.553 C -3.623,-30.662 -3.786,-30.818 -3.984,-30.774 C -4.088,-30.751 -4.163,-30.635 -4.25,-30.553 M -4.663,-30.206 C -4.607,-29.738 -4.556,-29.276 -4.512,-28.826 C -4.191,-29.14 -3.469,-28.729 -3.204,-29.208 C -3.391,-29.286 -3.352,-29.441 -3.32,-29.572 C -3.275,-29.758 -3.034,-29.735 -2.967,-29.673 C -2.78,-29.492 -2.847,-28.956 -2.423,-29.099 C -2.128,-29.2 -1.851,-29.402 -2.063,-29.673 C -2.485,-30.216 -3.204,-30.197 -3.88,-30.006 C -3.943,-29.987 -4.238,-30.006 -4.399,-30.17 C -4.458,-30.227 -4.603,-30.241 -4.663,-30.206 M -3.44,-22.425 C -3.404,-22.331 -3.404,-22.196 -3.476,-22.14 C -3.584,-22.047 -3.88,-22.19 -3.893,-22.028 C -3.932,-21.545 -3.666,-21.336 -3.504,-21.206 C -3.46,-21.171 -2.867,-21.896 -2.522,-22.109 C -2.697,-22.352 -2.772,-22.766 -2.871,-23.078 C -2.871,-23.078 -3.07,-23.128 -3.242,-22.978 C -3.051,-22.787 -2.816,-22.564 -2.816,-22.236 C -2.821,-21.896 -3.464,-21.457 -3.575,-21.61 C -3.745,-21.85 -2.932,-22.02 -3.217,-22.457 C -3.321,-22.611 -3.638,-22.861 -3.686,-22.576 C -3.705,-22.475 -3.484,-22.529 -3.44,-22.425 M -4.025,-15.164 C -4.071,-15.097 -4.087,-14.923 -4.001,-14.889 C -3.961,-14.869 -3.904,-14.839 -3.863,-14.869 C -3.817,-14.908 -3.776,-15.039 -3.791,-15.102 C -3.794,-15.117 -3.904,-15.337 -4.025,-15.164 M -5.317,-15.396 C -5.328,-15.417 -5.488,-15.409 -5.508,-15.465 C -5.524,-15.367 -5.541,-15.269 -5.558,-15.173 C -5.475,-15.158 -5.392,-15.151 -5.34,-15.19 C -5.28,-15.228 -5.28,-15.333 -5.317,-15.396 M -4.523,-15.199 L -4.554,-15.152 C -4.569,-15.097 -4.644,-15.024 -4.581,-14.967 C -4.515,-14.905 -4.398,-14.908 -4.343,-14.958 C -4.271,-15.024 -4.308,-15.19 -4.383,-15.236 C -4.433,-15.267 -4.488,-15.214 -4.523,-15.199 M -8.704,-17.631 C -9.047,-17.631 -9.361,-17.589 -9.635,-17.511 C -9.939,-17.425 -10.202,-17.292 -10.418,-17.122 C -10.641,-16.789 -10.731,-16.445 -10.679,-16.097 C -10.595,-15.515 -10.132,-14.93 -9.34,-14.405 C -9.287,-14.37 -9.255,-14.312 -9.25,-14.249 C -9.247,-14.185 -9.272,-14.125 -9.319,-14.084 L -10.342,-13.198 C -9.757,-13.181 -9.164,-13.095 -8.595,-12.909 C -7.951,-12.699 -7.253,-12.329 -6.659,-11.701 C -6.632,-11.819 -6.603,-11.933 -6.571,-12.059 C -6.494,-12.356 -6.397,-12.726 -6.276,-13.417 L -6.213,-13.769 C -6.143,-14.169 -6.067,-14.598 -5.991,-15.043 C -5.993,-15.111 -5.983,-15.196 -5.944,-15.313 L -5.943,-15.313 C -5.865,-15.772 -5.782,-16.247 -5.702,-16.735 C -6.779,-17.356 -7.834,-17.631 -8.704,-17.631 M -14.782,-13.879 C -15.107,-12.651 -14.205,-11.422 -13.633,-11.129 C -13.556,-11.09 -13.486,-11.068 -13.44,-11.068 C -13.414,-11.068 -13.396,-11.075 -13.385,-11.088 C -13.377,-11.098 -13.368,-11.108 -13.359,-11.116 C -13.359,-11.116 -10.107,-13.935 -9.77,-14.227 C -10.525,-14.78 -10.985,-15.4 -11.078,-16.039 C -11.113,-16.273 -11.094,-16.501 -11.034,-16.728 C -12.036,-15.966 -14.678,-13.957 -14.782,-13.879 M -5.545,-14.807 C -5.544,-14.812 -5.577,-14.817 -5.619,-14.819 C -5.636,-14.725 -5.653,-14.631 -5.669,-14.538 C -5.628,-14.545 -5.587,-14.55 -5.562,-14.587 C -5.511,-14.661 -5.558,-14.766 -5.545,-14.807 M -3.698,-14.282 C -3.794,-14.254 -3.658,-13.829 -3.958,-13.795 C -4.02,-13.788 -3.904,-13.709 -3.849,-13.577 C -3.794,-13.451 -3.985,-13.078 -3.95,-12.851 C -3.945,-12.834 -2.218,-12.515 -1.96,-12.58 L -1.84,-13.302 C -2.708,-13.326 -3.587,-13.724 -3.591,-13.93 C -3.595,-14.12 -3.506,-14.332 -3.698,-14.282 M -4.507,-14.565 C -4.561,-14.607 -4.674,-14.591 -4.682,-14.567 C -4.69,-14.545 -4.767,-14.41 -4.725,-14.348 C -4.693,-14.309 -4.631,-14.269 -4.581,-14.289 C -4.491,-14.328 -4.422,-14.494 -4.507,-14.565 M -4.192,-14.254 C -4.179,-14.165 -4.163,-14.1 -4.071,-14.1 C -3.961,-14.096 -3.943,-14.263 -3.93,-14.289 C -3.915,-14.328 -3.919,-14.433 -3.961,-14.448 C -4.109,-14.502 -4.216,-14.41 -4.192,-14.254 M -0.826,-6.393 C -0.581,-6.614 -0.629,-7.275 -0.67,-7.858 C -0.714,-8.437 -0.753,-8.987 -0.548,-9.316 C -0.639,-9.32 -0.734,-9.322 -0.834,-9.32 C -1.37,-9.306 -1.743,-9.184 -1.854,-9.067 C -1.838,-8.626 -1.797,-8.166 -1.729,-7.679 C -1.631,-6.973 -1.559,-6.583 -1.238,-6.315 C -1.051,-6.29 -0.914,-6.315 -0.826,-6.393 M -6.464,-9.279 C -6.508,-7.959 -6.327,-6.373 -5.226,-6.326 L -5.119,-6.321 C -3.614,-6.254 -2.712,-6.232 -2.173,-6.232 C -1.965,-6.232 -1.824,-6.236 -1.711,-6.241 C -1.977,-6.601 -2.05,-7.064 -2.128,-7.624 C -2.374,-9.369 -2.267,-10.775 -2.009,-12.208 L -2.151,-12.231 C -2.264,-12.181 -3.964,-12.515 -4.04,-12.464 C -4.223,-12.339 -4.028,-11.756 -4.386,-11.765 C -4.701,-11.77 -4.557,-12.271 -4.581,-12.51 C -4.588,-12.599 -4.605,-12.596 -4.682,-12.611 C -4.818,-12.638 -5.468,-12.773 -5.573,-12.886 C -5.672,-12.985 -5.581,-13.141 -5.457,-13.171 C -5.254,-13.23 -4.46,-12.905 -4.456,-13.032 C -4.441,-13.357 -4.16,-13.69 -4.235,-13.713 C -4.394,-13.771 -4.639,-13.774 -4.798,-13.891 C -5.018,-14.046 -4.866,-14.587 -4.966,-14.595 C -5.206,-14.607 -5.185,-14.44 -5.239,-14.343 C -5.273,-14.277 -5.32,-14.208 -5.402,-14.197 C -5.502,-14.179 -5.64,-14.174 -5.722,-14.233 C -5.754,-14.051 -5.786,-13.872 -5.816,-13.699 L -5.879,-13.348 C -6.003,-12.64 -6.101,-12.261 -6.18,-11.956 C -6.326,-11.397 -6.406,-11.088 -6.464,-9.279 M -2.951,0.337 C -3.498,0.294 -3.903,0.084 -4.186,-0.302 C -4.821,-1.176 -4.81,-2.955 -4.153,-5.877 C -4.451,-5.888 -4.777,-5.903 -5.137,-5.918 L -5.245,-5.922 C -6.033,-5.957 -6.955,-6.57 -6.866,-9.292 C -6.837,-10.246 -6.799,-10.794 -6.749,-11.183 C -7.33,-11.906 -8.059,-12.31 -8.721,-12.525 C -9.396,-12.747 -10.118,-12.82 -10.808,-12.794 L -13.087,-10.818 C -13.176,-10.716 -13.397,-10.555 -13.816,-10.77 C -14.517,-11.129 -15.597,-12.574 -15.16,-14.048 C -15.148,-14.089 -15.124,-14.126 -15.09,-14.153 L -10.556,-17.597 C -10.505,-17.636 -10.442,-17.643 -10.384,-17.628 C -10.192,-17.74 -9.98,-17.832 -9.746,-17.899 C -9.405,-17.996 -9.044,-18.043 -8.667,-18.043 C -7.706,-18.043 -6.652,-17.733 -5.63,-17.165 C -5.178,-19.932 -4.757,-22.998 -4.757,-25.209 C -4.757,-25.34 -4.761,-25.477 -4.764,-25.614 C -4.761,-25.749 -4.757,-25.887 -4.757,-26.018 C -4.757,-28.229 -5.178,-31.295 -5.63,-34.062 C -6.652,-33.495 -7.706,-33.184 -8.667,-33.184 C -9.044,-33.184 -9.405,-33.231 -9.746,-33.328 C -9.98,-33.395 -10.192,-33.488 -10.384,-33.599 C -10.442,-33.583 -10.505,-33.592 -10.556,-33.629 L -15.09,-37.075 C -15.124,-37.101 -15.148,-37.137 -15.16,-37.179 C -15.597,-38.655 -14.517,-40.098 -13.816,-40.457 C -13.397,-40.672 -13.176,-40.511 -13.087,-40.408 L -10.808,-38.433 C -10.118,-38.407 -9.396,-38.48 -8.721,-38.701 C -8.059,-38.918 -7.33,-39.322 -6.749,-40.045 C -6.799,-40.432 -6.837,-40.98 -6.866,-41.935 C -6.955,-44.657 -6.033,-45.27 -5.245,-45.304 L -5.137,-45.31 C -4.777,-45.326 -4.451,-45.339 -4.153,-45.35 C -4.81,-48.272 -4.821,-50.051 -4.186,-50.924 C -3.903,-51.311 -3.498,-51.52 -2.951,-51.565 C -1.937,-51.644 0.106,-51.687 0.879,-51.565 C 1.804,-51.418 2.352,-50.08 2.541,-48.98 C 2.943,-46.629 2.65,-41.2 -1.134,-36.87 C -1.13,-36.854 -1.127,-36.842 -1.123,-36.826 C -0.542,-34.329 0.182,-31.221 0.182,-26.018 C 0.182,-25.881 0.179,-25.748 0.178,-25.614 C 0.179,-25.477 0.182,-25.347 0.182,-25.209 C 0.182,-20.007 -0.542,-16.898 -1.123,-14.401 C -1.127,-14.386 -1.13,-14.372 -1.134,-14.357 C 2.65,-10.027 2.943,-4.599 2.541,-2.247 C 2.352,-1.146 1.804,0.191 0.879,0.337 C 0.106,0.46 -1.937,0.419 -2.951,0.337 M -5.251,-38.114 C -5.254,-38.094 -5.418,-38.079 -5.453,-38.121 C -5.951,-38.701 -5.694,-39.406 -5.69,-40.059 C -5.686,-40.23 -5.48,-40.171 -5.347,-40.179 C -5.347,-40.098 -5.34,-40.016 -5.347,-39.935 C -5.429,-39.305 -5.114,-38.737 -5.251,-38.114 M -4.732,-38.593 C -4.389,-38.508 -2.661,-38.609 -2.163,-38.346 C -2.058,-38.284 -2.186,-38.137 -2.279,-38.121 C -3.113,-38.007 -3.896,-38.106 -4.725,-38.268 C -4.748,-38.272 -4.732,-38.474 -4.732,-38.593 M -4.74,-40.016 C -4.503,-40.116 -2.974,-40.392 -2.646,-40.423 C -2.646,-40.341 -2.627,-40.214 -2.653,-40.203 C -3.355,-39.904 -4.095,-39.754 -4.852,-39.692 C -4.852,-39.816 -4.885,-39.958 -4.74,-40.016" style="fill:#69246b;fill-opacity:1;fill-rule:nonzero;stroke:none" id="path2446"/>
    </g>
  </g>
</svg>