<?xml version="1.0" encoding="UTF-8" standalone="no"?>
<svg width="103px" height="85px" viewBox="0 0 103 85" version="1.1" xmlns="http://www.w3.org/2000/svg" xmlns:xlink="http://www.w3.org/1999/xlink" xmlns:sketch="http://www.bohemiancoding.com/sketch/ns">
    <!-- Generator: Sketch 3.0.4 (8053) - http://www.bohemiancoding.com/sketch -->
    <title>logo</title>
    <desc>Created with Sketch.</desc>
    <defs></defs>
    <g id="Assets" stroke="none" stroke-width="1" fill="none" fill-rule="evenodd" sketch:type="MSPage">
        <g id="logo" sketch:type="MSArtboardGroup" fill="#000000">
            <g sketch:type="MSLayerGroup">
                <path d="M0,0.00400943396 L49,0.00400943396 L49,85.0040094 L0,85.0040094 L0,0.00400943396 Z M18,23 L16,23 L15,26 L17,26.0000001 L18,23 Z M30,23 L32,23 L33,26 L31,26.0000001 L30,23 Z M14,18 L14,21 L20,21 L20,26 L28,26 L28,21 L34,21 L34,18 L14,18 Z M26,28 L28,28 L28,85 L26,85 L26,28 Z M23,28 L25,28 L25,85 L23,85 L23,28 Z M20,28 L22,28 L22,85 L20,85 L20,28 Z" id="Fill-1" sketch:type="MSShapeGroup"></path>
                <path d="M101,0 L103,0 L103,85 L101,85 L101,0 Z" id="Fill-3" sketch:type="MSShapeGroup"></path>
                <path d="M62.909614,15.1815566 L62.909614,5 L71.3318653,13.8996069 L71.3318653,5.13150943 L71.9725466,5.13150943 L71.9725466,15.5162107 L63.5518964,6.54363208 L63.5518964,15.1815566 L62.909614,15.1815566 L62.909614,15.1815566 Z M91.5743005,15.1815566 L91.5743005,5.13150943 L92.8247098,5.13150943 C93.6359016,5.13150943 94.4356192,5.14861635 95.113658,5.6433805 C95.8322565,6.14616352 96.1209767,6.94350629 96.1209767,7.7988522 C96.1209767,9.52130503 94.9418135,10.423695 93.3146269,10.423695 L93.251386,10.423695 L96.5377798,15.1815566 L95.8079741,15.1815566 L92.5359896,10.423695 L92.2149819,10.423695 L92.2149819,15.1815566 L91.5743005,15.1815566 L91.5743005,15.1815566 Z M84.6994508,15.1815566 L84.6994508,5.13150943 L89.4865492,5.13150943 L89.4865492,5.73105346 L85.343601,5.73105346 L85.343601,9.38551887 L89.3795466,9.38551887 L89.3795466,9.98372642 L85.343601,9.98372642 L85.343601,14.578805 L89.4865492,14.578805 L89.4865492,15.1815566 L84.6994508,15.1815566 L84.6994508,15.1815566 Z M79.7912073,13.715173 L79.8200259,13.715173 L82.7838109,5.13150943 L83.4228912,5.13150943 L79.7813342,15.5162107 L76.1739326,5.13150943 L76.813013,5.13150943 L79.7912073,13.715173 L79.7912073,13.715173 Z M74.2580259,5.13150943 L74.8971062,5.13150943 L74.8971062,15.1815566 L74.2580259,15.1815566 L74.2580259,5.13150943 Z M57.3147927,14.7127201 C58.0838238,14.7127201 59.0700622,14.3812736 59.5599793,13.7402987 C60.0821839,13.0739308 60.0821839,12.1162107 60.0821839,11.2084748 L60.0821839,5.13150943 L60.7180622,5.13150943 L60.7180622,11.3931761 C60.7180622,12.4193239 60.7180622,13.3000629 60.0416244,14.1431132 C59.3587824,14.9150629 58.3253135,15.3125314 57.3147927,15.3125314 C56.2994689,15.3125314 55.2662668,14.9150629 54.583158,14.1431132 C53.906987,13.3000629 53.906987,12.4193239 53.906987,11.3931761 L53.906987,5.13150943 L54.5425984,5.13150943 L54.5425984,11.2084748 C54.5425984,12.1162107 54.5425984,13.0739308 55.0650699,13.7402987 C55.5565881,14.3812736 56.5412254,14.7127201 57.3147927,14.7127201 L57.3147927,14.7127201 Z M93.2759352,30.700739 C94.5994585,30.700739 95.7543394,29.6601572 95.7543394,28.3303616 C95.7543394,27.1951572 94.5994585,26.7183019 93.734899,26.2925 L91.9246606,25.3291667 C91.2594301,24.9204717 90.8847876,24.3318868 90.8847876,23.5366824 C90.8847876,22.0433019 91.9457409,20.9864151 93.455785,20.9864151 C94.4631036,20.9864151 95.4253264,21.5349057 95.9021684,22.401478 L95.4461399,22.7754245 C94.9951813,22.0555975 94.3545,21.5862264 93.4117565,21.5862264 C92.3334585,21.5862264 91.5206658,22.4544025 91.5206658,23.5043396 C91.5206658,24.557217 92.5231813,24.9974528 93.3325052,25.3826258 L95.244943,26.3868553 C96.0043679,26.8621069 96.3899508,27.4795597 96.3899508,28.382217 C96.3899508,30.046934 94.8783057,31.2989465 93.251386,31.2989465 C91.8563497,31.2989465 90.7663109,30.4326415 90.2974741,29.1432075 L90.8557021,28.8892767 C91.2821114,29.9576572 92.0671528,30.700739 93.2759352,30.700739 L93.2759352,30.700739 Z M56.4777176,30.700739 C57.7937694,30.700739 58.9483834,29.6601572 58.9483834,28.3303616 C58.9483834,27.1951572 57.7937694,26.7183019 56.928943,26.2925 L55.1184378,25.3291667 C54.4534741,24.9204717 54.0820337,24.3318868 54.0820337,23.5366824 C54.0820337,22.0433019 55.1443212,20.9864151 56.649829,20.9864151 C57.6587487,20.9864151 58.6143005,21.5349057 59.0978135,22.401478 L58.6401839,22.7754245 C58.1908264,22.0555975 57.555215,21.5862264 56.6076684,21.5862264 C55.5339067,21.5862264 54.722715,22.4544025 54.722715,23.5043396 C54.722715,24.557217 55.7169585,24.9974528 56.5313523,25.3826258 L58.444057,26.3868553 C59.1981451,26.8621069 59.5858627,27.4795597 59.5858627,28.382217 C59.5858627,30.046934 58.0726166,31.2989465 56.4472979,31.2989465 C55.0519948,31.2989465 53.9603549,30.4326415 53.4995233,29.1432075 L54.0577513,28.8892767 C54.4796244,29.9576572 55.2662668,30.700739 56.4777176,30.700739 L56.4777176,30.700739 Z M82.9444482,21.7233491 L82.9444482,21.1230031 L88.7679508,21.1230031 L88.7679508,21.7233491 L86.1758731,21.7233491 L86.1758731,31.1698428 L85.5365259,31.1698428 L85.5365259,21.7233491 L82.9444482,21.7233491 L82.9444482,21.7233491 Z M80.2696503,21.1230031 L80.9089974,21.1230031 L80.9089974,31.1698428 L80.2696503,31.1698428 L80.2696503,21.1230031 Z M72.6473834,31.1698428 L72.6473834,21.1230031 L77.4339482,21.1230031 L77.4339482,21.7233491 L73.2848627,21.7233491 L73.2848627,25.371934 L77.3285466,25.371934 L77.3285466,25.9722799 L73.2848627,25.9722799 L73.2848627,30.5702987 L77.4339482,30.5702987 L77.4339482,31.1698428 L72.6473834,31.1698428 L72.6473834,31.1698428 Z M64.7862953,21.7233491 L64.7862953,21.1230031 L70.613,21.1230031 L70.613,21.7233491 L68.0177202,21.7233491 L68.0177202,31.1698428 L67.381842,31.1698428 L67.381842,21.7233491 L64.7862953,21.7233491 L64.7862953,21.7233491 Z M62.1146995,21.1230031 L62.7521788,21.1230031 L62.7521788,31.1698428 L62.1146995,31.1698428 L62.1146995,21.1230031 Z M91.7461451,47.2912421 C88.9285881,47.2912421 86.5438446,44.9564151 86.5438446,42.1353774 C86.5438446,39.3079245 88.915513,36.9803145 91.7461451,36.9803145 C94.5703731,36.9803145 96.9465777,39.3079245 96.9465777,42.1353774 C96.9465777,44.9564151 94.5703731,47.2912421 91.7461451,47.2912421 L91.7461451,47.2912421 Z M82.7189689,37.1104874 L83.3548472,37.1104874 L83.3548472,47.1549214 L82.7189689,47.1549214 L82.7189689,37.1104874 Z M76.7302927,47.1549214 L76.7302927,37.1104874 L77.3707073,37.1104874 L77.3707073,46.5551101 L79.9272953,46.5551101 L79.9272953,47.1549214 L76.7302927,47.1549214 L76.7302927,47.1549214 Z M67.5862409,47.1549214 L67.5862409,37.1104874 L69.5878031,37.1104874 C70.3504301,37.1104874 71.0639585,37.1631447 71.6643472,37.6985377 C72.277544,38.232327 72.5014223,38.9748742 72.5014223,39.7775629 C72.5014223,40.697327 72.1475933,41.3749214 71.3430725,41.8266509 C72.5841425,42.083522 73.4193497,43.0810692 73.4193497,44.3563365 C73.4193497,45.1705189 73.1130181,45.9018396 72.4915492,46.4380346 C71.782557,47.0359748 71.0362073,47.1549214 70.1457642,47.1549214 L67.5862409,47.1549214 L67.5862409,47.1549214 Z M63.1481684,37.1104874 L63.7891166,37.1104874 L63.7891166,47.1549214 L63.1481684,47.1549214 L63.1481684,37.1104874 Z M54.0041166,47.1549214 L54.0041166,37.1104874 L56.0091477,37.1104874 C56.7683057,37.1104874 57.4837021,37.1631447 58.0838238,37.6985377 C58.6951528,38.232327 58.9190311,38.9748742 58.9190311,39.7775629 C58.9190311,40.697327 58.5625337,41.3749214 57.7641503,41.8266509 C59.0017513,42.083522 59.8374922,43.0810692 59.8374922,44.3563365 C59.8374922,45.1705189 59.5372979,45.9018396 58.9078238,46.4380346 C58.2006995,47.0359748 57.4610207,47.1549214 56.5639067,47.1549214 L54.0041166,47.1549214 L54.0041166,47.1549214 Z M91.2482228,57.7879403 L96.0043679,53.0969025 L96.8593212,53.0969025 L91.9457409,57.9373585 L97.1573808,63.1418711 L96.3253756,63.1418711 L91.5059896,58.3468553 L91.2482228,58.6149528 L91.2482228,63.1418711 L90.6088756,63.1418711 L90.6088756,53.0969025 L91.2482228,53.0969025 L91.2482228,57.7879403 L91.2482228,57.7879403 Z M81.9600777,63.1418711 L81.9600777,53.0969025 L86.7485104,53.0969025 L86.7485104,53.6964465 L82.597557,53.6964465 L82.597557,57.3490409 L86.644443,57.3490409 L86.644443,57.9488522 L82.597557,57.9488522 L82.597557,62.5474057 L86.7485104,62.5474057 L86.7485104,63.1418711 L81.9600777,63.1418711 L81.9600777,63.1418711 Z M73.3139482,63.1418711 L73.3139482,53.0969025 L78.1058497,53.0969025 L78.1058497,53.6964465 L73.9527617,53.6964465 L73.9527617,57.3490409 L77.9953782,57.3490409 L77.9953782,57.9488522 L73.9527617,57.9488522 L73.9527617,62.5474057 L78.1058497,62.5474057 L78.1058497,63.1418711 L73.3139482,63.1418711 L73.3139482,63.1418711 Z M62.5269663,57.3624057 L68.6146399,57.3624057 L68.6146399,53.0969025 L69.2587902,53.0969025 L69.2587902,63.1418711 L68.6146399,63.1418711 L68.6146399,57.9600786 L62.5269663,57.9600786 L62.5269663,63.1418711 L61.8910881,63.1418711 L61.8910881,53.0969025 L62.5269663,53.0969025 L62.5269663,57.3624057 L62.5269663,57.3624057 Z M53,53.6964465 L53,53.0969025 L58.8315078,53.0969025 L58.8315078,53.6964465 L56.2346269,53.6964465 L56.2346269,63.1418711 L55.5990155,63.1418711 L55.5990155,53.6964465 L53,53.6964465 L53,53.6964465 Z M77.8606244,79.1357704 L77.8606244,68.6601887 L85.6856891,76.8709748 L85.6856891,69.0889308 L86.8018782,69.0889308 L86.8018782,79.5845597 L78.9752124,71.3916824 L78.9752124,79.1357704 L77.8606244,79.1357704 L77.8606244,79.1357704 Z M58.512101,79.3065723 C55.6878731,79.3065723 53.3503601,76.9602516 53.3503601,74.1376101 C53.3503601,71.2566981 55.6878731,68.9170597 58.576943,68.9170597 C60.3319456,68.9170597 61.753399,69.7002358 62.8154197,71.082956 L62.0125,71.8450157 C61.1676865,70.6571541 60.0416244,69.9552358 58.5625337,69.9552358 C56.2751865,69.9552358 54.4649482,71.8869811 54.4649482,74.1507075 C54.4649482,75.2198899 54.8932254,76.2289308 55.6342383,76.9893868 C56.3709819,77.7207075 57.4316684,78.2665252 58.4795466,78.2665252 C60.224943,78.2665252 62.0613316,76.9893868 62.0613316,75.1241981 L59.0799352,75.1241981 L59.0799352,74.0841509 L63.2583731,74.0841509 C63.2842565,75.4441509 63.1350933,76.5619811 62.2217021,77.6247484 C61.3037746,78.6939308 59.9023342,79.3065723 58.512101,79.3065723 L58.512101,79.3065723 Z M90.9381554,70.128978 L90.9381554,69.0889308 L96.9222953,69.0889308 L96.9222953,70.128978 L94.4729767,70.128978 L94.4729767,79.1357704 L93.3583886,79.1357704 L93.3583886,70.128978 L90.9381554,70.128978 L90.9381554,70.128978 Z M67.7679585,79.1357704 L67.7679585,69.0889308 L72.9699922,69.0889308 L72.9699922,70.128978 L68.8838808,70.128978 L68.8838808,73.1109277 L72.8515155,73.1109277 L72.8515155,74.1507075 L68.8838808,74.1507075 L68.8838808,78.0941195 L72.9699922,78.0941195 L72.9699922,79.1357704 L67.7679585,79.1357704 L67.7679585,79.1357704 Z M92.910899,5.73105346 L92.2149819,5.73105346 L92.2149819,9.82441824 L93.0261736,9.82441824 C93.6471088,9.82441824 94.2768497,9.79555031 94.7811762,9.35558176 C95.2580181,8.96853774 95.4899016,8.36899371 95.4899016,7.7686478 C95.4899016,7.0277044 95.1395415,6.27794025 94.420943,5.95691824 C93.9766554,5.74735849 93.4264326,5.73105346 92.910899,5.73105346 L92.910899,5.73105346 Z M91.7461451,37.5798585 C89.2514637,37.5798585 87.1831917,39.6591509 87.1831917,42.1353774 C87.1831917,44.6132075 89.2514637,46.6914308 91.7461451,46.6914308 C94.2376244,46.6914308 96.3109663,44.6019811 96.3109663,42.1353774 C96.3109663,39.6591509 94.2376244,37.5798585 91.7461451,37.5798585 L91.7461451,37.5798585 Z M69.3185622,37.7089623 L68.2173161,37.7089623 L68.2173161,41.6673428 L69.6526451,41.6673428 C70.1879249,41.6673428 70.6455544,41.6414151 71.1175933,41.2901887 C71.6902306,40.8825629 71.8620751,40.3773742 71.8620751,39.6824057 C71.8620751,39.030739 71.6107124,38.3884277 71.0362073,38.0318553 C70.5321477,37.7089623 69.9090777,37.7089623 69.3185622,37.7089623 L69.3185622,37.7089623 Z M55.7412409,37.7089623 L54.6367927,37.7089623 L54.6367927,41.6673428 L56.0707876,41.6673428 C56.6076684,41.6673428 57.0634301,41.6414151 57.5405389,41.2901887 C58.1081062,40.8825629 58.2866218,40.3773742 58.2866218,39.6824057 C58.2866218,39.030739 58.0285881,38.3884277 57.4610207,38.0318553 C56.9500233,37.7089623 56.3285544,37.7089623 55.7412409,37.7089623 L55.7412409,37.7089623 Z M69.6299637,42.265283 L68.2173161,42.265283 L68.2173161,46.5551101 L70.0160803,46.5551101 C70.6359482,46.5551101 71.2603523,46.5337264 71.7969663,46.1683333 C72.4120311,45.7588365 72.7802694,45.1282862 72.7802694,44.3873428 C72.7802694,43.6498742 72.4232383,42.921761 71.7406632,42.5871069 C71.1322694,42.2783805 70.2951943,42.265283 69.6299637,42.265283 L69.6299637,42.265283 Z M56.0481062,42.265283 L54.6367927,42.265283 L54.6367927,46.5551101 L56.4326218,46.5551101 C57.0570259,46.5551101 57.6784948,46.5337264 58.2185777,46.1683333 C58.8315078,45.7588365 59.1981451,45.1282862 59.1981451,44.3873428 C59.1981451,43.6498742 58.8413808,42.921761 58.1617409,42.5871069 C57.555215,42.2783805 56.7130699,42.265283 56.0481062,42.265283 L56.0481062,42.265283 Z" id="Fill-10" sketch:type="MSShapeGroup"></path>
            </g>
        </g>
    </g>
</svg>