<?xml version="1.0" encoding="UTF-8" standalone="no"?>
<svg xmlns:rdf="http://www.w3.org/1999/02/22-rdf-syntax-ns#" xmlns="http://www.w3.org/2000/svg" xml:space="preserve" version="1.1" xmlns:cc="http://creativecommons.org/ns#" xmlns:dc="http://purl.org/dc/elements/1.1/" viewBox="0 0 532 80"><style>.s0{-inkscape-font-specification:IU-Bold Bold;fill:#000;font-family:IU-Bold;font-size:43.83;font-weight:bold;line-height:125;text-align:start;text-anchor:start;writing-mode:lr-tb;}</style><g style=""><path d="m42.7 10.6v6.03h4.17v33.6h-8.82v-44.2h4.69v-6.03h-22v6.03h4.69v44.2h-8.92v-33.6h4.17v-6.03h-20.7v6.03h4.67v38.9l7.6 7.76h13.2v8.96h-4.67v7.76h22v-7.76h-4.67v-8.96h13.1l7.6-7.76v-38.9h4.68v-6.03h-20.7z" style="" fill="#900"/><g fill="#191919"><path d="m85.8 54h3.51v-26.2h-3.51v-1.49h13.2v1.49h-3.46v26.2h3.46v1.49h-13.2v-1.49" class="s0"/><path d="m127 55.8h-2.59l-17.4-21.8v16.9c0 1.4 0.13 2.26 0.39 2.59 0.26 0.32 0.89 0.48 1.88 0.48h1.75v1.49h-8.94v-1.49h1.14c0.96 0 1.61-0.16 1.93-0.48 0.23-0.32 0.35-1.18 0.35-2.59v-24.7h3.16l16.8 21.1v-16.5c0-1.4-0.13-2.28-0.39-2.63-0.26-0.32-0.89-0.48-1.88-0.48h-1.14v-1.49h8.33v1.49h-1.14c-0.99 0-1.62 0.16-1.88 0.48-0.26 0.35-0.39 1.23-0.39 2.63v24.9" class="s0"/><path d="m133 54h3.51v-26.2h-3.51v-1.49h13.7c3.01 0 5.2 0.28 6.57 0.83 1.49 0.61 2.98 1.75 4.47 3.42 2.37 2.72 3.55 6.19 3.55 10.4 0 3.07-0.64 5.8-1.93 8.2-1.49 2.69-3.62 4.56-6.4 5.61-1.11 0.38-2.22 0.61-3.33 0.7-0.5 0.03-1.46 0.04-2.89 0.04h-13.7v-1.49m9.69-26.2v26.2h4.03c1.49 0 2.56-0.13 3.2-0.39 1.55-0.61 2.64-1.99 3.29-4.12 0.5-1.81 0.75-4.69 0.75-8.63 0-3.45-0.2-6.12-0.61-8.02-0.44-2.02-1.33-3.45-2.67-4.3-0.58-0.38-1.24-0.61-1.97-0.7-0.7-0.06-1.36-0.09-1.97-0.09h-4.03" class="s0"/><path d="m164 54h3.51v-26.2h-3.51v-1.49h13.2v1.49h-3.46v26.2h3.46v1.49h-13.2v-1.49" class="s0"/><path d="m198 54-2.37-6.14h-9.16l-1.53 4.43c-0.2 0.58-0.31 0.96-0.31 1.14 0 0.38 0.5 0.57 1.49 0.57h2.02v1.49h-9.07v-1.49h1.31c1.05 0 1.77-0.16 2.15-0.48 0.26-0.2 0.57-0.8 0.92-1.8l9.38-25.4h1.4l9.99 27.7h3.07v1.49h-13.1v-1.49h3.77m-11-7.63h8.11l-4.08-11.3-4.03 11.3" class="s0"/><path d="m233 55.8h-2.59l-17.4-21.8v16.9c0 1.4 0.13 2.26 0.39 2.59 0.26 0.32 0.89 0.48 1.88 0.48h1.75v1.49h-8.94v-1.49h1.14c0.96 0 1.61-0.16 1.93-0.48 0.23-0.32 0.35-1.18 0.35-2.59v-24.7h3.16l16.8 21.1v-16.5c0-1.4-0.13-2.28-0.39-2.63-0.26-0.32-0.89-0.48-1.88-0.48h-1.14v-1.49h8.33v1.49h-1.14c-0.99 0-1.62 0.16-1.88 0.48-0.26 0.35-0.39 1.23-0.39 2.63v24.9" class="s0"/><path d="m255 54-2.37-6.14h-9.16l-1.53 4.43c-0.2 0.58-0.31 0.96-0.31 1.14 0 0.38 0.5 0.57 1.49 0.57h2.02v1.49h-9.07v-1.49h1.31c1.05 0 1.77-0.16 2.15-0.48 0.26-0.2 0.57-0.8 0.92-1.8l9.38-25.4h1.4l9.99 27.7h3.07v1.49h-13.1v-1.49h3.77m-11-7.63h8.11l-4.08-11.3-4.03 11.3" class="s0"/><path d="m280 46.2v-18.4h-3.51v-1.49h13.6v1.49h-3.9v18.4c0 1.84 0.06 3.1 0.18 3.77 0.23 1.49 0.92 2.62 2.06 3.37 0.99 0.7 2.29 1.05 3.9 1.05 2.78 0 4.73-0.8 5.87-2.41 0.5-0.73 0.8-1.5 0.92-2.32 0.15-0.79 0.22-1.94 0.22-3.46v-15.2c0-1.43-0.13-2.32-0.39-2.67-0.26-0.32-0.91-0.48-1.93-0.48h-1.14v-1.49h8.33v1.49h-1.14c-0.96 0-1.58 0.16-1.84 0.48-0.26 0.35-0.39 1.24-0.39 2.67v15.2c0 2.34-0.13 3.92-0.39 4.73-0.61 1.84-1.81 3.21-3.59 4.12-1.69 0.85-3.68 1.27-5.96 1.27-2.16 0-4.19-0.35-6.09-1.05-2.1-0.82-3.51-2.03-4.21-3.64-0.32-0.7-0.5-1.58-0.53-2.63-0.03-0.44-0.04-1.37-0.04-2.8" class="s0"/><path d="m330 55.8h-2.59l-17.4-21.8v16.9c0 1.4 0.13 2.26 0.39 2.59 0.26 0.32 0.89 0.48 1.88 0.48h1.75v1.49h-8.94v-1.49h1.14c0.96 0 1.61-0.16 1.93-0.48 0.23-0.32 0.35-1.18 0.35-2.59v-24.7h3.16l16.8 21.1v-16.5c0-1.4-0.13-2.28-0.39-2.63-0.26-0.32-0.89-0.48-1.88-0.48h-1.14v-1.49h8.33v1.49h-1.14c-0.99 0-1.62 0.16-1.88 0.48-0.26 0.35-0.39 1.23-0.39 2.63v24.9" class="s0"/><path d="m335 54h3.51v-26.2h-3.51v-1.49h13.2v1.49h-3.46v26.2h3.46v1.49h-13.2v-1.49" class="s0"/><path d="m364 27.8h-3.51l7.41 19.1 5.74-17.3c0.15-0.5 0.22-0.79 0.22-0.88 0-0.35-0.13-0.58-0.39-0.7-0.29-0.15-0.98-0.22-2.06-0.22h-0.96v-1.49h8.46v1.49h-0.7c-0.88 0-1.56 0.2-2.06 0.61-0.35 0.29-0.72 0.98-1.1 2.06l-8.59 25.6h-1.27l-11.1-28.3h-2.72v-1.49h12.7v1.49" class="s0"/><path d="m380 54h3.51v-26.2h-3.51v-1.49h23l0.66 7.45h-1.45c-0.53-2.25-1.29-3.81-2.28-4.69-0.67-0.58-1.52-0.96-2.54-1.14-0.58-0.09-1.48-0.13-2.67-0.13h-5.08v12.1h1.23c1.49 0 2.6-0.23 3.33-0.7 0.79-0.53 1.27-1.31 1.45-2.37 0.06-0.38 0.12-1.01 0.18-1.88h1.45v11.9h-1.45c-0.09-1.69-0.35-2.94-0.79-3.73-0.64-1.17-2.07-1.75-4.3-1.75h-1.1v12.6h4.03c2.25 0 3.94-0.23 5.08-0.7 2.07-0.82 3.54-3.18 4.38-7.1h1.45l-0.61 9.29h-24v-1.49" class="s0"/><path d="m407 54h3.51v-26.2h-3.51v-1.49h12.6c2.75 0 4.82 0.19 6.22 0.57 1.87 0.47 3.33 1.48 4.38 3.02 0.64 0.94 0.96 2.03 0.96 3.29 0 2.4-1.15 4.25-3.46 5.57-1.08 0.64-2.25 1.02-3.51 1.14-0.85 0.09-1.5 0.15-1.97 0.18 1.43 0.18 2.99 0.63 4.69 1.36 1.72 0.73 2.92 1.9 3.59 3.51 0.35 0.82 0.53 1.69 0.53 2.63l-0.09 2.37v0.31c0 1.37 0.25 2.38 0.75 3.02 0.44 0.53 0.98 0.79 1.62 0.79h1.14v1.49h-4.12c-1.64 0-2.82-0.32-3.55-0.96-0.58-0.53-1.01-1.04-1.27-1.53-0.35-0.56-0.53-1.39-0.53-2.5v-3.86c0-1.99-0.5-3.42-1.49-4.3-0.79-0.67-1.59-1.14-2.41-1.4-0.61-0.2-1.68-0.31-3.2-0.31h-1.23v13.4h3.46v1.49h-13.2v-1.49m9.69-26.2v11.4h2.94c1.46 0 2.5-0.15 3.11-0.44 1.49-0.61 2.24-2.51 2.24-5.7 0-1.96-0.44-3.39-1.31-4.3-0.38-0.41-0.93-0.69-1.67-0.83-0.47-0.09-1.26-0.13-2.37-0.13h-2.94" class="s0"/><path d="m455 26.3h1.14v7.89h-1.4c-0.23-1.55-0.92-3.05-2.06-4.51-1.23-1.61-3.07-2.41-5.52-2.41-1.43 0-2.7 0.34-3.81 1.01-1.34 0.82-2.02 1.96-2.02 3.42 0 0.96 0.31 1.8 0.92 2.5 0.58 0.73 1.72 1.36 3.42 1.88 0.03 0 0.18 0.04 0.44 0.13 0.26 0.06 0.63 0.16 1.1 0.31 0.5 0.12 1.02 0.25 1.58 0.39 2.28 0.67 3.84 1.17 4.69 1.49 1.84 0.76 3.18 1.97 4.03 3.64 0.67 1.34 1.01 2.82 1.01 4.43 0 1.9-0.47 3.67-1.4 5.3-0.94 1.55-2.29 2.72-4.08 3.51-1.52 0.67-3.08 1.01-4.69 1.01-2.75 0-5.35-0.88-7.8-2.63l-1.49 1.88h-1.23v-8.15h1.58c0.5 1.99 1.29 3.52 2.37 4.6 1.67 1.75 3.83 2.63 6.49 2.63 1.64 0 3.1-0.48 4.38-1.45 1.43-1.08 2.15-2.32 2.15-3.73 0-1.23-0.48-2.32-1.45-3.29-0.82-0.88-1.94-1.52-3.37-1.93-0.67-0.18-2.5-0.72-5.48-1.62-1.64-0.5-2.73-0.92-3.29-1.27-2.25-1.46-3.37-3.64-3.37-6.53 0-2.8 0.91-5.04 2.72-6.71 1.75-1.67 3.94-2.5 6.57-2.5 1.69 0 3.32 0.39 4.86 1.18l1.53 0.88 1.49-1.36" class="s0"/><path d="m461 54h3.51v-26.2h-3.51v-1.49h13.2v1.49h-3.46v26.2h3.46v1.49h-13.2v-1.49" class="s0"/><path d="m483 54h3.94v-26.2h-1.18c-1.75 0-3.05 0.22-3.9 0.66-2.1 1.11-3.3 3.39-3.59 6.84h-1.45l0.57-8.98h25.2l0.57 8.98h-1.49c-0.18-2.22-0.8-4.03-1.88-5.43-0.76-0.93-1.68-1.53-2.76-1.8-0.58-0.18-1.5-0.26-2.76-0.26h-1.18v26.2h3.9v1.49h-14v-1.49" class="s0"/><path d="m511 54h3.94v-12l-8.41-14.2h-2.67v-1.49h13.5v1.49h-3.77l6.97 12 5.43-10.2c0.29-0.56 0.44-0.96 0.44-1.23 0-0.26-0.16-0.47-0.48-0.61-0.09-0.03-0.44-0.04-1.05-0.04h-2.02v-1.49h8.46v1.49h-0.79c-0.88 0-1.53 0.18-1.97 0.53-0.23 0.18-0.61 0.73-1.14 1.67l-6.27 12v12h3.9v1.49h-14v-1.49" class="s0"/></g></g></svg>
