<?xml version="1.0" encoding="UTF-8"?>
<!-- Generator: Adobe Illustrator 23.0.2, SVG Export Plug-In . SVG Version: 6.00 Build 0)  -->
<svg version="1.1" id="Zwart" xmlns="http://www.w3.org/2000/svg" xmlns:xlink="http://www.w3.org/1999/xlink" x="0px" y="0px" viewBox="0 0 789.5 155.6" style="enable-background:new 0 0 789.5 155.6;" xml:space="preserve">
<title>KB_Nationale-Bibliotheek_Logo_RGB</title>
<g>
	<g>
		<path d="M120.9,155.6c-0.3,0-0.6,0-1-0.1c-2.1-0.5-3.4-2.6-2.8-4.7l18.1-72.5L117.1,5.8c-0.5-2.1,0.8-4.2,2.8-4.7    c2.1-0.5,4.2,0.8,4.7,2.8L143,77.4c0.2,0.6,0.2,1.3,0,1.9l-18.3,73.3C124.3,154.4,122.7,155.6,120.9,155.6z"/>
	</g>
	<g>
		<path d="M8.3,49c3.7,0,6-0.4,6.4-0.4s0.7,0,0.8,0.2c0.1,0.1,0.1,0.3-0.1,0.5s-1.5,1.2-2.4,3.2c-1.2,2.8-1.1,3.8-1.1,20.8    c0,6.4,0,15.5,0,21.6c0,6.9,1.1,8.6,1.7,9.5c0.6,1,1.8,1.9,2.2,2.3c0.1,0.1,0.2,0.2,0.2,0.4s-0.2,0.3-0.4,0.3    c-0.2,0-5.6-0.5-7.4-0.5c-4,0-7.5,0.5-7.8,0.5c-0.2,0-0.4-0.1-0.4-0.3c0-0.1,0-0.3,0.2-0.5c0.7-0.5,1.7-1.3,2.4-2.4    c0.7-1.1,1.5-2.5,1.5-9.4c0-9,0.1-20.9,0.1-21.6c0-0.8-0.1-11.3-0.1-16.8c0-4.8-2.2-6.4-3-7.2C1,49.1,0.9,49,0.9,48.8    c0-0.3,0.4-0.3,0.5-0.3C2.6,48.7,3.9,49,8.3,49"/>
		<path d="M15.4,73.5c-0.2-0.2-0.2-0.4-0.1-0.5c3-2.8,7.1-7.3,12.1-12.9c5.4-6,8.7-10.5,9.1-10.9c0.2-0.2,0.3-0.4,0.8-0.4    s2.2,0,4.3-0.1c1.5-0.1,3.9-0.2,4.5-0.2s0.7,0.1,0.8,0.2c0.1,0.2-0.1,0.4-0.2,0.5c-0.3,0.3-9.4,7.6-10.9,9    c-0.6,0.6-12,10.6-12.9,11.9c0,0.1,0,0.1,0,0.1s0,0.1,0.1,0.1c1,1.7,11.5,15.5,13.1,17.6c7.8,10.2,10,12.5,11.3,13.6    c1.9,1.7,4,2.3,5.2,2.4c0.6,0.1,2.6,0.2,2.8-0.1c0.2-0.2,0.1-0.5,0.1-0.6c0-0.3,0-28.7,0-30.2s-0.2-18.3-0.2-19.9    c0-1.5-0.5-3-0.9-3.8c-0.1-0.1-0.2-0.4-0.1-0.6c0-0.2,0.3-0.3,0.6-0.3c1.1,0.1,3,0.1,4.8,0.1c1.7,0,3.2-0.1,3.9-0.1    c1.3,0,9.2-0.2,11.4-0.2c1.6,0,8.7-0.1,11.9,3.2c3,3,4,5.8,4,10.1c0,3.7-1.8,6.6-3.6,8.3c-1.4,1.4-3.5,2.8-5.2,3.6    c-1.3,0.6-2.2,0.8-2.2,1.1c0,0.2,0.5,0.2,1.4,0.4c2.3,0.4,7,1.2,10.6,5.2c1.4,1.6,3.7,4.5,3.6,11c-0.1,4.6-2.6,9.9-5.7,12.1    c-3.6,2.6-7.2,3.9-13.5,4.2c-1.6,0.1-3.1,0.1-3.6,0c-0.2-0.1-0.5-0.2-0.5-1c0-0.9,0-1.4,0-2c0-0.3,0.2-0.6,0.8-0.6    c0.4,0,6.4,0.5,10.7-3.8c0.8-0.8,3.7-3.9,3.7-9.8c0-2.1-0.7-5.8-3.6-8.7c-2.6-2.6-7.6-3.7-12.8-3.7c-0.4,0-0.6,0-0.7-0.2    c-0.1-0.2-0.1-0.3-0.1-0.7c0-1.2,0-1.9,0-2.4c0-0.3,0-0.5,0.1-0.7c0.1-0.1,0.2-0.2,0.4-0.2c1.7-0.1,3.3-0.5,4.2-0.7    c3.6-0.9,8.3-4.4,8.3-10.4c0-3.7-1.4-7.2-5.4-9.1c-2.6-1.2-5-1.4-9.1-1.4c-2.6,0-3.5,0-4.1,0c-0.1,0-0.7,0-0.9,0.2    s-0.2,0.7-0.2,0.9c0,1.3-0.1,18.7-0.1,19.8s0.3,31.9,0.3,33.1c0,0.3,0,0.6-0.2,0.8S63,107,62.8,107c-1.4,0-5.7-0.1-7.2,0    c-1.5,0-9.4,0.2-10.9,0.2c-1.2,0-2-0.1-3.1-0.4c-1-0.3-1.9-0.9-2.9-2.1c-1-1.2-6.6-8.3-12.1-16.1C24.9,86.7,17.1,75.8,15.4,73.5"/>
	</g>
	<path d="M261.7,126.1c0,3.7,1.7,5.9,5.4,5.9c1.4,0,2.1,0.2,2.7,0.5c0.7,0.5,1.1,1.2,1.1,2.1c0,0.9-0.4,1.6-1.1,2.1   c-0.5,0.3-1.3,0.5-2.7,0.5H266c-6.9,0-10.3-4.9-10.3-10.9v-25h-2.8c-1.1,0-1.7-0.1-2.2-0.4c-0.7-0.4-1-1.1-1-1.9   c0-0.8,0.3-1.5,1-1.9c0.5-0.3,1.1-0.4,2.2-0.4h2.8V88c0-1.4,0.1-2,0.5-2.8c0.5-0.7,1.4-1.3,2.5-1.3s2,0.5,2.5,1.3   c0.5,0.7,0.5,1.3,0.5,2.8v8.7h6c1.1,0,1.7,0.1,2.2,0.4c0.7,0.4,1,1.1,1,1.9c0,0.8-0.3,1.5-1,1.9c-0.5,0.3-1.1,0.4-2.2,0.4h-6V126.1   z"/>
	<path d="M285.2,136.2c-0.5,0.7-1.4,1.3-2.5,1.3s-2-0.5-2.5-1.3c-0.5-0.7-0.5-1.3-0.5-2.8V82.2c0-1.4,0.1-2,0.5-2.8   c0.5-0.7,1.4-1.3,2.5-1.3s2,0.5,2.5,1.3c0.5,0.7,0.5,1.3,0.5,2.8v18.9c3-3.3,6.8-4.9,11.4-4.9c9.3,0,14.7,5.8,14.7,15v22.3   c0,1.4-0.1,2-0.5,2.8c-0.5,0.7-1.4,1.3-2.5,1.3s-2-0.5-2.5-1.3c-0.5-0.7-0.5-1.3-0.5-2.8v-21.3c0-7.1-3.7-10.6-9.9-10.6   c-6.2,0-10.1,3.5-10.1,10.6v21.3C285.7,134.9,285.7,135.5,285.2,136.2z"/>
	<path d="M326.6,118.4c0,8.9,4.2,14,12,14c3.1,0,6.3-0.9,8.7-2.9c1.3-1.1,1.9-1.4,2.8-1.4c1.3,0,2.6,1.2,2.6,2.6   c0,1.8-2.6,3.6-4.2,4.6c-2.4,1.4-5.9,2.3-10.1,2.3c-10.7,0-17.7-6.4-17.7-20.7c0-13.4,6.5-20.7,16.7-20.7   c10.3,0,16.5,7.5,16.6,18.8c0,0.8,0,1.9-0.8,2.7s-1.7,0.8-2.6,0.8h-24V118.4z M348.1,113.9c-0.1-2.9-0.4-4.4-1.3-6.6   c-1.5-3.7-5.1-6.1-9.5-6.1s-8,2.4-9.5,6.1c-0.9,2.2-1.2,3.7-1.3,6.6H348.1z"/>
	<path d="M413,133.4c0,1.5-0.1,2.1-0.5,2.8c-0.5,0.7-1.4,1.3-2.5,1.3s-2.1-0.5-2.5-1.3c-0.4-0.7-0.5-1.3-0.5-2.8v-21.2   c0-7.2-3.7-10.8-9.9-10.8c-6.2,0-10.1,3.7-10.1,10.8v21.2c0,1.5-0.1,2.1-0.5,2.8c-0.5,0.7-1.4,1.3-2.5,1.3s-2-0.5-2.5-1.3   c-0.4-0.7-0.5-1.3-0.5-2.8v-33.1c0-1.4,0.1-2,0.5-2.8c0.5-0.7,1.4-1.3,2.5-1.3s2,0.5,2.5,1.3c0.5,0.7,0.5,1.3,0.5,2.8v0.7   c2.9-3.3,6.9-4.9,11.4-4.9c4.4,0,8,1.3,10.5,3.8c2.9,2.8,4.2,6.6,4.2,11.3v22.2H413z"/>
	<path d="M427.9,118.4c0,8.9,4.2,14,12,14c3.1,0,6.3-0.9,8.7-2.9c1.3-1.1,1.9-1.4,2.8-1.4c1.3,0,2.6,1.2,2.6,2.6   c0,1.8-2.6,3.6-4.2,4.6c-2.4,1.4-5.9,2.3-10.1,2.3c-10.7,0-17.7-6.4-17.7-20.7c0-13.4,6.5-20.7,16.7-20.7   c10.3,0,16.5,7.5,16.6,18.8c0,0.8,0,1.9-0.8,2.7s-1.7,0.8-2.6,0.8h-24V118.4z M449.3,113.9c-0.1-2.9-0.4-4.4-1.3-6.6   c-1.5-3.7-5.1-6.1-9.5-6.1c-4.4,0-8,2.4-9.5,6.1c-0.9,2.2-1.2,3.7-1.3,6.6H449.3z"/>
	<path d="M472.3,126.1c0,3.7,1.7,5.9,5.4,5.9c1.4,0,2.1,0.2,2.7,0.5c0.7,0.5,1.1,1.2,1.1,2.1c0,0.9-0.4,1.6-1.1,2.1   c-0.5,0.3-1.3,0.5-2.7,0.5h-1.1c-6.9,0-10.3-4.9-10.3-10.9v-25h-2.8c-1.1,0-1.7-0.1-2.2-0.4c-0.7-0.4-1-1.1-1-1.9   c0-0.8,0.3-1.5,1-1.9c0.5-0.3,1.1-0.4,2.2-0.4h2.8V88c0-1.4,0.1-2,0.5-2.8c0.5-0.7,1.4-1.3,2.5-1.3s2,0.5,2.5,1.3   c0.5,0.7,0.5,1.3,0.5,2.8v8.7h6c1.1,0,1.7,0.1,2.2,0.4c0.7,0.4,1,1.1,1,1.9c0,0.8-0.3,1.5-1,1.9c-0.5,0.3-1.1,0.4-2.2,0.4h-6   L472.3,126.1L472.3,126.1z"/>
	<path d="M495.8,136.2c-0.5,0.7-1.4,1.3-2.5,1.3s-2-0.5-2.5-1.3c-0.5-0.7-0.5-1.3-0.5-2.8V82.2c0-1.4,0.1-2,0.5-2.8   c0.5-0.7,1.4-1.3,2.5-1.3s2,0.5,2.5,1.3c0.5,0.7,0.5,1.3,0.5,2.8v18.9c3-3.3,6.8-4.9,11.4-4.9c9.3,0,14.7,5.8,14.7,15v22.3   c0,1.4-0.1,2-0.5,2.8c-0.5,0.7-1.4,1.3-2.5,1.3s-2-0.5-2.5-1.3c-0.5-0.7-0.5-1.3-0.5-2.8v-21.3c0-7.1-3.7-10.6-9.9-10.6   s-10.1,3.5-10.1,10.6v21.3C496.3,134.9,496.3,135.5,495.8,136.2z"/>
	<path d="M538.2,118.4c0,8.9,4.2,14,12,14c3.1,0,6.3-0.9,8.7-2.9c1.3-1.1,1.9-1.4,2.8-1.4c1.3,0,2.6,1.2,2.6,2.6   c0,1.8-2.6,3.6-4.2,4.6c-2.4,1.4-5.9,2.3-10.1,2.3c-10.7,0-17.7-6.4-17.7-20.7c0-13.4,6.5-20.7,16.7-20.7   c10.3,0,16.5,7.5,16.6,18.8c0,0.8,0,1.9-0.8,2.7s-1.7,0.8-2.6,0.8h-24V118.4z M559.7,113.9c-0.1-2.9-0.4-4.4-1.3-6.6   c-1.5-3.7-5.1-6.1-9.5-6.1s-8,2.4-9.5,6.1c-0.9,2.2-1.2,3.7-1.3,6.6H559.7z"/>
	<path d="M581.6,101.5c2.3-3.3,6.6-5.4,11.1-5.4c2.9,0,5.1,0.6,7.3,1.9c1.2,0.8,2.3,1.7,2.3,3c0,0.8-0.4,1.6-0.9,2.1   s-1.3,0.9-2.1,0.9c-0.7,0-1.4-0.3-2.8-1.2c-1.5-0.9-3.2-1.4-5.1-1.4c-6,0-9.8,4.6-9.8,10.9v21c0,1.4-0.1,2-0.5,2.8   c-0.5,0.7-1.4,1.3-2.5,1.3s-2-0.5-2.5-1.3c-0.5-0.7-0.5-1.3-0.5-2.8v-33.1c0-1.4,0.1-2,0.5-2.8c0.5-0.7,1.4-1.3,2.5-1.3   s2,0.5,2.5,1.3c0.5,0.7,0.5,1.3,0.5,2.8V101.5z"/>
	<path d="M614.6,126.1c0,3.7,1.7,5.9,5.4,5.9c1.4,0,2.1,0.2,2.7,0.5c0.7,0.5,1.1,1.2,1.1,2.1c0,0.9-0.4,1.6-1.1,2.1   c-0.5,0.3-1.3,0.5-2.7,0.5h-1.1c-6.9,0-10.3-4.9-10.3-10.9v-44c0-1.4,0.1-2,0.5-2.8c0.5-0.7,1.4-1.3,2.5-1.3s2,0.5,2.5,1.3   c0.5,0.7,0.5,1.3,0.5,2.8L614.6,126.1L614.6,126.1z"/>
	<path d="M643.3,113.9h12.3v-3.3c0-6.2-2.9-9.3-10-9.3c-4.2,0-6.5,1.1-9.2,3.6c-0.9,0.8-1.9,1.1-2.5,1.1c-0.7,0-1.4-0.2-1.8-0.7   c-0.5-0.5-0.7-1-0.7-1.9c0-1.5,1.5-3,3.9-4.5c2.9-1.9,6.1-2.6,10.4-2.6c10.5,0,15.9,4.7,15.9,13.5v23.8c0,1.4-0.1,2-0.5,2.8   c-0.5,0.7-1.4,1.3-2.5,1.3s-2-0.5-2.5-1.3c-0.5-0.7-0.5-1.3-0.5-2.8v-0.1c-3.3,3.2-6.4,4.3-11.6,4.3c-5.6,0-9-1.1-11.5-3.7   c-1.9-2-3.1-5-3.1-8.3C629.3,118.5,634.5,113.9,643.3,113.9z M644.5,132.6c3.4,0,6.4-0.3,8.9-2.8c1.4-1.4,2.1-3.6,2.1-7v-4.3h-11.6   c-5.8,0-8.8,2.5-8.8,7.2C635.2,130.2,638.2,132.6,644.5,132.6z"/>
	<path d="M705.5,133.4c0,1.5-0.1,2.1-0.5,2.8c-0.5,0.7-1.4,1.3-2.5,1.3s-2.1-0.5-2.5-1.3c-0.4-0.7-0.5-1.3-0.5-2.8v-21.2   c0-7.2-3.7-10.8-9.9-10.8s-10.1,3.7-10.1,10.8v21.2c0,1.5-0.1,2.1-0.5,2.8c-0.5,0.7-1.4,1.3-2.5,1.3s-2-0.5-2.5-1.3   c-0.4-0.7-0.5-1.3-0.5-2.8v-33.1c0-1.4,0.1-2,0.5-2.8c0.5-0.7,1.4-1.3,2.5-1.3s2,0.5,2.5,1.3c0.5,0.7,0.5,1.3,0.5,2.8v0.7   c2.9-3.3,6.9-4.9,11.4-4.9c4.4,0,8,1.3,10.5,3.8c2.9,2.8,4.2,6.6,4.2,11.3v22.2H705.5z"/>
	<path d="M720.8,99.7c2.1-2.1,5.7-3.5,9.9-3.5c4.4,0,8.1,1,11.4,5.2V82.3c0-1.4,0.1-2,0.5-2.8c0.5-0.7,1.4-1.3,2.5-1.3   s2,0.5,2.5,1.3c0.5,0.7,0.5,1.3,0.5,2.8v51.2c0,1.4-0.1,2-0.5,2.8c-0.5,0.7-1.4,1.3-2.5,1.3s-2-0.5-2.5-1.3   c-0.5-0.7-0.5-1.3-0.5-2.8v-1.2c-3.4,4.3-6.9,5.4-11.4,5.4c-4.2,0-7.7-1.4-9.9-3.5c-4.1-4.1-5-10.7-5-17.2S716.6,103.8,720.8,99.7z    M731.9,132.3c8.9,0,10.2-7.5,10.2-15.4s-1.3-15.4-10.2-15.4s-10.2,7.5-10.2,15.4S723.1,132.3,731.9,132.3z"/>
	<path d="M757.2,131c0-0.7,0.3-1.5,0.9-2.1c0.5-0.4,1.1-0.6,1.7-0.6c0.7,0,1.6,0.4,2.7,1.2c2.9,2.1,6.2,3,10.7,3   c6.9,0,10.8-2.3,10.8-7.1c0-3.6-2.1-5.5-6.8-5.9l-6.7-0.6c-7.9-0.7-12.1-4.2-12.1-10.9c0-7.4,6.2-11.9,14.9-11.9   c4.5,0,8.2,0.9,11.3,2.6c1.1,0.5,1.6,1,2,1.5s0.5,0.9,0.5,1.5c0,0.5-0.3,1.2-0.7,1.6c-0.5,0.6-1.2,0.9-1.9,0.9s-1.3-0.2-2.3-0.8   c-2.7-1.4-5.6-2.2-9.1-2.2c-5.8,0-9.1,2.4-9.1,6.7c0,3.7,2.3,5.4,7.1,5.8l6.5,0.6c7.1,0.7,11.9,3.3,11.9,11   c0,7.8-6.7,12.3-16.5,12.3c-6.2,0-10.5-1.3-14.2-3.9C758,133,757.2,132.1,757.2,131z"/>
	<path d="M224.4,36.5h12.3v-3.3c0-6.2-2.9-9.3-10-9.3c-4.2,0-6.5,1.1-9.2,3.6c-0.9,0.8-1.9,1.1-2.5,1.1c-0.7,0-1.4-0.2-1.8-0.7   c-0.5-0.5-0.7-1-0.7-1.9c0-1.5,1.5-3,3.9-4.5c2.9-1.9,6.1-2.6,10.4-2.6c10.5,0,15.9,4.7,15.9,13.5v23.8c0,1.4-0.1,2-0.5,2.8   c-0.5,0.7-1.4,1.3-2.5,1.3s-2-0.5-2.5-1.3c-0.5-0.7-0.5-1.3-0.5-2.8v-0.1c-3.3,3.2-6.4,4.3-11.6,4.3c-5.6,0-9-1.1-11.5-3.7   c-1.9-2-3.1-5-3.1-8.3C210.4,41.2,215.6,36.5,224.4,36.5z M225.6,55.2c3.4,0,6.4-0.3,8.9-2.8c1.4-1.4,2.1-3.6,2.1-7v-4.3H225   c-5.8,0-8.8,2.5-8.8,7.2C216.3,52.8,219.3,55.2,225.6,55.2z"/>
	<path d="M261.7,48.7c0,3.7,1.7,5.9,5.4,5.9c1.4,0,2.1,0.2,2.7,0.5c0.7,0.5,1.1,1.2,1.1,2.1c0,0.9-0.4,1.6-1.1,2.1   c-0.5,0.3-1.3,0.5-2.7,0.5H266c-6.9,0-10.3-4.9-10.3-10.9v-25h-2.8c-1.1,0-1.7-0.1-2.2-0.4c-0.7-0.4-1-1.1-1-1.9s0.3-1.5,1-1.9   c0.5-0.3,1.1-0.4,2.2-0.4h2.8v-8.7c0-1.4,0.1-2,0.5-2.8c0.5-0.7,1.4-1.3,2.5-1.3s2,0.5,2.5,1.3c0.5,0.7,0.5,1.3,0.5,2.8v8.7h6   c1.1,0,1.7,0.1,2.2,0.4c0.7,0.4,1,1.1,1,1.9s-0.3,1.5-1,1.9c-0.5,0.3-1.1,0.4-2.2,0.4h-6V48.7z"/>
	<path d="M282.9,0c2.3,0,4.1,1.8,4.1,4.1c0,2.3-1.8,4.1-4.1,4.1c-2.3,0-4.1-1.8-4.1-4.1C278.8,1.8,280.6,0,282.9,0z M285.9,56.1   c0,1.4-0.1,2-0.5,2.8c-0.5,0.7-1.4,1.3-2.5,1.3s-2-0.5-2.5-1.3c-0.5-0.7-0.5-1.3-0.5-2.8V23c0-1.4,0.1-2,0.5-2.8s1.4-1.3,2.5-1.3   s2,0.5,2.5,1.3c0.5,0.7,0.5,1.3,0.5,2.8V56.1z"/>
	<path d="M324.4,23.4c4.2,4.3,5,9.9,5,16.1s-0.8,11.9-5,16.1c-2.8,2.8-6.7,4.6-11.6,4.6s-8.8-1.8-11.6-4.6c-4.2-4.3-5-9.9-5-16.1   c0-6.3,0.8-11.9,5-16.1c2.8-2.8,6.7-4.6,11.6-4.6C317.7,18.8,321.6,20.6,324.4,23.4z M320.1,52c2.8-2.8,3.3-7.8,3.3-12.5   s-0.5-9.6-3.3-12.4c-2-2-4.3-3-7.3-3s-5.4,1-7.3,3c-2.8,2.8-3.3,7.7-3.3,12.4c0,4.7,0.5,9.6,3.3,12.5c2,2,4.3,2.9,7.3,2.9   C315.7,54.9,318.1,54,320.1,52z"/>
	<path d="M371.8,56.1c0,1.5-0.1,2.1-0.5,2.8c-0.5,0.7-1.4,1.3-2.5,1.3s-2.1-0.5-2.5-1.3c-0.4-0.7-0.5-1.3-0.5-2.8V34.9   c0-7.2-3.7-10.8-9.9-10.8s-10.1,3.7-10.1,10.8v21.2c0,1.5-0.1,2.1-0.5,2.8c-0.5,0.7-1.4,1.3-2.5,1.3s-2-0.5-2.5-1.3   c-0.4-0.7-0.5-1.3-0.5-2.8V23c0-1.4,0.1-2,0.5-2.8c0.5-0.7,1.4-1.3,2.5-1.3s2,0.5,2.5,1.3c0.5,0.7,0.5,1.3,0.5,2.8v0.7   c2.9-3.3,6.9-4.9,11.4-4.9c4.4,0,8,1.3,10.5,3.8c2.9,2.8,4.2,6.6,4.2,11.3v22.2H371.8z"/>
	<path d="M394.8,36.5h12.3v-3.3c0-6.2-2.9-9.3-10-9.3c-4.2,0-6.5,1.1-9.2,3.6c-0.9,0.8-1.9,1.1-2.5,1.1s-1.4-0.2-1.8-0.7   c-0.5-0.5-0.7-1-0.7-1.9c0-1.5,1.5-3,3.9-4.5c2.9-1.9,6.1-2.6,10.4-2.6c10.5,0,15.9,4.7,15.9,13.5v23.8c0,1.4-0.1,2-0.5,2.8   c-0.5,0.7-1.4,1.3-2.5,1.3s-2-0.5-2.5-1.3c-0.5-0.7-0.5-1.3-0.5-2.8v-0.1c-3.3,3.2-6.4,4.3-11.6,4.3c-5.6,0-9-1.1-11.5-3.7   c-1.9-2-3.1-5-3.1-8.3C380.8,41.2,385.9,36.5,394.8,36.5z M396,55.2c3.4,0,6.4-0.3,8.9-2.8c1.4-1.4,2.1-3.6,2.1-7v-4.3h-11.6   c-5.8,0-8.8,2.5-8.8,7.2C386.6,52.8,389.7,55.2,396,55.2z"/>
	<path d="M430.8,48.7c0,3.7,1.7,5.9,5.4,5.9c1.4,0,2.1,0.2,2.7,0.5c0.7,0.5,1.1,1.2,1.1,2.1c0,0.9-0.4,1.6-1.1,2.1   c-0.5,0.3-1.3,0.5-2.7,0.5h-1.1c-6.9,0-10.3-4.9-10.3-10.9v-44c0-1.4,0.1-2,0.5-2.8c0.5-0.7,1.4-1.3,2.5-1.3s2,0.5,2.5,1.3   c0.5,0.7,0.5,1.3,0.5,2.8L430.8,48.7L430.8,48.7z"/>
	<path d="M472.3,48.7c0,3.7,1.7,5.9,5.4,5.9c1.4,0,2.1,0.2,2.7,0.5c0.7,0.5,1.1,1.2,1.1,2.1c0,0.9-0.4,1.6-1.1,2.1   c-0.5,0.3-1.3,0.5-2.7,0.5h-1.1c-6.9,0-10.3-4.9-10.3-10.9v-44c0-1.4,0.1-2,0.5-2.8c0.5-0.7,1.4-1.3,2.5-1.3s2,0.5,2.5,1.3   c0.5,0.7,0.5,1.3,0.5,2.8L472.3,48.7L472.3,48.7z"/>
	<path d="M492.6,0c2.3,0,4.1,1.8,4.1,4.1c0,2.3-1.8,4.1-4.1,4.1s-4.1-1.8-4.1-4.1C488.5,1.8,490.3,0,492.6,0z M495.6,56.1   c0,1.4-0.1,2-0.5,2.8c-0.5,0.7-1.4,1.3-2.5,1.3s-2-0.5-2.5-1.3c-0.5-0.7-0.5-1.3-0.5-2.8V23c0-1.4,0.1-2,0.5-2.8s1.4-1.3,2.5-1.3   s2,0.5,2.5,1.3c0.5,0.7,0.5,1.3,0.5,2.8V56.1z"/>
	<path d="M535.2,56.7c-2.1,2.1-5.7,3.5-9.9,3.5c-4.5,0-8.1-1.1-11.4-5.4V56c0,1.4-0.1,2-0.5,2.8c-0.5,0.7-1.4,1.3-2.5,1.3   s-2-0.5-2.5-1.3c-0.5-0.7-0.5-1.3-0.5-2.8V4.8c0-1.4,0.1-2,0.5-2.8c0.5-0.7,1.4-1.3,2.5-1.3s2,0.5,2.5,1.3c0.5,0.7,0.5,1.3,0.5,2.8   v19.1c3.4-4.2,7-5.2,11.4-5.2c4.2,0,7.7,1.4,9.9,3.5c4.1,4.1,5,10.7,5,17.2S539.3,52.6,535.2,56.7z M524,24.1   c-8.8,0-10.2,7.5-10.2,15.4s1.3,15.4,10.2,15.4s10.2-7.5,10.2-15.4S532.9,24.1,524,24.1z"/>
	<path d="M556.8,24.1c2.3-3.3,6.6-5.4,11.1-5.4c2.9,0,5.1,0.6,7.3,1.9c1.2,0.8,2.3,1.7,2.3,3c0,0.8-0.4,1.6-0.9,2.1   s-1.3,0.9-2.1,0.9c-0.7,0-1.4-0.3-2.8-1.2c-1.5-0.9-3.2-1.4-5.1-1.4c-6,0-9.8,4.6-9.8,10.9v21c0,1.4-0.1,2-0.5,2.8   c-0.5,0.7-1.4,1.3-2.5,1.3s-2-0.5-2.5-1.3c-0.5-0.7-0.5-1.3-0.5-2.8V22.8c0-1.4,0.1-2,0.5-2.8c0.5-0.7,1.4-1.3,2.5-1.3   s2,0.5,2.5,1.3c0.5,0.7,0.5,1.3,0.5,2.8V24.1z"/>
	<path d="M596.3,36.5h12.3v-3.3c0-6.2-2.9-9.3-10-9.3c-4.2,0-6.5,1.1-9.2,3.6c-0.9,0.8-1.9,1.1-2.5,1.1c-0.7,0-1.4-0.2-1.8-0.7   c-0.5-0.5-0.7-1-0.7-1.9c0-1.5,1.5-3,3.9-4.5c2.9-1.9,6.1-2.6,10.4-2.6c10.5,0,15.9,4.7,15.9,13.5v23.8c0,1.4-0.1,2-0.5,2.8   c-0.5,0.7-1.4,1.3-2.5,1.3s-2-0.5-2.5-1.3c-0.5-0.7-0.5-1.3-0.5-2.8v-0.1c-3.3,3.2-6.4,4.3-11.6,4.3c-5.6,0-9-1.1-11.5-3.7   c-1.9-2-3.1-5-3.1-8.3C582.3,41.2,587.5,36.5,596.3,36.5z M597.5,55.2c3.4,0,6.4-0.3,8.9-2.8c1.4-1.4,2.1-3.6,2.1-7v-4.3h-11.6   c-5.8,0-8.8,2.5-8.8,7.2C588.2,52.8,591.2,55.2,597.5,55.2z"/>
	<path d="M632.5,24.1c2.3-3.3,6.6-5.4,11.1-5.4c2.9,0,5.1,0.6,7.3,1.9c1.2,0.8,2.3,1.7,2.3,3c0,0.8-0.4,1.6-0.9,2.1   s-1.3,0.9-2.1,0.9c-0.7,0-1.4-0.3-2.8-1.2c-1.5-0.9-3.2-1.4-5.1-1.4c-6,0-9.8,4.6-9.8,10.9v21c0,1.4-0.1,2-0.5,2.8   c-0.5,0.7-1.4,1.3-2.5,1.3s-2-0.5-2.5-1.3c-0.5-0.7-0.5-1.3-0.5-2.8V22.8c0-1.4,0.1-2,0.5-2.8s1.4-1.3,2.5-1.3s2,0.5,2.5,1.3   s0.5,1.3,0.5,2.8V24.1z"/>
	<path d="M683.8,21.8c0.5-1.6,1.2-2.9,3-2.9c1.2,0,2.3,0.7,2.7,1.8c0.3,0.8,0.2,1.7-0.2,2.9l-15.9,45.9c-0.7,1.9-1.6,3.7-2.9,4.9   c-2.1,2-4.7,2.8-7.5,2.8c-1.3,0-2.2-0.2-2.8-0.6c-0.6-0.5-0.9-1.1-0.9-2.1c0-0.9,0.3-1.6,0.9-2.1c0.5-0.4,1.1-0.6,2.2-0.6   c3,0,4.9-1.2,6.1-5l2.6-7.7l-12.3-35.5c-0.4-1.2-0.5-2.1-0.2-2.9c0.4-1,1.6-1.8,2.7-1.8c1.7,0,2.4,1.3,3,2.9l9.8,29.9L683.8,21.8z"/>
	<g>
		<path d="M195.5,100.8c4.2,4.3,5,9.9,5,16.1c0,6.2-0.8,11.9-5,16.1c-2.8,2.8-6.7,4.6-11.6,4.6s-8.9-1.8-11.6-4.6    c-4.2-4.3-5-9.9-5-16.1c0-6.3,0.8-11.9,5-16.1c2.8-2.8,6.7-4.6,11.6-4.6C188.8,96.2,192.7,98,195.5,100.8z M191.2,129.4    c2.8-2.8,3.3-7.8,3.3-12.5s-0.5-9.6-3.3-12.4c-2-2-4.3-3-7.3-3s-5.4,1-7.3,3c-2.8,2.8-3.3,7.7-3.3,12.4s0.5,9.6,3.3,12.5    c2,2,4.3,2.9,7.3,2.9S189.2,131.3,191.2,129.4z"/>
		<path d="M223.7,96.6c1.1,0,1.7,0.1,2.2,0.4c0.7,0.4,1,1.1,1,1.9c0,0.8-0.3,1.5-1,1.9c-0.5,0.3-1.1,0.4-2.2,0.4h-6v32.2    c0,1.4-0.1,2-0.5,2.8c-0.5,0.7-1.4,1.3-2.5,1.3s-2-0.5-2.5-1.3c-0.5-0.7-0.5-1.3-0.5-2.8v-32.2h-2.8c-1.1,0-1.7-0.1-2.2-0.4    c-0.7-0.4-1-1.1-1-1.9c0-0.8,0.3-1.5,1-1.9c0.5-0.3,1.1-0.4,2.2-0.4h2.8v-7.4c0-6,3.4-10.9,10.3-10.9h1.1c1.4,0,2.1,0.2,2.7,0.5    c0.7,0.5,1.1,1.2,1.1,2.1c0,0.9-0.4,1.6-1.1,2.1c-0.5,0.3-1.3,0.5-2.7,0.5c-3.7,0-5.4,2.2-5.4,5.9v7.2L223.7,96.6L223.7,96.6z"/>
	</g>
	<path d="M201.5,56.1c0,1.5-0.1,2.1-0.5,2.8c-0.5,0.7-1.4,1.3-2.5,1.3s-2.1-0.5-2.5-1.3c-0.4-0.7-0.5-1.3-0.5-2.8V34.9   c0-7.2-3.7-10.8-9.9-10.8c-6.2,0-10.1,3.7-10.1,10.8v21.2c0,1.5-0.1,2.1-0.5,2.8c-0.5,0.7-1.4,1.3-2.5,1.3s-2-0.5-2.5-1.3   c-0.4-0.7-0.5-1.3-0.5-2.8V23c0-1.4,0.1-2,0.5-2.8c0.5-0.7,1.4-1.3,2.5-1.3s2,0.5,2.5,1.3s0.5,1.3,0.5,2.8v0.7   c2.9-3.3,6.9-4.9,11.4-4.9c4.4,0,8,1.3,10.5,3.8c2.9,2.8,4.2,6.6,4.2,11.3v22.2H201.5z"/>
</g>
</svg>