<?xml version="1.0" encoding="UTF-8"?><svg id="Layer_1" xmlns="http://www.w3.org/2000/svg" viewBox="0 0 280 128"><defs><style>.cls-1{fill:#fff;}.cls-2{fill:none;stroke:#1d2026;stroke-width:1.44px;}</style></defs><rect class="cls-1" x="85.44" y="9.67" width="109.69" height="108.67"/><polygon points="95.91 20.01 95.91 22.12 99.67 22.12 99.67 34.87 102.08 34.87 102.08 22.12 105.83 22.12 105.83 20.01 95.91 20.01"/><polygon points="114.97 20.01 114.97 26.28 109.19 26.28 109.19 20.01 106.78 20.01 106.78 34.87 109.19 34.87 109.19 28.41 114.97 28.41 114.97 34.87 117.38 34.87 117.38 20.01 114.97 20.01"/><polygon points="120.16 20.01 120.16 34.87 128.68 34.87 128.68 32.76 122.58 32.76 122.58 28.39 127.69 28.39 127.69 26.3 122.58 26.3 122.58 22.1 128.68 22.1 128.68 20.01 120.16 20.01"/><path d="M98.55,56.6h2.61l4.44,8.7c.39,.75,.8,1.9,1.14,2.8h.15c-.15-1.21-.24-2.48-.24-3.32v-8.19h2.39v14.86h-2.59l-4.37-8.55c-.47-.95-.82-1.85-1.21-2.91h-.15c.11,.95,.24,2.33,.24,3.47v7.99h-2.41v-14.86h0Z"/><path d="M118.01,65.84l-1.16-4.35c-.22-.77-.39-1.53-.6-2.63h-.13c-.22,1.08-.34,1.79-.58,2.63l-1.19,4.35h3.66Zm-3.3-9.24h2.93l4.29,14.86h-2.46l-1.01-3.62h-4.57l-.99,3.62h-2.5l4.31-14.86h0Z"/><polygon points="124.54 58.71 120.79 58.71 120.79 56.6 130.7 56.6 130.7 58.71 126.95 58.71 126.95 71.46 124.54 71.46 124.54 58.71"/><rect x="131.93" y="56.6" width="2.41" height="14.86"/><path d="M145.61,64.05c0-3.66-1.14-5.56-3.34-5.56s-3.34,1.9-3.34,5.56,1.12,5.52,3.34,5.52,3.34-1.87,3.34-5.52m-9.23,0c0-4.85,2.11-7.67,5.88-7.67s5.86,2.82,5.86,7.67-2.11,7.63-5.86,7.63-5.88-2.8-5.88-7.63"/><path d="M150.3,56.6h2.61l4.44,8.7c.39,.75,.8,1.9,1.14,2.8h.15c-.15-1.21-.24-2.48-.24-3.32v-8.19h2.39v14.86h-2.59l-4.37-8.55c-.47-.95-.82-1.85-1.21-2.91h-.15c.11,.95,.24,2.33,.24,3.47v7.99h-2.41v-14.86h0Z"/><path d="M169.81,65.84l-1.16-4.35c-.22-.77-.39-1.53-.6-2.63h-.13c-.22,1.08-.34,1.79-.58,2.63l-1.19,4.35h3.66Zm-3.3-9.24h2.93l4.29,14.86h-2.46l-1.01-3.62h-4.57l-.99,3.62h-2.5l4.31-14.86h0Z"/><polygon points="175.04 56.6 177.46 56.6 177.46 69.35 183.26 69.35 183.26 71.46 175.04 71.46 175.04 56.6"/><path d="M103.52,102.35l-1.16-4.35c-.21-.77-.39-1.53-.6-2.63h-.13c-.22,1.08-.34,1.79-.58,2.63l-1.19,4.35h3.66Zm-3.3-9.24h2.93l4.29,14.86h-2.46l-1.01-3.62h-4.57l-.99,3.62h-2.5l4.31-14.86h0Z"/><path d="M112.58,100.5c1.75,0,2.35-1.12,2.35-2.67s-.67-2.67-2.35-2.67h-1.85v5.34h1.85Zm-4.25-7.39h4.44c3.15,0,4.66,1.7,4.66,4.57,0,2.15-1.03,3.88-2.56,4.35v.13c.71,.8,2.76,5.23,3.32,5.47v.34h-2.61c-.69-.39-2.52-5-3.08-5.39h-1.75v5.39h-2.41v-14.86h0Z"/><path d="M121.56,100.5c0,3.7,1.29,5.58,3.3,5.58s2.78-1.4,2.76-3.6l2.41,.09c.02,.11,.04,.3,.04,.41,0,3.06-1.49,5.21-5.19,5.21s-5.88-2.69-5.88-7.69,2.31-7.6,5.88-7.6c4.46,0,5.22,3.21,5.22,5,0,.22-.02,.5-.04,.63l-2.44,.09c.02-2.28-.8-3.6-2.76-3.6s-3.3,1.92-3.3,5.49"/><polygon points="132.05 93.11 134.46 93.11 134.46 99.38 140.24 99.38 140.24 93.11 142.65 93.11 142.65 107.97 140.24 107.97 140.24 101.51 134.46 101.51 134.46 107.97 132.05 107.97 132.05 93.11"/><rect x="145.84" y="93.11" width="2.41" height="14.86"/><path d="M150.22,93.11h2.52l2.24,8.55c.35,1.34,.54,2.52,.78,3.9h.17c.24-1.4,.43-2.56,.78-3.9l2.22-8.55h2.52l-4.2,14.86h-2.82l-4.2-14.86h0Z"/><polygon points="163.1 93.11 171.61 93.11 171.61 95.2 165.51 95.2 165.51 99.4 170.62 99.4 170.62 101.49 165.51 101.49 165.51 105.86 171.61 105.86 171.61 107.97 163.1 107.97 163.1 93.11"/><path d="M175.38,102.93c-.02,.17-.04,.37-.04,.54,0,1.34,.54,2.59,2.37,2.59,1.49,0,2.28-.82,2.28-2,0-1.08-.47-1.7-1.55-2.09l-2.39-.88c-1.68-.62-2.93-1.7-2.93-3.99,0-2.46,1.62-4.2,4.59-4.2,3.79,0,4.46,2.5,4.46,4.07,0,.24-.02,.5-.06,.73l-2.37,.04c.02-.15,.04-.37,.04-.52,0-1.16-.41-2.2-2.11-2.2-1.44,0-2.09,.86-2.09,1.96,0,1.21,.65,1.72,1.53,2.05l2.44,.88c1.83,.67,2.95,1.83,2.95,4.01,0,2.5-1.66,4.26-4.85,4.26-4.07,0-4.74-2.71-4.74-4.48,0-.21,.02-.45,.06-.69l2.41-.09h0Z"/><line class="cls-2" x1="85.58" y1="46.23" x2="195.13" y2="46.23"/><line class="cls-2" x1="140.29" y1="9.67" x2="140.29" y2="46.23"/><line class="cls-2" x1="85.58" y1="82.79" x2="195.13" y2="82.79"/><line class="cls-2" x1="84.87" y1="46.23" x2="195.13" y2="46.23"/><line class="cls-2" x1="84.87" y1="82.74" x2="195.13" y2="82.74"/><rect class="cls-2" x="85.44" y="9.67" width="109.69" height="108.67"/></svg>