<svg xmlns="http://www.w3.org/2000/svg" width="265.479" height="66.238" viewBox="0 0 265.479 66.238"><path d="M-6005.5,953.081l-.4-1.257a7.166,7.166,0,0,0,2.67-1.088.562.562,0,0,0,.2-.343,4.937,4.937,0,0,1-1.1-.186l-1.719-4.881-.442-.241.054-.687c1.086.042,1.983.042,2.95,0l.055.687-.739.161,1.278,4.139h.134a18.085,18.085,0,0,0,.753-4.159l-.711-.148.055-.688c.831.042,1.756.042,2.547,0l.066.688-.468.2a28.65,28.65,0,0,1-1.169,3.875c-.748,2.039-1.767,3.97-3.471,3.97l-.1,0A2.283,2.283,0,0,1-6005.5,953.081Zm31.654-2.348a4.115,4.115,0,0,1-2.131-.559,7.91,7.91,0,0,1,.175-1.678l.762-.052.5,1.194a2.1,2.1,0,0,0,.976.24,1.031,1.031,0,0,0,.688-.214,1.06,1.06,0,0,0,.109-.47.864.864,0,0,0-.591-.833l-1.14-.522a1.945,1.945,0,0,1-1.421-1.742,1.719,1.719,0,0,1,.86-1.526,3.334,3.334,0,0,1,1.608-.344,4.434,4.434,0,0,1,2.131.47,11.3,11.3,0,0,1-.147,1.6l-.831.051-.461-1.083a1.732,1.732,0,0,0-.9-.226,1.264,1.264,0,0,0-.63.148.794.794,0,0,0-.1.4c0,.536.484.762.739.87l1.234.539a1.869,1.869,0,0,1,1.313,1.688,1.98,1.98,0,0,1-.86,1.609,3.63,3.63,0,0,1-1.745.445Zm-22.517-3.148a3.093,3.093,0,0,1,3.232-3.366,2.92,2.92,0,0,1,3.151,3.2,3.064,3.064,0,0,1-3.192,3.286A2.908,2.908,0,0,1-5996.368,947.585Zm1.836-.347c0,1.622.392,2.52,1.452,2.52.854,0,1.257-.605,1.257-1.983,0-1.53-.343-2.644-1.419-2.644C-5994.126,945.13-5994.532,945.818-5994.532,947.238Zm-35.811,2.987a.784.784,0,0,1-.427-.79v-3.311c0-.994,0-2.386-.082-3.438l-.819-.2V941.8c.55-.148,2.063-.295,2.469-.344a.655.655,0,0,1,.239.161c-.092,1.032-.12,2.961-.12,3.438a3.426,3.426,0,0,1,1.877-.67c1.65,0,2.333,1.086,2.333,2.773a3.324,3.324,0,0,1-3.461,3.555A4.406,4.406,0,0,1-6030.343,950.225Zm1.331-4.4c-.042.671-.056,1.249-.056,1.785a19.032,19.032,0,0,0,.069,1.931,1.571,1.571,0,0,0,.925.214c.937,0,1.392-.55,1.392-2.159h-.014c0-1.286-.495-2-1.433-2A1.924,1.924,0,0,0-6029.013,945.828Zm-42.767,1.758a3.091,3.091,0,0,1,3.228-3.366,2.919,2.919,0,0,1,3.151,3.2,3.061,3.061,0,0,1-3.189,3.286A2.906,2.906,0,0,1-6071.779,947.585Zm1.836-.347c0,1.622.389,2.52,1.447,2.52.859,0,1.262-.605,1.262-1.983,0-1.53-.344-2.644-1.424-2.644C-6069.542,945.13-6069.943,945.818-6069.943,947.238Zm105.046,1.89a1.523,1.523,0,0,1,.764-1.275,7.944,7.944,0,0,1,2.87-.9v-.578c0-.67-.069-1.137-.819-1.137a2.244,2.244,0,0,0-.8.134l-.687,1.152h-.833a8.073,8.073,0,0,1-.213-1.544,6.831,6.831,0,0,1,3.136-.722c1.409,0,1.958.658,1.958,1.956v2.644a6.759,6.759,0,0,0,.039.764l.739.184-.056.725a8.376,8.376,0,0,1-1.272.083,2,2,0,0,1-.6-.055.428.428,0,0,1-.3-.323l-.092-.522a2.959,2.959,0,0,1-2.025.98A1.609,1.609,0,0,1-5964.9,949.128Zm1.836-1.02a.881.881,0,0,0-.227.656c0,.485.344.688.855.688a2.059,2.059,0,0,0,1.183-.41v-1.2A6.818,6.818,0,0,0-5963.062,948.108Zm-55.687,1.02a1.524,1.524,0,0,1,.762-1.275,7.944,7.944,0,0,1,2.87-.9v-.578c0-.67-.067-1.137-.817-1.137a2.249,2.249,0,0,0-.805.134l-.687,1.152h-.831a8.034,8.034,0,0,1-.213-1.544,6.828,6.828,0,0,1,3.134-.722c1.411,0,1.96.658,1.96,1.956v2.644a6.994,6.994,0,0,0,.037.764l.739.184-.054.725a8.388,8.388,0,0,1-1.272.083,2,2,0,0,1-.605-.055.423.423,0,0,1-.292-.323l-.1-.522a2.956,2.956,0,0,1-2.025.98A1.608,1.608,0,0,1-6018.749,949.128Zm1.85-1.02a.868.868,0,0,0-.228.656c0,.485.343.688.855.688a2.058,2.058,0,0,0,1.183-.41v-1.2A6.805,6.805,0,0,0-6016.9,948.108Zm-39.8,1.02a1.524,1.524,0,0,1,.762-1.275,7.942,7.942,0,0,1,2.872-.9v-.578c0-.67-.069-1.137-.819-1.137a2.239,2.239,0,0,0-.8.134l-.671,1.152h-.831a8.034,8.034,0,0,1-.213-1.544,6.83,6.83,0,0,1,3.135-.722c1.409,0,1.959.658,1.959,1.956v2.644a6.33,6.33,0,0,0,.037.764l.74.184-.055.725a8.38,8.38,0,0,1-1.272.083,2.008,2.008,0,0,1-.605-.055.426.426,0,0,1-.295-.323l-.094-.522a2.956,2.956,0,0,1-2.025.98A1.615,1.615,0,0,1-6056.7,949.128Zm1.856-1.02a.876.876,0,0,0-.227.656c0,.485.344.688.855.688a2.072,2.072,0,0,0,1.18-.41v-1.2A6.793,6.793,0,0,0-6054.839,948.108Zm-32.793,1.02a1.519,1.519,0,0,1,.767-1.275,7.918,7.918,0,0,1,2.867-.9v-.578c0-.67-.066-1.137-.819-1.137a2.24,2.24,0,0,0-.8.134l-.671,1.152h-.832a8.073,8.073,0,0,1-.213-1.544,6.85,6.85,0,0,1,3.139-.722c1.406,0,1.956.658,1.956,1.956v2.644a6.048,6.048,0,0,0,.042.764l.736.184-.052.725a8.421,8.421,0,0,1-1.275.083,1.974,1.974,0,0,1-.6-.055.425.425,0,0,1-.3-.323l-.092-.522a2.969,2.969,0,0,1-2.025.98A1.618,1.618,0,0,1-6087.633,949.128Zm1.853-1.02a.893.893,0,0,0-.227.656c0,.485.344.688.859.688a2.067,2.067,0,0,0,1.18-.41v-1.2A6.886,6.886,0,0,0-6085.78,948.108Zm-9.009-3.259.054.711v1.556a20.423,20.423,0,0,0,.107,2.407l1.072.306-.027.725c-1.031,0-2.187-.028-3.245,0l-.027-.777.9-.217a20.521,20.521,0,0,0,.106-2.265v-1.519a20.1,20.1,0,0,0-.092-2.242l-.939-.172.052-.753c.739-.028,1.557-.042,2.575,0l4.062,5.645-.067-1.138v-.859c0-.8,0-1.85-.066-2.722l-1.059-.2.052-.767c1.059.028,1.862.042,3.018,0l.051.767-.762.163c-.052.776-.08,1.553-.08,2.681,0,1.526,0,2.895.052,4.342a12.1,12.1,0,0,1-1.527.175Zm14.523,4.17v-3.564l-1.032-.149v-.642l1.125-.175a21.419,21.419,0,0,0,1.008-1.956l.615.106.147,1.836,1.836-.08a9.84,9.84,0,0,1-.079,1.152c-.578,0-1.248-.028-1.85-.052-.042,1.06-.042,1.891-.042,2.922,0,.86.267,1.031.966,1.031a7.166,7.166,0,0,0,.925-.065l.092.575a4.233,4.233,0,0,1-2.317.711h-.034C-6079.744,950.669-6080.266,950.159-6080.266,949.019Zm125.145,1.636a2.817,2.817,0,0,1-3.093-3.15,3.062,3.062,0,0,1,3.19-3.272,2.227,2.227,0,0,1,2.495,2.348,3.741,3.741,0,0,1-.078.777h-2.063c-.536,0-1.165-.028-1.756-.069.042,1.275.564,2.159,1.983,2.159a4.936,4.936,0,0,0,1.656-.267l.227.495a3.607,3.607,0,0,1-2.473.981Zm-.972-5.377a2.66,2.66,0,0,0-.323,1.317l2.1-.054c0-.888-.241-1.424-1-1.424h-.049A1.712,1.712,0,0,0-5956.094,945.278Zm-147.109,5.377a2.816,2.816,0,0,1-3.092-3.15,3.062,3.062,0,0,1,3.189-3.272,2.228,2.228,0,0,1,2.5,2.348,3.681,3.681,0,0,1-.083.777h-2.062c-.538,0-1.169-.028-1.757-.069.038,1.275.563,2.159,1.983,2.159a4.93,4.93,0,0,0,1.656-.267l.23.495a3.6,3.6,0,0,1-2.474.981Zm-.992-5.377a2.665,2.665,0,0,0-.32,1.317l2.1-.054c0-.888-.24-1.424-1.006-1.424h-.049A1.715,1.715,0,0,0-6104.195,945.278Zm152.423,5.3-.039-.7.962-.227a11.278,11.278,0,0,0,.042-1.436v-2.695c0-1.072,0-2.062-.065-2.894l-.914-.134V941.8c.646-.148,2.134-.295,2.561-.343a.571.571,0,0,1,.254.161c-.079,1.178-.092,3.228-.092,3.9v2.427a14.616,14.616,0,0,0,.069,1.718l.911.2-.055.711C-5949.239,950.575-5950.546,950.547-5951.772,950.575Zm-98.083,0-.042-.7.966-.227a12.054,12.054,0,0,0,.038-1.436v-2.695c0-1.072,0-2.062-.066-2.894l-.911-.134V941.8c.644-.148,2.132-.295,2.561-.343a.6.6,0,0,1,.255.161c-.083,1.178-.1,3.228-.1,3.9v2.427a15.4,15.4,0,0,0,.069,1.718l.911.2-.055.711C-6047.322,950.575-6048.631,950.547-6049.855,950.575Zm7.405,0-.028-.8.914-.2a16.837,16.837,0,0,0,.078-1.719v-2.372c0-.642,0-1.289-.055-1.97l-.961-.147.052-.78c1.5.041,2.532.055,4.1,0l.064.767-1.34.255c-.042.442-.066,1-.066,1.756v2.2c0,.656,0,1.423.039,2.011a3.957,3.957,0,0,0,.725.054,7.056,7.056,0,0,0,1.193-.092l.817-1.877.845.172c-.04.9-.1,1.784-.23,2.75C-6038.282,950.53-6040.423,950.517-6042.45,950.572Zm-22.3,0-.052-.736.828-.281a4.064,4.064,0,0,0,.042-.722v-1.784a14.6,14.6,0,0,0-.064-1.595l-.888-.2v-.658c.458-.148,2.08-.343,2.483-.4a.943.943,0,0,1,.253.163,5.845,5.845,0,0,0-.054.79,3.6,3.6,0,0,1,2.292-.9c.966,0,1.7.469,1.7,2.063v2.547a5.812,5.812,0,0,0,.026.734l.791.283-.052.687c-.979-.026-2.159-.04-3.193,0l-.052-.687.75-.214c0-.147.027-.484.027-.79v-1.905c0-.911-.2-1.4-.911-1.4a2.191,2.191,0,0,0-1.354.364,12.818,12.818,0,0,0-.055,1.3v1.636a2.461,2.461,0,0,0,.055.734l.762.241-.051.725C-6062.492,950.544-6063.646,950.53-6064.746,950.572Zm84.045,0-.026-.784.923-.161c.066-.791.08-1.327.08-2.172V945.6c0-.687,0-1.327-.066-2.062l-.965-.186.054-.78c1.327.042,2.358.055,3.741,0l.051.767-.976.2c-.028.767-.042,1.423-.042,1.945v1.822c0,.776,0,1.409.055,2.278l.976.2-.05.777C-5978.1,950.541-5979.493,950.527-5980.7,950.569Zm-139.568,0-.058-.811,1.206-.283c.08-.937.106-1.553.106-2.87,0-1.072,0-2.062-.055-3.042a7.048,7.048,0,0,0-1.165.078l-.592,1.375-.855-.12c.066-.777.133-1.595.227-2.32,2.406.055,4.531.055,6.717,0,.106.739.175,1.45.226,2.228l-.9.106-.529-1.269a8.8,8.8,0,0,0-1.206-.078c-.069.966-.069,1.956-.069,2.991,0,.923.027,1.793.1,2.867l1.208.343-.028.805C-6117.333,950.541-6118.821,950.527-6120.269,950.569Zm84.947,0-.051-.757.938-.184a17.458,17.458,0,0,0,.052-1.771v-.8a12.619,12.619,0,0,0-.066-1.609l-.886-.2v-.647c.458-.148,2.145-.343,2.547-.4a.71.71,0,0,1,.255.163,18.416,18.416,0,0,0-.135,2.615v.688q-.021.97.055,1.942l.736.2-.052.764C-6033.015,950.524-6034.193,950.524-6035.321,950.566Zm-40.438,0-.052-.757.938-.184a17.458,17.458,0,0,0,.052-1.771v-.8a15.113,15.113,0,0,0-.066-1.609l-.887-.2v-.647c.458-.148,2.145-.343,2.547-.4a.778.778,0,0,1,.258.163,17.721,17.721,0,0,0-.134,2.615v.688c0,.817,0,1.461.051,1.942l.739.2-.055.764C-6073.454,950.524-6074.632,950.524-6075.76,950.566Zm105.451-.008-.05-.694.842-.32a6.219,6.219,0,0,0,.027-.739v-1.742a15.129,15.129,0,0,0-.066-1.65l-.886-.186v-.633c.47-.12,1.77-.292,2.2-.343a.982.982,0,0,1,.254.161c0,.343-.026.587-.042,1.031a2.669,2.669,0,0,1,1.9-1.142,1.214,1.214,0,0,1,.671.134,7.332,7.332,0,0,1-.08,1.41l-.389.175a1.838,1.838,0,0,0-1.853.2c-.024.24-.037.55-.037,1.112v1.1a5.342,5.342,0,0,0,.065.963l1.65.344-.055.817C-5967.479,950.53-5968.926,950.517-5970.309,950.558Zm-41.458,0-.056-.694.845-.32a6.019,6.019,0,0,0,.028-.739v-1.742a14.1,14.1,0,0,0-.069-1.65l-.883-.186v-.633c.469-.12,1.771-.292,2.2-.343a1.013,1.013,0,0,1,.255.161c0,.343-.028.587-.042,1.031a2.666,2.666,0,0,1,1.905-1.142,1.207,1.207,0,0,1,.669.134,7,7,0,0,1-.083,1.41l-.389.175a1.83,1.83,0,0,0-1.849.2,9.736,9.736,0,0,0-.042,1.112v1.1a5.346,5.346,0,0,0,.069.963l1.65.344-.055.817C-6008.939,950.53-6010.386,950.517-6011.767,950.558Zm-12.375,0-.068-.694.842-.32a6.545,6.545,0,0,0,.027-.739v-1.742a15.129,15.129,0,0,0-.066-1.65l-.886-.186v-.633c.47-.12,1.77-.292,2.2-.343a1.04,1.04,0,0,1,.253.161c0,.343-.027.587-.041,1.031a2.669,2.669,0,0,1,1.9-1.142,1.2,1.2,0,0,1,.687.134,7.216,7.216,0,0,1-.079,1.41l-.389.175a1.838,1.838,0,0,0-1.853.2c-.023.24-.037.55-.037,1.112v1.1a5.3,5.3,0,0,0,.064.963l1.65.344-.055.817C-6021.314,950.53-6022.76,950.517-6024.143,950.558Zm-85.8-.011-.055-.687.753-.214V946.98c0-.914-.2-1.4-.914-1.4a2.185,2.185,0,0,0-1.348.364c-.028.361-.042.8-.042,1.289v1.595a3.42,3.42,0,0,0,.055.75l.777.24-.055.725c-1.031-.026-2.2-.04-3.3,0l-.055-.711.846-.281a4.7,4.7,0,0,0,.042-.722v-3.689c0-.831,0-1.836-.069-2.464l-.819-.2v-.687a24.5,24.5,0,0,1,2.427-.344c.066.037.189.078.241.161-.094,1.072-.122,3.07-.122,3.523a3.9,3.9,0,0,1,2.349-.9c.962,0,1.718.482,1.718,2.063v2.547a4.922,4.922,0,0,0,.028.736l.688.281-.055.687C-6107.812,950.507-6108.909,950.507-6109.939,950.547Zm120.7-.006-.037-.678.856-.32V947c0-.512,0-1.031-.042-1.542l-1.059-.163v-.642l1.072-.189.054-.722a2.09,2.09,0,0,1,1.221-1.959,3.972,3.972,0,0,1,1.567-.306,3.572,3.572,0,0,1,1.558.343c-.1.43-.161.9-.269,1.275h-.5a3.52,3.52,0,0,0-1.892-.484,13.3,13.3,0,0,0-.133,1.945l2.12-.068c0,.343,0,.59-.042,1.14-.725.038-1.434-.026-1.973-.04v3.781l1.77.344-.051.831C-5986.351,950.513-5987.921,950.5-5989.235,950.541Zm-45.442-8.184h-.008a4.639,4.639,0,0,1,1.072-1.1,3.671,3.671,0,0,1,1.086,1.1,5.224,5.224,0,0,1-1.086,1.072A5.493,5.493,0,0,1-6034.677,942.357Zm-40.436,0h-.011a4.584,4.584,0,0,1,1.073-1.1,3.71,3.71,0,0,1,1.086,1.1,5.32,5.32,0,0,1-1.086,1.072A5.359,5.359,0,0,1-6075.113,942.357Zm6.654-11.3c.244-.244.516-.472.725-.667a1.423,1.423,0,0,1-.361-.983,1.28,1.28,0,0,1,.381-.945,1.284,1.284,0,0,1,.949-.372,1.775,1.775,0,0,1,.605.12,1.877,1.877,0,0,1,.364.774l-.151.181a2.114,2.114,0,0,0-.774-.137c-.529,0-.845.183-.845.392,0,.3.437.5,1.014.5a2.115,2.115,0,0,0,.912-.225l.16.1a5.41,5.41,0,0,1-.378.88,23.467,23.467,0,0,0-2.464.65Zm51.136-1.619v-.5c1.905-.3,3.461-.73,4.039-1.788h-1.248a1.677,1.677,0,0,1-1.908-1.9c0-1.605.864-3.269,2.225-3.269,1.2,0,2.042,1.3,2.165,3.206h1.032a.905.905,0,0,1,.65.183.9.9,0,0,1,.645-.183,2.806,2.806,0,0,0,1.286-.2v-5.614l-.25-.272c-.437-.467-.485-.893-.107-1.753l.41-.937h.576l.135.77,1.24,1.031-.8,1.481V923.9a7.822,7.822,0,0,1-.319,2.406,2.82,2.82,0,0,1-2.167.894.9.9,0,0,1-.65-.187.9.9,0,0,1-.645.187h-1.2a3.494,3.494,0,0,1-3.328,2.976A4.873,4.873,0,0,1-6017.323,929.435Zm1.761-4.612c0,.329.264.542,1.031.542h1.423c-.183-.939-.729-1.544-1.333-1.544h-.046A1.077,1.077,0,0,0-6015.562,924.822Zm-76.777,4.417v-.516a5,5,0,0,0,3.647-2.513l-.688-1.89a8.365,8.365,0,0,1,.758-1.558h.573l.409,1.424c.272.92.561,1,1.789,1h7.231a.9.9,0,0,1,.65.188.9.9,0,0,1,.657-.186c.956,0,1.257-.108,1.528-.953l.272-.863h.688v1.664a1.463,1.463,0,0,0,.787.183c.605,0,.845-.121,1.134-1l.258-.85h.688v1.469a5.485,5.485,0,0,0,1.873.515l-.542-1.272a6.293,6.293,0,0,1,.6-1.556h.485a7.107,7.107,0,0,1,.561,2.722,7.39,7.39,0,0,1-.227,2.011,2.24,2.24,0,0,1-.485.045,6.425,6.425,0,0,1-2.936-.711,2.064,2.064,0,0,1-1.481.687,1.854,1.854,0,0,1-1.392-.5,3.8,3.8,0,0,1-1.814.426.885.885,0,0,1-.657-.2.892.892,0,0,1-.651.19h-7.255a2.865,2.865,0,0,1-1.82-.441c-.24,1.891-1.512,3.342-2.69,3.417A4.532,4.532,0,0,1-6092.339,929.239Zm110.982,0a7.8,7.8,0,0,1,.833-1.108,7.885,7.885,0,0,1,1.076.88,8.262,8.262,0,0,1-.819,1.086A12.738,12.738,0,0,1-5981.356,929.239Zm-54.432.028a10.17,10.17,0,0,1-.667.831,12.3,12.3,0,0,1-1.089-.859,7.678,7.678,0,0,1,.831-1.108,9.265,9.265,0,0,1,1.031.85,9.611,9.611,0,0,1,.688-.85,7.579,7.579,0,0,1,1.079.88,8.045,8.045,0,0,1-.814,1.086C-6034.974,929.92-6035.561,929.479-6035.788,929.267Zm-65.182,0a9.5,9.5,0,0,1-.664.831,12.3,12.3,0,0,1-1.089-.859,7.9,7.9,0,0,1,.831-1.108,9.265,9.265,0,0,1,1.031.85,9.611,9.611,0,0,1,.688-.85,7.606,7.606,0,0,1,1.079.88,8.028,8.028,0,0,1-.817,1.086C-6100.153,929.92-6100.744,929.479-6100.97,929.267Zm-11.344,0a9.325,9.325,0,0,1-.664.831,12.731,12.731,0,0,1-1.089-.859,7.76,7.76,0,0,1,.833-1.108,9.35,9.35,0,0,1,1.031.85,9.513,9.513,0,0,1,.687-.85,7.619,7.619,0,0,1,1.08.88,8.2,8.2,0,0,1-.819,1.086C-6111.5,929.92-6112.087,929.479-6112.314,929.267Zm46.671.426h.009l0,0Zm105.668-2.523-2.514-.953c-.5.756-.893.969-1.45.969a.935.935,0,0,1-.639-.166.917.917,0,0,1-.636.177c-1.24,0-1.814-.547-2.722-1.681a2.9,2.9,0,0,1-3.025,1.681.93.93,0,0,1-.659-.184.9.9,0,0,1-.644.184c-1.56,0-1.907-.289-2.481-1.241a4.81,4.81,0,0,1-.485,1,5.277,5.277,0,0,1-1.57.244.9.9,0,0,1-.644-.184.9.9,0,0,1-.642.184c-1.561,0-1.908-.289-2.481-1.241a4.81,4.81,0,0,1-.485,1,5.294,5.294,0,0,1-1.57.244.885.885,0,0,1-.656-.195.885.885,0,0,1-.655.195h-7.242a2.434,2.434,0,0,1-2.784-2.211,5.3,5.3,0,0,1-.344.605,1.566,1.566,0,0,1-.864.226,1.63,1.63,0,0,1-1.28-.473,1.633,1.633,0,0,1-.476-1.28c0-1.453,1.333-2.664,3.011-3.633l.4-.784h.688v3.827c0,1.422.216,1.692,1.457,1.716.062-.006.127-.009.2-.009h7.242a.889.889,0,0,1,.655.193.89.89,0,0,1,.655-.192,9.468,9.468,0,0,0,1.6-.121l-.272-.939a9.1,9.1,0,0,1,.619-1.6h.547l.255,1.254c.257,1.224.5,1.407,1.787,1.407a.907.907,0,0,1,.642.181.907.907,0,0,1,.644-.181,9.493,9.493,0,0,0,1.6-.121l-.272-.939a8.989,8.989,0,0,1,.619-1.6h.54l.253,1.254c.258,1.224.5,1.407,1.788,1.407a.922.922,0,0,1,.651.179.912.912,0,0,1,.641-.179,5.26,5.26,0,0,0,2.221-.379,8.878,8.878,0,0,0-.725-1.343l-.953-1.516-.422-.344a6.889,6.889,0,0,1,.3-1.877l4.72-3.3h.6a7.02,7.02,0,0,1-.344,1.619l-3.863,2.464,2,3.053c.907,1.409,1.375,1.619,2.223,1.619a.921.921,0,0,1,.638.175.917.917,0,0,1,.638-.175c.739,0,1-.183,1.616-1.317l.319-.575c.588-1.059,1.209-1.664,2.028-1.664.934,0,1.495.516,2.464,2.18.6,1.031.921,1.375,1.739,1.375a.9.9,0,0,1,.653.185.9.9,0,0,1,.646-.186,2.808,2.808,0,0,0,1.286-.2v-5.614l-.258-.272c-.439-.467-.484-.893-.106-1.753l.409-.937h.575l.137.77,1.241,1.031-.78,1.464V923.9a7.82,7.82,0,0,1-.316,2.406,2.862,2.862,0,0,1-2.179.894.9.9,0,0,1-.656-.19.892.892,0,0,1-.651.19,2.794,2.794,0,0,1-2.237-1.122,5.045,5.045,0,0,1-.622,1.437A5.777,5.777,0,0,1-5959.975,927.17Zm-1.506-2.85-.106.214,2.742.92c-.289-1.237-.938-2.011-1.605-2.011C-5960.858,923.443-5961.161,923.687-5961.48,924.32Zm-34.46-.953c0,.453.405.547.952.547a5.469,5.469,0,0,0,.938-.075v-1.908C-5995.083,922.309-5995.941,922.914-5995.941,923.367Zm-69.524,4.019a14.314,14.314,0,0,1-2.347-.207l.576-1.784,2.889-2.062a10.38,10.38,0,0,0-2.526-2.028l-1.833-1.138a7.349,7.349,0,0,1,.653-1.873h.392l1.568,1.306a12.842,12.842,0,0,1,2.343,2.572v-2.8l-.257-.272c-.441-.467-.485-.893-.107-1.753l.427-.937h.573l.139.77,1.24,1.031-.814,1.464a7.869,7.869,0,0,1-.528,3.438,3.671,3.671,0,0,1,.378,1.662,5.507,5.507,0,0,1-.644,2.266,5.125,5.125,0,0,1-1.861.351C-6065.292,927.393-6065.378,927.391-6065.465,927.387Zm-.453-2.036a9.418,9.418,0,0,0,1.2.058,7.238,7.238,0,0,0,1.166-.089,2.593,2.593,0,0,0,.042-.378h-.011a1.8,1.8,0,0,0-.364-1.075Zm39.627,1.847a.891.891,0,0,1-.651-.192.887.887,0,0,1-.651.192c-1.558,0-1.905-.289-2.479-1.241a5.235,5.235,0,0,1-.484,1,5.313,5.313,0,0,1-1.575.244.9.9,0,0,1-.642-.183.9.9,0,0,1-.643.183c-1.558,0-1.905-.289-2.478-1.241a5.241,5.241,0,0,1-.486,1,5.313,5.313,0,0,1-1.575.244.884.884,0,0,1-.652-.194.883.883,0,0,1-.653.194h-7.247a2.434,2.434,0,0,1-2.781-2.211,5.752,5.752,0,0,1-.343.605,1.578,1.578,0,0,1-.863.226,1.628,1.628,0,0,1-1.28-.473,1.633,1.633,0,0,1-.477-1.28c0-1.453,1.331-2.664,3.011-3.633l.392-.784h.687v3.827c0,1.423.22,1.692,1.458,1.716a1.946,1.946,0,0,1,.195-.009h7.247a.887.887,0,0,1,.654.192.889.889,0,0,1,.652-.191,9.516,9.516,0,0,0,1.605-.121l-.275-.939a9.348,9.348,0,0,1,.622-1.6h.544l.257,1.254c.258,1.224.5,1.407,1.785,1.407a.909.909,0,0,1,.645.178.911.911,0,0,1,.639-.178,9.512,9.512,0,0,0,1.605-.121l-.275-.939a9.348,9.348,0,0,1,.622-1.6h.544l.257,1.254c.258,1.224.5,1.407,1.785,1.407a.893.893,0,0,1,.651.189.892.892,0,0,1,.651-.19h1.285c.121-.2.258-.392.379-.559v-5.25l-.258-.272c-.436-.467-.481-.893-.1-1.753l.406-.937h.578l.134.77,1.241,1.031-.8,1.481v1.135a10.088,10.088,0,0,1-.271,2.6c1.24-1.467,2.406-2.1,3.523-2.1,1.358-.017,2.417.936,2.417,2.871a4.7,4.7,0,0,1-.468,1.845,6.972,6.972,0,0,1-4.279,1.152Zm2.187-2.016h1.908a10.594,10.594,0,0,0,3.393-.5h.011a1.782,1.782,0,0,0-1.847-1.406C-6021.76,923.278-6022.788,923.762-6024.1,925.182Zm-27.168-1.814c0,.453.411.547.953.547a5.486,5.486,0,0,0,.939-.075v-1.908C-6050.412,922.309-6051.272,922.914-6051.272,923.367Zm-49.806,2.589a5.233,5.233,0,0,1-.484,1,5.316,5.316,0,0,1-1.575.244.9.9,0,0,1-.642-.183.9.9,0,0,1-.644.183c-1.525,0-1.979-.275-2.45-1.183a4.686,4.686,0,0,1-.481.939,4.432,4.432,0,0,1-1.3.244.9.9,0,0,1-.642-.183.906.906,0,0,1-.644.183c-1.557,0-1.9-.289-2.478-1.241a5.241,5.241,0,0,1-.486,1,5.3,5.3,0,0,1-1.573.244.936.936,0,0,1-.625-.167,1,1,0,0,1-.668.167,2.432,2.432,0,0,1-2.781-2.211,4.958,4.958,0,0,1-.344.605,1.55,1.55,0,0,1-.859.226,1.631,1.631,0,0,1-1.281-.473,1.637,1.637,0,0,1-.475-1.28c0-1.453,1.329-2.664,3.011-3.633l.392-.784h.687v3.827c0,1.5.244,1.718,1.664,1.718a.994.994,0,0,1,.66.151.951.951,0,0,1,.62-.16,9.539,9.539,0,0,0,1.605-.121l-.275-.939a9.192,9.192,0,0,1,.623-1.6h.542l.258,1.254c.258,1.224.5,1.407,1.784,1.407a.914.914,0,0,1,.646.178.909.909,0,0,1,.64-.179,6.269,6.269,0,0,0,1.512-.181v-6.926a7.429,7.429,0,0,1,.6-1.664h.605v7.365c0,1.331.422,1.406,1.512,1.406a.907.907,0,0,1,.645.182.909.909,0,0,1,.642-.18,9.52,9.52,0,0,0,1.605-.121l-.275-.939a9.19,9.19,0,0,1,.622-1.6h.542l.258,1.254c.258,1.224.5,1.407,1.785,1.407a.91.91,0,0,1,.645.178.914.914,0,0,1,.64-.178,9.937,9.937,0,0,0,1.86-.152l-.708-1.678a8.6,8.6,0,0,1,.739-1.811h.561a11.792,11.792,0,0,1,.515,2.919,4.65,4.65,0,0,1-.515,2.134,4.527,4.527,0,0,1-2.452.591.882.882,0,0,1-.642-.172.9.9,0,0,1-.643.183C-6100.156,927.2-6100.5,926.909-6101.078,925.956Zm-19.459-2.589c0,.453.409.547.953.547a5.492,5.492,0,0,0,.938-.075v-1.908C-6119.678,922.309-6120.537,922.914-6120.537,923.367ZM-5950.1,927l-.008-8.929a7.43,7.43,0,0,1,.605-1.664h.6v5.279c0,1.117,0,2.042-.107,3.252l-.409,2.062Zm-55.251,0-.011-8.929a7.43,7.43,0,0,1,.605-1.664h.6v5.279c0,1.117,0,2.042-.1,3.252l-.409,2.062Zm-55.331,0-.006-8.929a7.426,7.426,0,0,1,.6-1.664h.605v5.279c0,1.117,0,2.042-.106,3.252L-6060,927Zm-31.986,0-.007-8.929a7.262,7.262,0,0,1,.6-1.664h.605v5.279c0,1.117-.017,2.042-.107,3.252l-.409,2.062Zm116-6.493a7.559,7.559,0,0,1,.833-1.1,8.936,8.936,0,0,1,1.031.845,9.573,9.573,0,0,1,.687-.845,7.247,7.247,0,0,1,1.073.876,8.033,8.033,0,0,1-.814,1.089c-.244-.181-.831-.622-1.059-.831a10.4,10.4,0,0,1-.661.845A12.934,12.934,0,0,1-5976.667,920.511Zm-54.464,0a7.1,7.1,0,0,1,.833-1.1,7.6,7.6,0,0,1,1.072.876,8.167,8.167,0,0,1-.816,1.089A12.471,12.471,0,0,1-6031.131,920.511Zm-65.622.045a5.206,5.206,0,0,1,.711-.547,1.374,1.374,0,0,1-.342-.953,1.281,1.281,0,0,1,.379-.945,1.29,1.29,0,0,1,.949-.372,1.674,1.674,0,0,1,.605.138,1.8,1.8,0,0,1,.361.77l-.15.183a2.14,2.14,0,0,0-.771-.152c-.528,0-.845.183-.845.392,0,.3.436.5,1.011.5a3.934,3.934,0,0,0,.907-.124l.169.108a5.362,5.362,0,0,1-.378.876,19.051,19.051,0,0,0-2.464.4Zm103.17-2.722a8.574,8.574,0,0,1-.6.77,10.6,10.6,0,0,1-1.014-.8,7.436,7.436,0,0,1,.773-1.031,6.822,6.822,0,0,1,.983.787,5.685,5.685,0,0,1,.62-.787,7.061,7.061,0,0,1,.983.817,6.99,6.99,0,0,1-.756,1.031C-5992.81,918.456-5993.357,918.047-5993.583,917.833Zm-55.344-.017a9.373,9.373,0,0,1-.587.787,10.192,10.192,0,0,1-1.032-.8,7.308,7.308,0,0,1,.771-1.031,6.439,6.439,0,0,1,.982.787,5.483,5.483,0,0,1,.624-.787,6.99,6.99,0,0,1,.982.8,6.99,6.99,0,0,1-.756,1.031C-6048.156,918.439-6048.7,918.029-6048.927,917.817Zm-69.266,0a9.373,9.373,0,0,1-.587.787,10.192,10.192,0,0,1-1.032-.8,7.1,7.1,0,0,1,.77-1.031,6.38,6.38,0,0,1,.983.787,5.473,5.473,0,0,1,.622-.787,7.112,7.112,0,0,1,.983.8,7.5,7.5,0,0,1-.756,1.031C-6117.423,918.439-6117.965,918.029-6118.193,917.817Zm142.525-16.709c0-1.516-.089-2.046-.573-2.272a1.66,1.66,0,0,0-.819-.121h-3.342l-.137-2.918.845-.152.3.771c.561.048,1.333.061,3.028.061a3.3,3.3,0,0,1,1.117.12,1.684,1.684,0,0,1,.863,1.5c0,.542-.044,1.134-.044,2.481a27.883,27.883,0,0,0,.183,3.6l-1.575.3C-5975.712,903.283-5975.667,902.33-5975.667,901.107Zm-124.533,0c0-1.516-.094-2.046-.578-2.272a1.645,1.645,0,0,0-.814-.121h-3.345l-.135-2.918.847-.152.319.771c.56.048,1.331.061,3.025.061a3.325,3.325,0,0,1,1.12.12,1.69,1.69,0,0,1,.863,1.5c0,.542-.049,1.134-.049,2.481a27.884,27.884,0,0,0,.183,3.6l-1.575.3C-6100.25,903.283-6100.2,902.33-6100.2,901.107Zm4.431,3.345a20.808,20.808,0,0,1-.76-5.6l-.619-.134-.151-2.847.956-.114.2.65a2.254,2.254,0,0,0,.591.063h.5a.551.551,0,0,1,.433.532l.123,1.719-.925.178a10.656,10.656,0,0,0,.688,3.466h.687l.667-3.372-.03-.12-.271-1.922c-.045-.3.106-.5.528-.5h1.469c.271,0,.453.316.467.485l.137,1.664-1.134.378-.925,3.342c.378-.028.744-.058,1.091-.1a2.4,2.4,0,0,0,1.423-.486,6.79,6.79,0,0,0,1.268-2.922l-.725-.24-.12-1.619c0-.3.062-.5.423-.5h1.406a1.182,1.182,0,0,1,.409.045c.244.077.344.3.344.636l-.089,1.483-.584.237c-.468,2.451-.908,3.812-1.77,4.569a4.279,4.279,0,0,1-2.013.8,24.051,24.051,0,0,1-3.324.23Zm139.947-3.016v-.951l1.375-.392c-.031.392-.031.8-.031,1.192,0,.817.044,1.939.089,2.8l-1.6.364C-5955.928,903.51-5955.822,902.292-5955.822,901.436Zm-36.936.258c0-1.1-.091-2.434-.152-2.936-.739-.058-1.62-.058-2.389-.058s-1.845,0-2.873.045l-.152-2.984.891-.089.3.664a7.654,7.654,0,0,0,1.756.138h2.5a5.52,5.52,0,0,1,1.423.061.714.714,0,0,1,.436.556l.12,1.469-.687.212c0,.41,0,.922.017,1.317a31.174,31.174,0,0,0,.409,3.981l-1.681.378C-5992.8,903.585-5992.758,902.557-5992.758,901.694Zm-5.273-.258v-.951l1.375-.392c-.029.392-.029.8-.029,1.192,0,.817.046,1.939.09,2.8l-1.6.364C-5998.141,903.51-5998.031,902.292-5998.031,901.436Zm-13.039,0v-.951l1.375-.392c-.031.392-.031.8-.031,1.192,0,.817.048,1.939.092,2.8l-1.605.364C-6011.176,903.51-6011.07,902.292-6011.07,901.436Zm-29.521-2.073V898.9a8.515,8.515,0,0,0-1.348-.214l-.152-2.873.908-.1.258.707a2.88,2.88,0,0,0,.573.063.874.874,0,0,1,.365.061.688.688,0,0,1,.361.6l.075,1.2a1.21,1.21,0,0,0,.075.436,13.855,13.855,0,0,0,1.664-2.117.314.314,0,0,1,.289-.166h1.255a2.721,2.721,0,0,1,1.089.183,1.693,1.693,0,0,1,.756,1.392l.453,3.039a4.982,4.982,0,0,1,.032.65,13.523,13.523,0,0,1-.516,1.917.731.731,0,0,1-.739.575l-3.314.169.409-2.194,2.936-.151a1.257,1.257,0,0,0,.044-.344,2.494,2.494,0,0,0-.106-.687l-.547-1.755a.655.655,0,0,0-.419-.522,1.584,1.584,0,0,0-.53-.058h-.622a1.45,1.45,0,0,0-1.148.424l-.772.6c-.241,1.211-.561,3.3-.739,4.508l-1.664.212C-6041.344,903.224-6040.591,899.727-6040.591,899.363Zm90.044,2.331c0-1.1-.089-2.434-.15-2.936-.739-.058-1.616-.058-2.406-.058s-1.847,0-2.875.045l-.117-2.984.894-.089.3.664a7.618,7.618,0,0,0,1.753.138h2.5a5.526,5.526,0,0,1,1.424.061.725.725,0,0,1,.439.556l.12,1.469-.687.212c-.018.41,0,.922,0,1.317a31.126,31.126,0,0,0,.409,3.978l-1.681.378C-5950.594,903.585-5950.546,902.557-5950.546,901.694Zm-55.244,0c0-1.1-.089-2.434-.151-2.936-.742-.058-1.619-.058-2.406-.058s-1.847,0-2.875.045l-.134-2.984.891-.089.3.664a7.669,7.669,0,0,0,1.757.138h2.5a5.49,5.49,0,0,1,1.419.061.71.71,0,0,1,.441.556l.12,1.469-.687.212v1.317a30.86,30.86,0,0,0,.406,3.978l-1.678.378C-6005.834,903.585-6005.791,902.557-6005.791,901.694Zm-43.6-.453c0-1.589-.12-2.269-.484-2.451a1.969,1.969,0,0,0-.833-.108h-2.251a4.7,4.7,0,0,0-.366,1.513,13.654,13.654,0,0,0,.688,2.467l-.289,1.619-2.853.072.422-2.014,1.165-.18a13.675,13.675,0,0,1-.288-1.845,4.252,4.252,0,0,1,.47-1.636l-1.316-.211-.169-2.6.863-.166.3.664a8.822,8.822,0,0,0,1.719.108h2.873a1.535,1.535,0,0,1,.619.12,1.6,1.6,0,0,1,.925,1.406v2.467a23.127,23.127,0,0,0,.258,3.6l-1.544.378C-6049.395,903.324-6049.395,902.405-6049.395,901.241Zm-19.462,3.193a20.744,20.744,0,0,1-.753-5.579l-.608-.123-.152-2.847.925-.124.2.65a2.307,2.307,0,0,0,.59.063h.5a.557.557,0,0,1,.439.529l.121,1.719-.922.178a10.69,10.69,0,0,0,.687,3.465h.688l.667-3.371-.031-.121-.275-1.911c-.044-.3.106-.5.53-.5h1.467c.272,0,.453.316.467.484l.138,1.664-1.135.378-.92,3.342c.374-.028.739-.058,1.086-.1a2.391,2.391,0,0,0,1.423-.484,6.826,6.826,0,0,0,1.272-2.922l-.729-.241-.12-1.619c0-.3.063-.5.423-.5h1.41a1.169,1.169,0,0,1,.406.045c.244.075.342.3.342.636l-.089,1.481-.573.214c-.472,2.451-.908,3.812-1.771,4.568a4.266,4.266,0,0,1-2.011.8,23.891,23.891,0,0,1-3.3.229Q-6068.663,904.436-6068.857,904.433Zm104.743-4.025a14.48,14.48,0,0,1,.125-1.632l-.774-.169-.15-2.8.914-.135.289.688a21.152,21.152,0,0,0,2.117.086h1.527a2.778,2.778,0,0,1,1.681.361c.573.409.89,1.375.89,3.193,0,2.75-1.331,4.431-3.554,4.431S-5964.114,903.072-5964.114,900.408Zm1.142-1.676a9.8,9.8,0,0,0-.092,1.437,1.885,1.885,0,0,0,2.134,2.117,4.34,4.34,0,0,0,2.086-.561,9.741,9.741,0,0,0,.106-1.5c0-.664-.181-1.211-.648-1.375a5.749,5.749,0,0,0-1.953-.227h-.063A11.622,11.622,0,0,0-5962.972,898.732Zm-68.213,2.57a19.894,19.894,0,0,0-.135-2.512c-.258,0-.547-.046-.893-.058l-.536-.032-.183-2.815.908-.152.226.654a4.194,4.194,0,0,0,.819.1,1.075,1.075,0,0,1,.725.244,1.026,1.026,0,0,1,.371.745c0,.833-.062,1.8-.062,3.056,0,1.317.075,2.361.169,3.63l-1.544.258C-6031.245,903.452-6031.186,902.468-6031.186,901.3Zm58.785,1.028,3.962-.106a8.023,8.023,0,0,0,1.135-.075,2.452,2.452,0,0,0-.044-1l-.3-1.286a1.463,1.463,0,0,0-.575-.983,2.013,2.013,0,0,0-.875-.2l-1.97-.151a6.433,6.433,0,0,0,.017,1.075,3.638,3.638,0,0,0,.92.106h.344l.134,1.483-1.739-.045a.962.962,0,0,1-.636-.258.86.86,0,0,1-.258-.688v-4.592l.908-.089.258.814,2.375.2a6.06,6.06,0,0,1,1.089.164,1.65,1.65,0,0,1,1.1,1.407l.378,3.073c.031.24.062.619.062.687a9.542,9.542,0,0,1-.575,1.816.967.967,0,0,1-.862.573l-5.552.138Zm-53.853-2.633a1.082,1.082,0,0,0-.257.578,2.326,2.326,0,0,0,.24.877,5.85,5.85,0,0,0,.85,1.375l-.3,1.77-2.75.075.267-2.08.939-.209a10,10,0,0,1-.226-1.681,2.508,2.508,0,0,1,.439-1.2l-.862-.742a18.24,18.24,0,0,1,.3-2.586c.091,0,.513-.061.605-.061a5.7,5.7,0,0,0,1.344,1.934,23.746,23.746,0,0,0,2.063,1.741l.343-.757-.258-2.162a9.414,9.414,0,0,1,1.469-.138,2.53,2.53,0,0,1,1.058.138.855.855,0,0,1,.423.687l.075,1.619a13.757,13.757,0,0,0-1.814.045l-.711.969a21.616,21.616,0,0,0,2.692,1.847,26,26,0,0,1-.361,2.6,1.3,1.3,0,0,1-.344.049A51.881,51.881,0,0,0-6026.253,899.7Zm-87.622,2.595.938-.209a10.159,10.159,0,0,1-.227-1.681,2.512,2.512,0,0,1,.455-1.2l-.863-.742a18.242,18.242,0,0,1,.3-2.586c.089,0,.513-.061.6-.061a5.709,5.709,0,0,0,1.344,1.934,23.806,23.806,0,0,0,2.062,1.741l.344-.757-.258-2.162a9.1,9.1,0,0,1,1.486-.151,2.508,2.508,0,0,1,1.059.137.856.856,0,0,1,.422.687l.075,1.619a14.037,14.037,0,0,0-1.814.045l-.711.969a21.462,21.462,0,0,0,2.688,1.839,25.982,25.982,0,0,1-.343,2.6,1.3,1.3,0,0,1-.344.048,51.746,51.746,0,0,0-5.231-4.661,1.072,1.072,0,0,0-.258.578,2.326,2.326,0,0,0,.24.877,5.834,5.834,0,0,0,.85,1.375l-.3,1.77-2.75.075Zm96.47,1.988-.12-2.011a6.5,6.5,0,0,0,2.252-.847,2.909,2.909,0,0,0,1.134-1.9.689.689,0,0,0-.411-.688,4.076,4.076,0,0,0-1.058-.1h-1.24c-1.072,0-1.753,0-2.344.045l-.286-5.729c.227,0,.378-.032.619-.032a4.576,4.576,0,0,1,1.286.094.587.587,0,0,1,.364.512l.106,1.392a9.715,9.715,0,0,0-1.182.045,5.479,5.479,0,0,0,.167,1.375,9.334,9.334,0,0,0,1.014.046h1.753a5.8,5.8,0,0,1,1.908.164c.392.183.756.711.756,1.695a7.408,7.408,0,0,1-3.993,5.947Zm-58.8,0-.12-2.011a6.488,6.488,0,0,0,2.254-.847,2.92,2.92,0,0,0,1.135-1.9.689.689,0,0,0-.409-.688,4.094,4.094,0,0,0-1.059-.1h-1.241c-1.073,0-1.753,0-2.345.045l-.289-5.729c.227,0,.381-.032.622-.032a4.576,4.576,0,0,1,1.286.094.6.6,0,0,1,.364.512l.1,1.392a9.69,9.69,0,0,0-1.18.045,5.6,5.6,0,0,0,.169,1.375,9.272,9.272,0,0,0,1.011.046h1.756a5.78,5.78,0,0,1,1.905.164c.4.183.756.711.756,1.695a7.41,7.41,0,0,1-3.991,5.947Zm-43.505,0-.106-2.011a6.484,6.484,0,0,0,2.251-.847,2.909,2.909,0,0,0,1.135-1.9.691.691,0,0,0-.406-.688,4.122,4.122,0,0,0-1.063-.1h-1.237c-1.077,0-1.757,0-2.344.045l-.3-5.729c.228,0,.378-.032.619-.032a4.581,4.581,0,0,1,1.286.094.587.587,0,0,1,.364.512l.106,1.392a9.637,9.637,0,0,0-1.179.045,5.521,5.521,0,0,0,.165,1.375,9.749,9.749,0,0,0,1.014.046h1.75a5.8,5.8,0,0,1,1.908.164c.392.181.756.711.756,1.695a7.406,7.406,0,0,1-3.994,5.947Zm130.963-2.644a3.856,3.856,0,0,0,1.165-2.223.639.639,0,0,0-.3-.605,1.869,1.869,0,0,0-.638-.075l-.914-.032-.137-2.873.906-.152.261.774,1.286.045c.422,0,.688.258.863.756a8.046,8.046,0,0,1-.166,3.025,9.191,9.191,0,0,1-.879,2.063Zm-57.047,0a3.86,3.86,0,0,0,1.167-2.223.644.644,0,0,0-.3-.605,1.855,1.855,0,0,0-.636-.075l-.931-.032-.135-2.873.908-.152.258.774,1.286.045c.423,0,.687.258.862.756a8.021,8.021,0,0,1-.167,3.025,9.037,9.037,0,0,1-.877,2.063Zm61.615,0a3.869,3.869,0,0,0,1.161-2.223.635.635,0,0,0-.3-.605,1.83,1.83,0,0,0-.632-.075l-.938-.032-.138-2.873.908-.152.272.757,1.289.045c.422,0,.687.258.859.756a8.115,8.115,0,0,1-.165,3.025,8.99,8.99,0,0,1-.877,2.062Zm-101.637,0a3.888,3.888,0,0,0,1.162-2.223.642.642,0,0,0-.3-.605,1.858,1.858,0,0,0-.636-.075l-.938-.032-.138-2.873.908-.152.272.757,1.289.045c.422,0,.687.258.859.756a8.115,8.115,0,0,1-.165,3.025,8.99,8.99,0,0,1-.877,2.062Z" transform="translate(6213.563 -893)" fill="#fff"/><path d="M41.25,15.945a.767.767,0,0,0,.687-.512C44.083,8.375,52.432,6.66,68.5,6.66h14v9.281H64.969c-14.235,0-20.068,3.438-22.344,5.5a2.193,2.193,0,0,1-1.375.688h0a2.193,2.193,0,0,1-1.375-.687c-2.262-2.062-8.1-5.5-22.344-5.5H0V6.66H13.991c16.063,0,24.406,1.719,26.558,8.772a.767.767,0,0,0,.688.512Zm0,44.581a1.956,1.956,0,0,1-1.2-.406c-2.626-2.269-10.072-7.4-23.7-7.4H0V62H16.352c14.712,0,19.178,6.122,20.226,8.023a1.11,1.11,0,0,0,.976.571h7.391a1.11,1.11,0,0,0,.976-.571c1.031-1.9,5.5-8.023,20.226-8.023H82.5V52.722H66.148c-13.626,0-21.072,5.129-23.7,7.4A1.956,1.956,0,0,1,41.25,60.526Z" transform="translate(0 -4.359)" fill="#fff"/></svg>