<?xml version="1.0" encoding="utf-8"?>
<!-- Generator: Adobe Illustrator 15.1.0, SVG Export Plug-In . SVG Version: 6.00 Build 0)  -->
<!DOCTYPE svg PUBLIC "-//W3C//DTD SVG 1.1//EN" "http://www.w3.org/Graphics/SVG/1.1/DTD/svg11.dtd">
<svg version="1.1" id="Layer_1" xmlns="http://www.w3.org/2000/svg" xmlns:xlink="http://www.w3.org/1999/xlink" x="0px" y="0px"
	 width="750px" height="225px" viewBox="0 0 750 225" enable-background="new 0 0 750 225" xml:space="preserve">
<g>
	<path fill="#8B0021" d="M255.16,132.947c0,16.381-0.312,18.564-9.359,19.501l-4.679,0.466c-0.936,0.938-0.625,3.432,0.312,3.901
		c8.734-0.314,13.727-0.47,20.278-0.47h14.351c16.068,0,30.886,0.155,38.841,0.47c2.185-4.215,6.552-20.124,6.552-21.842
		c0-1.089-2.963-1.717-3.9-0.935c-3.119,7.954-7.174,13.571-10.294,15.443c-2.497,1.405-5.77,2.027-19.031,2.027
		c-12.321,0-15.286-1.87-17.002-3.588c-2.809-2.963-3.276-7.02-3.276-16.847V76.789c0-16.378,0.312-18.875,9.515-19.654l3.744-0.313
		c0.937-0.623,0.624-3.43-0.313-3.899c-7.799,0.313-13.102,0.469-19.187,0.469c-6.24,0-11.542-0.156-20.277-0.469
		c-0.936,0.469-1.249,3.276-0.312,3.899l3.9,0.313c9.827,0.78,10.139,3.276,10.139,19.654L255.16,132.947L255.16,132.947z
		 M334.399,138.875c0,11.232-0.155,12.793-5.927,13.573l-3.275,0.468c-1.093,0.78-0.781,3.432,0.311,3.899
		c4.368-0.312,9.047-0.468,14.663-0.468c5.458,0,9.983,0.155,14.663,0.468c1.09-0.468,1.402-3.119,0.313-3.899l-3.277-0.468
		c-5.618-0.78-5.928-2.341-5.928-13.573v-28.078c0-6.395,0.311-13.882,0.624-19.342c-0.155-0.624-0.78-0.934-1.559-0.934
		c-3.589,2.337-12.479,6.394-16.067,7.643c-0.78,0.467-0.78,2.185-0.155,2.809l1.404,0.935c4.21,2.808,4.21,3.586,4.21,9.671
		L334.399,138.875L334.399,138.875z M366.221,142.774c0,8.111-0.155,11.075-0.312,13.258c0.312,0.626,0.936,0.938,1.56,0.938
		c0.312,0,0.468,0,0.626-0.156c0.779-1.091,2.027-2.34,3.277-2.34c1.247,0,3.275,0.936,6.553,2.027
		c3.119,0.936,7.486,2.028,13.258,2.028c20.902,0,35.877-14.505,35.877-35.254c0-17.16-12.012-30.577-29.794-30.577
		c-7.643,0-13.883,2.811-17.939,5.149c-0.934,0-1.558-0.623-1.558-3.275V65.089c0-6.863,0.312-13.882,0.624-19.341
		c-0.312-0.625-0.937-0.936-1.56-0.936c-5.928,3.121-13.416,5.149-17.005,6.553c-0.78,0.468-0.78,2.652,0,3.12l1.561,0.935
		c4.679,2.808,4.835,3.745,4.835,12.947L366.221,142.774L366.221,142.774z M377.763,110.797c0-6.083,0.315-7.8,1.874-8.889
		c2.185-1.405,5.928-2.498,10.604-2.498c15.446,0,23.713,12.478,23.713,28.547c0,13.413-5.771,25.895-20.434,25.895
		c-4.994,0-9.201-1.872-11.856-5.149c-2.651-3.277-3.897-8.113-3.897-13.571L377.763,110.797L377.763,110.797z M441.72,138.875
		c0,11.232-0.154,12.637-5.928,13.573l-2.963,0.468c-1.093,0.78-0.78,3.432,0.311,3.899c4.058-0.312,8.735-0.468,14.353-0.468
		c5.458,0,9.981,0.155,17.313,0.468c1.093-0.468,1.405-3.119,0.312-3.899l-5.614-0.468c-5.93-0.469-6.24-2.341-6.24-13.573v-21.214
		c0-5.305,0.469-9.828,2.028-12.012c1.246-1.715,3.121-3.119,5.615-3.119c2.185,0,4.524,0.936,6.863,2.493
		c1.092,0.625,1.873,1.092,3.433,1.092c2.496,0,6.707-2.027,6.707-7.174c0-3.742-3.118-6.241-7.019-6.241
		c-5.773,0-11.699,4.839-17.158,9.363c-0.313-0.155-0.469-0.624-0.469-1.403v-9.051c0-0.624-0.467-0.936-1.245-1.089
		c-3.901,2.338-12.168,6.396-15.755,7.643c-0.782,0.468-0.782,2.185-0.157,2.81l1.405,0.936c4.21,2.807,4.21,3.585,4.21,9.67v27.297
		H441.72z M495.688,130.764c-9.982,3.585-12.947,7.173-12.947,13.261c0,4.365,1.875,8.267,4.838,10.917
		c2.651,2.34,6.396,3.588,10.917,3.588c4.37,0,7.801-2.028,11.234-3.899c3.119-1.716,4.992-3.118,6.083-3.118
		c0.936,0,1.872,1.245,2.496,2.18c2.65,3.436,6.396,4.84,10.138,4.84c7.646,0,13.105-6.086,13.105-6.863
		c0-1.092-0.47-2.028-1.094-2.028c-0.469,0-1.246,0.625-2.027,1.091c-0.933,0.469-2.339,0.938-3.901,0.938
		c-6.083,0-7.486-6.397-7.172-13.574l0.935-27.14c0.467-11.698-4.99-18.253-16.223-18.253c-11.391,0-29.014,11.077-29.014,19.188
		c0,1.404,0.781,2.183,2.184,2.183c2.34,0,6.551-1.09,8.893-2.961c1.247-0.935,1.404-2.807,1.557-5.305
		c0.313-4.834,5.615-7.018,9.986-7.018c9.669,0,11.542,7.799,11.385,13.569l-0.153,7.178c0,2.341-0.312,3.747-2.653,4.522
		L495.688,130.764L495.688,130.764z M494.752,142.151c0-6.085,4.525-8.423,13.729-11.545c2.806-0.933,5.458-1.56,6.396-1.56
		c0.934,0,1.558,0.315,1.558,2.028l-0.31,9.204c-0.156,3.275-0.156,5.459-2.032,7.331c-1.556,1.559-6.393,3.899-9.513,3.899
		C496.626,151.512,494.752,144.802,494.752,142.151L494.752,142.151z M555.119,138.875c0,11.232-0.153,12.637-5.928,13.573
		l-2.962,0.468c-1.093,0.78-0.778,3.432,0.312,3.899c4.057-0.312,8.736-0.468,14.352-0.468c5.459,0,9.981,0.155,17.313,0.468
		c1.096-0.468,1.408-3.119,0.312-3.899l-5.614-0.468c-5.929-0.469-6.238-2.341-6.238-13.573v-21.214
		c0-5.305,0.468-9.828,2.025-12.012c1.247-1.715,3.118-3.119,5.617-3.119c2.184,0,4.522,0.936,6.863,2.493
		c1.092,0.625,1.871,1.092,3.433,1.092c2.493,0,6.705-2.027,6.705-7.174c0-3.742-3.117-6.241-7.017-6.241
		c-5.774,0-11.701,4.839-17.158,9.363c-0.312-0.155-0.468-0.624-0.468-1.403v-9.051c0-0.624-0.47-0.936-1.25-1.089
		c-3.9,2.338-12.167,6.396-15.754,7.643c-0.778,0.468-0.778,2.185-0.156,2.81l1.406,0.936c4.209,2.807,4.209,3.585,4.209,9.67
		v27.297H555.119z M605.033,195.188c3.585,0,7.33-1.404,9.982-7.331c7.643-17.001,20.434-44.144,25.583-54.598l8.735-17.938
		c5.301-11.076,8.109-15.599,13.26-16.534l2.651-0.467c1.092-0.937,0.936-3.275-0.312-3.902c-4.367,0.313-7.957,0.468-11.856,0.468
		c-4.056,0-8.737-0.155-13.727-0.468c-1.247,0.468-1.406,3.121-0.313,3.902l4.836,0.779c2.807,0.468,3.744,1.563,3.744,2.652
		c0,1.716-2.028,7.487-5.457,15.598l-5.304,12.324c-2.809,6.395-5.308,11.229-5.771,11.541c-0.626-0.314-3.59-8.58-4.525-11.076
		l-4.991-14.352c-0.937-2.649-4.524-12.791-4.524-14.66c0-1.094,1.249-1.562,3.431-2.03l3.9-0.779
		c1.094-0.78,0.936-3.433-0.311-3.901c-4.991,0.314-9.361,0.468-13.571,0.468c-5.149,0-9.826-0.156-14.819-0.468
		c-1.246,0.468-1.406,3.12-0.468,3.901l3.901,0.779c5.456,1.092,6.548,4.837,9.2,12.168l12.167,33.382
		c2.025,5.771,2.654,7.644,2.654,10.762c0,2.186-1.095,5.459-1.562,6.71c-1.402,3.743-4.522,10.294-9.046,17.314
		c-1.095,1.716-2.65,2.807-5.147,2.807h-2.965c-3.432,0-6.24,2.026-6.24,6.239C598.171,192.38,600.508,195.188,605.033,195.188
		L605.033,195.188z"/>
	<polygon fill="#8A9D45" points="336.354,40.188 336.354,49.229 345.278,49.229 345.278,40.188 	"/>
	<polygon fill="#C16622" points="339.57,47.973 339.57,57.015 348.493,57.015 348.493,47.973 	"/>
	<polygon fill="#8F3931" points="333.279,53.438 333.279,62.48 342.205,62.48 342.205,53.438 	"/>
	<polygon fill="#155F83" points="339.58,61.232 339.58,70.273 348.503,70.273 348.503,61.232 	"/>
	<polygon fill="#58593F" points="333.279,66.604 333.279,75.646 342.205,75.646 342.205,66.604 	"/>
	<polygon fill="#350E20" points="336.354,74.335 336.354,83.377 345.278,83.377 345.278,74.335 	"/>
	<path fill="#800000" d="M255.161,132.949c0,16.379-0.312,18.562-9.359,19.499l-4.68,0.466c-0.936,0.938-0.625,3.432,0.312,3.899
		c8.734-0.312,13.727-0.468,20.278-0.468h14.35c16.068,0,30.887,0.155,38.842,0.468c2.184-4.213,6.554-20.122,6.554-21.838
		c0-1.091-2.965-1.717-3.903-0.937c-3.119,7.956-7.174,13.573-10.295,15.443c-2.496,1.405-5.771,2.029-19.031,2.029
		c-12.324,0-15.287-1.876-17.004-3.59c-2.807-2.961-3.275-7.02-3.275-16.847V76.793c0-16.381,0.312-18.875,9.516-19.655l3.744-0.313
		c0.937-0.625,0.625-3.432-0.313-3.9c-7.799,0.313-13.103,0.469-19.187,0.469c-6.241,0-11.542-0.156-20.277-0.469
		c-0.936,0.469-1.249,3.276-0.312,3.9l3.9,0.313c9.828,0.779,10.139,3.274,10.139,19.655v56.156H255.161L255.161,132.949z
		 M334.402,138.877c0,11.23-0.156,12.791-5.93,13.571l-3.275,0.468c-1.093,0.775-0.779,3.432,0.313,3.897
		c4.367-0.311,9.046-0.468,14.662-0.468c5.458,0,9.983,0.155,14.664,0.468c1.091-0.468,1.404-3.122,0.312-3.897l-3.277-0.468
		c-5.616-0.78-5.928-2.341-5.928-13.571v-28.078c0-6.397,0.312-13.884,0.623-19.343c-0.157-0.625-0.78-0.935-1.558-0.935
		c-3.589,2.337-12.479,6.394-16.068,7.645c-0.78,0.466-0.78,2.181-0.156,2.807l1.404,0.935c4.212,2.809,4.212,3.587,4.212,9.671
		L334.402,138.877L334.402,138.877z M366.223,142.774c0,8.111-0.156,11.077-0.312,13.258c0.312,0.626,0.935,0.938,1.562,0.938
		c0.31,0,0.468,0,0.623-0.156c0.778-1.093,2.026-2.34,3.275-2.34c1.248,0,3.275,0.936,6.551,2.027
		c3.121,0.938,7.49,2.028,13.26,2.028c20.902,0,35.879-14.505,35.879-35.254c0-17.158-12.012-30.573-29.796-30.573
		c-7.643,0-13.883,2.808-17.938,5.146c-0.936,0-1.56-0.623-1.56-3.276V65.091c0-6.865,0.312-13.882,0.624-19.342
		c-0.312-0.626-0.937-0.937-1.56-0.937c-5.929,3.122-13.416,5.148-17.003,6.552c-0.781,0.469-0.781,2.651,0,3.121l1.558,0.936
		c4.68,2.809,4.836,3.746,4.836,12.946V142.774L366.223,142.774L366.223,142.774z M377.763,110.799c0-6.085,0.315-7.8,1.874-8.894
		c2.185-1.403,5.928-2.495,10.607-2.495c15.443,0,23.71,12.479,23.71,28.547c0,13.413-5.773,25.895-20.437,25.895
		c-4.991,0-9.199-1.872-11.853-5.149s-3.902-8.113-3.902-13.571V110.799L377.763,110.799z M441.722,138.877
		c0,11.23-0.155,12.635-5.93,13.571l-2.961,0.468c-1.093,0.775-0.78,3.432,0.311,3.897c4.056-0.311,8.735-0.468,14.354-0.468
		c5.459,0,9.979,0.155,17.312,0.468c1.093-0.468,1.403-3.122,0.311-3.897l-5.612-0.468c-5.93-0.469-6.24-2.341-6.24-13.571v-21.216
		c0-5.305,0.469-9.828,2.026-12.012c1.249-1.716,3.121-3.12,5.615-3.12c2.185,0,4.524,0.937,6.863,2.496
		c1.094,0.624,1.873,1.092,3.433,1.092c2.496,0,6.709-2.029,6.709-7.174c0-3.746-3.123-6.238-7.021-6.238
		c-5.773,0-11.702,4.834-17.158,9.358c-0.312-0.158-0.469-0.624-0.469-1.403v-9.049c0-0.625-0.467-0.936-1.245-1.092
		c-3.899,2.337-12.168,6.394-15.755,7.645c-0.781,0.466-0.781,2.181-0.157,2.807l1.405,0.935c4.213,2.809,4.213,3.588,4.213,9.672
		v27.3H441.722z M495.688,130.767c-9.98,3.584-12.944,7.17-12.944,13.258c0,4.365,1.873,8.265,4.837,10.915
		c2.651,2.342,6.396,3.59,10.917,3.59c4.37,0,7.801-2.026,11.233-3.899c3.119-1.716,4.993-3.118,6.085-3.118
		c0.935,0,1.87,1.247,2.494,2.18c2.652,3.434,6.396,4.84,10.14,4.84c7.644,0,13.104-6.086,13.104-6.865
		c0-1.09-0.47-2.028-1.093-2.028c-0.471,0-1.249,0.627-2.028,1.093c-0.933,0.469-2.339,0.936-3.899,0.936
		c-6.083,0-7.487-6.394-7.174-13.572l0.934-27.14c0.469-11.698-4.991-18.251-16.221-18.251c-11.39,0-29.015,11.075-29.015,19.187
		c0,1.401,0.781,2.184,2.186,2.184c2.34,0,6.552-1.094,8.891-2.964c1.247-0.936,1.404-2.808,1.558-5.303
		c0.312-4.836,5.616-7.019,9.985-7.019c9.669,0,11.542,7.798,11.385,13.57l-0.155,7.175c0,2.34-0.311,3.747-2.65,4.524
		L495.688,130.767L495.688,130.767z M494.754,142.151c0-6.083,4.526-8.423,13.728-11.543c2.806-0.935,5.46-1.562,6.396-1.562
		c0.936,0,1.558,0.315,1.558,2.028l-0.31,9.204c-0.156,3.275-0.156,5.459-2.028,7.331c-1.56,1.559-6.396,3.899-9.516,3.899
		C496.626,151.512,494.754,144.802,494.754,142.151L494.754,142.151z M555.121,138.877c0,11.23-0.155,12.635-5.927,13.571
		l-2.963,0.468c-1.095,0.775-0.78,3.432,0.31,3.897c4.057-0.311,8.734-0.468,14.354-0.468c5.457,0,9.979,0.155,17.312,0.468
		c1.094-0.468,1.406-3.122,0.312-3.897l-5.614-0.468c-5.929-0.469-6.238-2.341-6.238-13.571v-21.216
		c0-5.305,0.468-9.828,2.025-12.012c1.249-1.716,3.12-3.12,5.617-3.12c2.188,0,4.522,0.937,6.861,2.496
		c1.096,0.624,1.875,1.092,3.435,1.092c2.493,0,6.707-2.029,6.707-7.174c0-3.746-3.121-6.238-7.017-6.238
		c-5.774,0-11.703,4.834-17.161,9.358c-0.311-0.158-0.468-0.624-0.468-1.403v-9.049c0-0.625-0.469-0.936-1.247-1.092
		c-3.902,2.337-12.168,6.394-15.756,7.645c-0.779,0.466-0.779,2.181-0.155,2.807l1.403,0.935c4.212,2.809,4.212,3.588,4.212,9.672
		v27.298h0.001v0.002H555.121z M605.033,195.188c3.587,0,7.332-1.404,9.982-7.331c7.643-17.001,20.434-44.142,25.583-54.598
		l8.735-17.935c5.303-11.077,8.109-15.601,13.26-16.535l2.652-0.468c1.089-0.936,0.935-3.278-0.316-3.902
		c-4.364,0.314-7.951,0.468-11.853,0.468c-4.054,0-8.733-0.154-13.725-0.468c-1.249,0.468-1.406,3.121-0.315,3.902l4.838,0.778
		c2.807,0.468,3.744,1.563,3.744,2.652c0,1.716-2.03,7.486-5.459,15.598l-5.306,12.324c-2.807,6.396-5.304,11.23-5.77,11.543
		c-0.626-0.314-3.59-8.582-4.525-11.078l-4.992-14.35c-0.936-2.65-4.523-12.79-4.523-14.664c0-1.092,1.251-1.561,3.433-2.028
		l3.898-0.778c1.094-0.781,0.936-3.434-0.311-3.902c-4.991,0.314-9.36,0.468-13.574,0.468c-5.145,0-9.824-0.154-14.816-0.468
		c-1.246,0.468-1.403,3.121-0.468,3.902l3.897,0.778c5.46,1.094,6.55,4.836,9.201,12.168l12.17,33.382
		c2.025,5.771,2.652,7.644,2.652,10.762c0,2.184-1.093,5.459-1.562,6.71c-1.401,3.741-4.523,10.294-9.047,17.314
		c-1.091,1.716-2.648,2.807-5.146,2.807h-2.965c-3.432,0-6.24,2.026-6.24,6.239C598.171,192.38,600.51,195.188,605.033,195.188
		L605.033,195.188z"/>
	<g>
		<path fill="#800000" d="M189.398,56.277h-4.596v-3.064h12.514v3.064h-4.595v12.038h-3.323V56.277L189.398,56.277z"/>
		<path fill="#800000" d="M201.165,53.212h3.324v5.978h6.128v-5.978h3.323v15.103h-3.323v-6.062h-6.128v6.062h-3.324V53.212z"/>
		<path fill="#800000" d="M218.869,53.212h11.392v2.956h-8.092v3.063h7.122v2.957h-7.122v3.172h8.2v2.955h-11.501L218.869,53.212
			L218.869,53.212z"/>
		<path fill="#800000" d="M84.025,91.349v-8.63h3.324v8.544c0,2.459,1.229,3.734,3.258,3.734c2.027,0,3.258-1.231,3.258-3.626
			v-8.652h3.323v8.521c0,4.575-2.567,6.819-6.625,6.819C86.507,98.06,84.025,95.794,84.025,91.349z"/>
		<path fill="#800000" d="M101.879,82.72h3.063l7.078,9.299V82.72h3.28v15.102h-2.826l-7.315-9.6v9.6h-3.28V82.72L101.879,82.72z"/>
		<path fill="#800000" d="M120.38,82.72h3.324v15.102h-3.324V82.72z"/>
		<path fill="#800000" d="M127.485,82.72h3.667l3.948,10.637l3.948-10.637h3.581l-6.105,15.209h-2.934L127.485,82.72z"/>
		<path fill="#800000" d="M146.265,82.72h11.394v2.956h-8.092v3.063h7.122v2.953h-7.122v3.174h8.2v2.955h-11.501L146.265,82.72
			L146.265,82.72z"/>
		<path fill="#800000" d="M162.024,82.72h6.905c1.92,0,3.409,0.541,4.402,1.532c0.842,0.841,1.295,2.028,1.295,3.45v0.043
			c0,2.44-1.316,3.973-3.237,4.683l3.691,5.396h-3.885l-3.236-4.832h-2.611v4.832h-3.324V82.72L162.024,82.72z M168.714,90.057
			c1.619,0,2.546-0.864,2.546-2.137v-0.042c0-1.424-0.993-2.159-2.611-2.159h-3.302v4.338H168.714z"/>
		<path fill="#800000" d="M177.892,95.621l1.964-2.352c1.361,1.125,2.785,1.835,4.509,1.835c1.359,0,2.18-0.54,2.18-1.425v-0.042
			c0-0.842-0.519-1.273-3.042-1.919c-3.043-0.777-5.006-1.62-5.006-4.62v-0.043c0-2.739,2.201-4.551,5.288-4.551
			c2.2,0,4.079,0.69,5.609,1.921l-1.724,2.502c-1.34-0.929-2.654-1.491-3.929-1.491c-1.275,0-1.943,0.584-1.943,1.317v0.044
			c0,0.992,0.648,1.315,3.258,1.983c3.064,0.801,4.79,1.899,4.79,4.532v0.044c0,2.998-2.287,4.682-5.544,4.682
			C182.014,98.039,179.705,97.242,177.892,95.621z"/>
		<path fill="#800000" d="M194.192,82.72h3.324v15.102h-3.324V82.72z"/>
		<path fill="#800000" d="M206.106,85.782h-4.596V82.72h12.515v3.062h-4.596v12.04h-3.324L206.106,85.782L206.106,85.782z"/>
		<path fill="#800000" d="M222.126,91.867l-5.804-9.146h3.884l3.604,6.062l3.669-6.062h3.776l-5.804,9.083v6.02h-3.324
			L222.126,91.867L222.126,91.867z"/>
		<path fill="#800000" d="M198.857,119.818v-0.043c0-4.294,3.387-7.811,8.048-7.811c4.658,0,8.005,3.475,8.005,7.768v0.043
			c0,4.293-3.387,7.812-8.046,7.812C202.2,127.587,198.857,124.113,198.857,119.818z M211.435,119.818v-0.043
			c0-2.592-1.899-4.747-4.574-4.747c-2.676,0-4.533,2.114-4.533,4.704v0.043c0,2.589,1.899,4.745,4.575,4.745
			C209.58,124.521,211.435,122.408,211.435,119.818z"/>
		<path fill="#800000" d="M219.17,112.223h11.501v3.021h-8.178v3.216h7.207v3.021h-7.207v5.845h-3.324V112.223L219.17,112.223z"/>
		<path fill="#800000" d="M118.006,149.324v-0.046c0-4.294,3.236-7.809,7.876-7.809c2.849,0,4.553,0.948,5.955,2.33l-2.114,2.438
			c-1.166-1.057-2.353-1.705-3.862-1.705c-2.545,0-4.38,2.114-4.38,4.706v0.04c0,2.589,1.792,4.747,4.38,4.747
			c1.727,0,2.783-0.689,3.969-1.77l2.114,2.138c-1.553,1.662-3.28,2.698-6.193,2.698
			C121.308,157.092,118.006,153.66,118.006,149.324z"/>
		<path fill="#800000" d="M135.902,141.729h3.325v5.976h6.127v-5.976h3.322v15.103h-3.322v-6.063h-6.127v6.063h-3.325V141.729z"/>
		<path fill="#800000" d="M153.758,141.729h3.325v15.103h-3.325V141.729z"/>
		<path fill="#800000" d="M161.488,149.324v-0.046c0-4.294,3.236-7.809,7.875-7.809c2.848,0,4.555,0.948,5.955,2.33l-2.114,2.438
			c-1.164-1.057-2.349-1.705-3.861-1.705c-2.547,0-4.38,2.114-4.38,4.706v0.04c0,2.589,1.791,4.747,4.38,4.747
			c1.726,0,2.782-0.689,3.969-1.77l2.113,2.138c-1.551,1.662-3.277,2.698-6.192,2.698
			C164.79,157.092,161.488,153.66,161.488,149.324z"/>
		<path fill="#800000" d="M184.562,141.62h3.064l6.474,15.211h-3.474l-1.382-3.385h-6.385l-1.382,3.385h-3.388L184.562,141.62z
			 M188.058,150.51l-2.007-4.899l-2.006,4.899H188.058z"/>
		<path fill="#800000" d="M196.094,149.324v-0.046c0-4.294,3.345-7.809,7.918-7.809c2.719,0,4.357,0.733,5.932,2.07l-2.093,2.522
			c-1.166-0.967-2.201-1.53-3.949-1.53c-2.416,0-4.336,2.138-4.336,4.706v0.04c0,2.761,1.898,4.791,4.575,4.791
			c1.208,0,2.286-0.302,3.129-0.907v-2.154h-3.345v-2.872h6.559v6.562c-1.553,1.317-3.689,2.395-6.452,2.395
			C199.329,157.092,196.094,153.79,196.094,149.324z"/>
		<path fill="#800000" d="M214.314,149.324v-0.046c0-4.294,3.387-7.809,8.047-7.809c4.662,0,8.005,3.473,8.005,7.766v0.043
			c0,4.295-3.388,7.81-8.048,7.81C217.66,157.092,214.314,153.617,214.314,149.324z M226.895,149.324v-0.046
			c0-2.589-1.9-4.746-4.575-4.746c-2.675,0-4.532,2.112-4.532,4.703v0.043c0,2.589,1.898,4.747,4.575,4.747
			C225.039,154.027,226.895,151.915,226.895,149.324z"/>
	</g>
</g>
</svg>
