<svg xmlns="http://www.w3.org/2000/svg" xmlns:xlink="http://www.w3.org/1999/xlink" width="386.158" height="71.716" viewBox="0 0 386.15797 71.716002"><path d="M102.178 12.674c-.807-1.01-2.336-2.025-4.32-2.025-3.258 0-5.75 2.045-5.75 6.633 0 4.05 2.16 6.532 5.85 6.532 1.12 0 2.47-.23 3.14-.663.02-.826.04-1.653.04-2.5 0-.972-.06-1.964-.1-2.832.254.062.63.104.944.104.293 0 .587-.02.844-.104-.038.62-.078 1.964-.078 4.196 0 .537.02 1.115.02 1.675-1.12.414-3.476.993-5.007.993-4.67 0-7.574-2.563-7.574-7.4 0-4.69 3.02-7.398 7.673-7.398 2.65 0 4.082.682 5.005 1.2-.197.372-.393 1.074-.45 1.59h-.237zM106.97 15.485c0-1.776-.078-3.574-.156-5.33 1.176.06 2.334.102 3.512.102 1.18 0 2.337-.04 3.496-.103-.04.205-.06.412-.06.62 0 .206.02.413.06.62-1.65-.125-2.613-.27-5.166-.27-.018.89-.08 1.614-.08 2.625 0 1.074.022 2.21.022 2.728 2.316 0 3.612-.104 4.77-.207a3.426 3.426 0 0 0 0 1.26c-1.355-.143-3.828-.184-4.77-.184-.02.496-.02 1.013-.02 2.997 0 1.57.02 2.584.038 3.1 1.748 0 4.064-.02 5.3-.268-.04.186-.058.454-.058.64 0 .187.02.414.06.6a65.913 65.913 0 0 0-3.533-.104c-1.2 0-2.375.043-3.573.105.078-1.798.156-3.596.156-5.374v-3.555zM123.814 9.884c4.34 0 7.362 2.708 7.362 7.4 0 4.69-3.023 7.398-7.362 7.398-4.32 0-7.34-2.708-7.34-7.4 0-4.69 3.02-7.398 7.34-7.398zm0 .765c-3.06 0-5.417 2.045-5.417 6.633 0 4.59 2.355 6.634 5.417 6.634 3.082 0 5.436-2.045 5.436-6.634 0-4.588-2.355-6.634-5.436-6.634zM134.692 15.506c0-1.777-.078-3.576-.158-5.352.747.062 1.493.103 2.24.103.744 0 1.49-.103 2.237-.103 2.218 0 4.083.805 4.083 3.265 0 2.665-2.532 3.74-4.023 3.946.96 1.26 4.24 5.704 5.38 7.048a7.596 7.596 0 0 0-1.18-.104c-.372 0-.765.042-1.137.104-.788-1.26-3.396-5.063-5.085-6.862h-.746v1.508c0 1.777.078 3.576.157 5.354a5.263 5.263 0 0 0-.962-.104c-.314 0-.628.042-.963.104.08-1.777.158-3.576.158-5.354v-3.554zm1.61 1.178c.353.083.804.103 1.313.103 1.61 0 3.75-.703 3.75-3.163 0-2.17-1.707-2.707-3.044-2.707-.9 0-1.49.062-1.902.104-.058 1.51-.117 2.998-.117 4.486v1.178zM158.7 12.674c-.804-1.01-2.334-2.025-4.317-2.025-3.258 0-5.75 2.045-5.75 6.633 0 4.05 2.158 6.532 5.85 6.532 1.12 0 2.473-.23 3.14-.663.02-.826.04-1.653.04-2.5 0-.972-.06-1.964-.1-2.832.254.062.627.104.942.104.294 0 .587-.02.845-.104-.04.62-.08 1.964-.08 4.196 0 .537.02 1.115.02 1.675-1.12.414-3.473.993-5.003.993-4.673 0-7.578-2.563-7.578-7.4 0-4.69 3.02-7.398 7.673-7.398 2.652 0 4.082.682 5.007 1.2-.197.372-.394 1.074-.453 1.59h-.236zM162.396 18.896h4.888v1.28h-4.888v-1.28zM175.724 9.884c1.924 4.795 4.868 12.318 5.91 14.53a5.916 5.916 0 0 0-1.042-.104c-.352 0-.686.042-1.04.104-.372-1.427-1.316-3.7-2.02-5.538a98.698 98.698 0 0 0-2.573-.043c-.805 0-1.59.02-2.395.043-.825 2.128-1.57 4.236-1.905 5.538a3.057 3.057 0 0 0-.726-.104 3.08 3.08 0 0 0-.727.104c2.1-4.836 4.143-9.652 6.145-14.53h.372zm-.648 2.79l-2.138 5.25c.687 0 1.43.04 2.12.04.726 0 1.472-.02 2.198-.04l-2.18-5.25zM194.198 10.154c.253.062.53.103.805.103.197 0 .41-.04.59-.103-.16 1.92-.316 5.56-.354 8.577-.04 3.658-2.064 5.953-5.595 5.953-3.888 0-5.613-1.9-5.613-5.91 0-1.282.096-2.233.096-3.267 0-2.273-.076-4.155-.116-5.352a5.71 5.71 0 0 0 1.02.103c.276 0 .59-.04.844-.103-.118 1.22-.234 4.03-.234 7.087 0 2.813 0 6.47 4.376 6.47 4.3 0 4.3-4.235 4.3-6.84 0-3.926 0-5.91-.12-6.716zM211.378 12.674c-.806-1.01-2.336-2.025-4.318-2.025-3.258 0-5.752 2.045-5.752 6.633 0 4.05 2.16 6.532 5.852 6.532 1.115 0 2.47-.23 3.14-.663.02-.826.037-1.653.037-2.5 0-.972-.06-1.964-.1-2.832.257.062.63.104.944.104.294 0 .59-.02.845-.104-.04.62-.08 1.964-.08 4.196 0 .537.022 1.115.022 1.675-1.117.414-3.473.993-5.007.993-4.67 0-7.575-2.563-7.575-7.4 0-4.69 3.022-7.398 7.676-7.398 2.65 0 4.083.682 5.003 1.2-.195.372-.39 1.074-.45 1.59h-.235zM226.277 10.154c.256.062.533.103.808.103.196 0 .41-.04.59-.103-.16 1.92-.315 5.56-.353 8.577-.04 3.658-2.064 5.953-5.595 5.953-3.886 0-5.616-1.9-5.616-5.91 0-1.282.1-2.233.1-3.267 0-2.273-.077-4.155-.118-5.352.314.062.71.103 1.02.103.276 0 .59-.04.846-.103-.115 1.22-.236 4.03-.236 7.087 0 2.813 0 6.47 4.38 6.47 4.298 0 4.298-4.235 4.298-6.84-.002-3.926-.002-5.91-.123-6.716zM231.778 21.665c.43.972 1.416 2.15 3.1 2.15 1.75 0 2.81-1.345 2.81-2.998 0-3.803-6.183-2.17-6.183-7.027 0-2.294 1.648-3.907 4.258-3.907 1.238 0 2.12.31 2.904.972-.234.475-.37.95-.53 1.736h-.232c-.277-.765-.864-1.942-2.337-1.942-1.474 0-2.532 1.054-2.532 2.563 0 3.865 6.185 2.254 6.185 6.82 0 2.522-1.788 4.652-4.81 4.652-1.63 0-2.553-.6-3.238-1.18.234-.64.293-1.053.373-1.838h.233zM245.54 15.506c0-1.426-.02-2.852-.058-4.278-1.354 0-3.1.083-4.2.228a2.44 2.44 0 0 0 .098-.66c0-.208-.038-.415-.097-.64 1.685.06 3.374.102 5.065.102 1.686 0 3.373-.04 5.063-.103-.06.227-.097.434-.097.66 0 .208.037.435.098.642-1.1-.144-2.845-.228-4.198-.228a156.59 156.59 0 0 0-.06 4.277v3.554c0 1.778.08 3.577.154 5.355a5.23 5.23 0 0 0-.958-.104c-.318 0-.63.043-.963.105.078-1.777.155-3.576.155-5.354v-3.554zM251.22 18.896h4.887v1.28h-4.886v-1.28zM269.732 10.154c.255.062.53.103.807.103.196 0 .41-.04.584-.103-.157 1.92-.312 5.56-.352 8.577-.036 3.658-2.06 5.953-5.595 5.953-3.887 0-5.613-1.9-5.613-5.91 0-1.282.1-2.233.1-3.267 0-2.273-.08-4.155-.12-5.352.315.062.71.103 1.024.103.273 0 .586-.04.84-.103-.117 1.22-.234 4.03-.234 7.087 0 2.813 0 6.47 4.38 6.47 4.298 0 4.298-4.235 4.298-6.84 0-3.926 0-5.91-.12-6.716zM286.715 24.683c-2.985-3.7-6.558-7.668-9.91-11.43-.02.766-.06 2.005-.06 4.196 0 1.775.078 6.137.174 6.964a2.5 2.5 0 0 0-.686-.104c-.238 0-.472.042-.728.104.154-.97.412-6.262.412-8.99 0-2.604 0-4.61-.06-5.54h.313c3.202 3.66 7.538 8.64 9.933 11.182 0-3.7 0-7.73-.156-10.912a2.5 2.5 0 0 0 .665.103c.218 0 .415-.04.632-.103-.12 1.22-.316 5.31-.316 6.922 0 2.108.04 6.676.06 7.606h-.273zM291.703 15.506c0-1.777-.078-3.576-.158-5.352.334.062.648.103.964.103.313 0 .625-.04.96-.103-.077 1.776-.156 3.575-.156 5.352v3.554c0 1.777.08 3.576.156 5.354a5.244 5.244 0 0 0-.96-.104c-.316 0-.63.042-.965.104.08-1.777.158-3.576.158-5.354v-3.554zM296.34 10.154c.33.062.683.103 1.02.103.332 0 .684-.04 1.017-.103 1.16 3.657 2.83 8.038 4.478 12.214 1.432-3.348 3.63-9.507 4.455-12.214.238.062.49.103.724.103.24 0 .493-.04.728-.103a269.57 269.57 0 0 0-5.65 14.26 2.35 2.35 0 0 0-.648-.104c-.216 0-.473.042-.65.104-1.178-3.41-3.573-9.506-5.475-14.26zM311.808 15.485c0-1.776-.078-3.574-.156-5.33 1.178.06 2.336.102 3.516.102 1.178 0 2.334-.04 3.493-.103a3.23 3.23 0 0 0 0 1.24c-1.648-.125-2.61-.27-5.164-.27-.018.89-.076 1.614-.076 2.625 0 1.074.02 2.21.02 2.728 2.313 0 3.61-.104 4.768-.207a3.34 3.34 0 0 0 0 1.26c-1.354-.143-3.826-.184-4.768-.184-.02.496-.02 1.013-.02 2.997 0 1.57.02 2.584.038 3.1 1.745 0 4.063-.02 5.3-.268-.04.186-.06.454-.06.64 0 .187.02.414.06.6a65.926 65.926 0 0 0-3.534-.104c-1.194 0-2.373.043-3.57.105.077-1.798.155-3.596.155-5.374v-3.555zM322.41 15.506c0-1.777-.078-3.576-.155-5.352.744.062 1.49.103 2.236.103.745 0 1.492-.103 2.24-.103 2.214 0 4.08.805 4.08 3.265 0 2.665-2.532 3.74-4.022 3.946.96 1.26 4.237 5.704 5.377 7.048a7.526 7.526 0 0 0-1.177-.104c-.374 0-.77.042-1.138.104-.787-1.26-3.398-5.063-5.084-6.862h-.746v1.508c0 1.777.08 3.576.156 5.354a5.244 5.244 0 0 0-.96-.104c-.316 0-.63.042-.962.104.077-1.777.154-3.576.154-5.354v-3.554zm1.61 1.178c.355.083.805.103 1.315.103 1.61 0 3.75-.703 3.75-3.163 0-2.17-1.71-2.707-3.044-2.707-.902 0-1.488.062-1.902.104-.06 1.51-.117 2.998-.117 4.486v1.178zM334.74 21.665c.433.972 1.414 2.15 3.1 2.15 1.747 0 2.81-1.345 2.81-2.998 0-3.803-6.186-2.17-6.186-7.027 0-2.294 1.652-3.907 4.262-3.907 1.236 0 2.12.31 2.903.972-.235.475-.373.95-.528 1.736h-.237c-.275-.765-.862-1.942-2.336-1.942-1.473 0-2.534 1.054-2.534 2.563 0 3.865 6.184 2.254 6.184 6.82 0 2.522-1.788 4.652-4.808 4.652-1.63 0-2.554-.6-3.24-1.18.236-.64.295-1.053.372-1.838h.237zM345.773 15.506c0-1.777-.075-3.576-.154-5.352.33.062.647.103.96.103.314 0 .627-.04.963-.103-.08 1.776-.16 3.575-.16 5.352v3.554c0 1.777.08 3.576.16 5.354a5.275 5.275 0 0 0-.963-.104c-.313 0-.63.042-.96.104.078-1.777.153-3.576.153-5.354v-3.554zM354.726 15.506c0-1.426-.02-2.852-.06-4.278-1.353 0-3.1.083-4.198.228a2.44 2.44 0 0 0 .098-.66c0-.208-.04-.415-.098-.64 1.688.06 3.375.102 5.065.102 1.687 0 3.376-.04 5.064-.103-.062.227-.1.434-.1.66 0 .208.038.435.1.642-1.1-.144-2.85-.228-4.204-.228-.04 1.426-.06 2.852-.06 4.277v3.554c0 1.778.08 3.577.16 5.355a5.252 5.252 0 0 0-.96-.104c-.315 0-.632.043-.967.105.08-1.777.158-3.576.158-5.354v-3.554zM368.608 9.884c1.923 4.795 4.87 12.318 5.908 14.53a5.92 5.92 0 0 0-1.038-.104c-.355 0-.69.042-1.043.104-.373-1.427-1.314-3.7-2.023-5.538a98.39 98.39 0 0 0-2.568-.043c-.81 0-1.594.02-2.396.043-.824 2.128-1.57 4.236-1.902 5.538a3.094 3.094 0 0 0-.727-.104c-.24 0-.472.042-.728.104 2.1-4.836 4.14-9.652 6.145-14.53h.37zm-2.24-3.348c.55 0 1.004.475 1.004 1.054 0 .58-.453 1.053-1.004 1.053-.546 0-1-.475-1-1.053s.454-1.054 1-1.054zm1.59 6.138l-2.136 5.25c.685 0 1.43.04 2.116.04.728 0 1.475-.02 2.2-.04l-2.18-5.25zm2.277-6.138c.55 0 1 .475 1 1.054 0 .58-.45 1.053-1 1.053-.548 0-1-.475-1-1.053s.452-1.054 1-1.054zM380.29 15.506c0-1.426-.02-2.852-.06-4.278-1.355 0-3.1.083-4.2.228.06-.207.1-.434.1-.66 0-.208-.04-.415-.1-.64 1.686.06 3.377.102 5.064.102 1.687 0 3.373-.04 5.064-.103-.06.227-.102.434-.102.66 0 .208.04.435.102.642-1.104-.144-2.85-.228-4.203-.228-.04 1.426-.06 2.852-.06 4.277v3.554c0 1.778.08 3.577.16 5.355a5.312 5.312 0 0 0-.962-.104c-.313 0-.63.043-.965.105.08-1.777.16-3.576.16-5.354v-3.554zM102.172 38.046c-.803-1.013-2.335-2.027-4.317-2.027-3.258 0-5.75 2.045-5.75 6.634 0 4.05 2.16 6.53 5.848 6.53 1.12 0 2.472-.228 3.142-.662.02-.824.04-1.652.04-2.5 0-.97-.06-1.963-.098-2.832.254.062.625.104.94.104.295 0 .59-.02.844-.104-.04.62-.078 1.964-.078 4.195 0 .538.022 1.118.022 1.676-1.12.413-3.475.993-5.007.993-4.67 0-7.577-2.564-7.577-7.4 0-4.69 3.023-7.4 7.676-7.4 2.65 0 4.083.683 5.003 1.2-.197.372-.39 1.075-.45 1.593h-.238zM113.208 35.254c4.338 0 7.362 2.708 7.362 7.4 0 4.69-3.024 7.4-7.362 7.4-4.318 0-7.34-2.71-7.34-7.4 0-4.692 3.022-7.4 7.34-7.4zm0 .765c-3.06 0-5.417 2.045-5.417 6.634 0 4.588 2.357 6.634 5.418 6.634 3.08 0 5.438-2.046 5.438-6.634 0-4.588-2.357-6.635-5.438-6.635zm-1.924-4.113c.552 0 1 .475 1 1.054 0 .58-.448 1.054-1 1.054-.55 0-1-.475-1-1.053s.45-1.053 1-1.053zm3.868 0c.55 0 1 .475 1 1.054 0 .58-.45 1.054-1 1.054-.552 0-1.002-.475-1.002-1.053s.45-1.053 1.002-1.053zM126.816 40.876c0-1.427-.02-2.852-.06-4.278-1.355 0-3.1.083-4.2.228.058-.207.1-.434.1-.66 0-.208-.042-.415-.1-.64 1.687.06 3.376.102 5.064.102 1.688 0 3.375-.04 5.066-.103a2.393 2.393 0 0 0-.102.66c0 .207.04.434.102.64-1.102-.143-2.85-.227-4.202-.227a156.53 156.53 0 0 0-.06 4.278v3.554c0 1.778.08 3.577.158 5.353a5.357 5.357 0 0 0-.963-.102c-.314 0-.63.042-.96.103.077-1.775.156-3.574.156-5.353v-3.554zM138.497 40.876c0-1.427-.02-2.852-.06-4.278-1.354 0-3.1.083-4.198.228a2.52 2.52 0 0 0 .094-.66 2.61 2.61 0 0 0-.095-.64c1.685.06 3.373.102 5.063.102 1.685 0 3.375-.04 5.063-.103-.062.226-.1.433-.1.66 0 .207.04.434.1.64-1.102-.143-2.848-.227-4.202-.227a156.53 156.53 0 0 0-.06 4.278v3.554c0 1.778.08 3.577.16 5.353a5.345 5.345 0 0 0-.96-.102c-.318 0-.632.042-.963.103.08-1.775.157-3.574.157-5.353v-3.554zM147.45 40.876c0-1.777-.08-3.574-.157-5.352.333.062.647.103.96.103.315 0 .63-.04.962-.103-.08 1.777-.157 3.574-.157 5.352v3.554c0 1.778.078 3.577.157 5.353a5.307 5.307 0 0 0-.96-.102c-.316 0-.63.042-.962.103.078-1.775.156-3.574.156-5.353v-3.554zM164.726 50.054c-2.984-3.7-6.557-7.668-9.914-11.43-.02.764-.057 2.004-.057 4.195 0 1.776.078 6.137.176 6.962a2.554 2.554 0 0 0-.687-.102c-.234 0-.472.04-.727.102.16-.97.414-6.26.414-8.99 0-2.603 0-4.607-.058-5.538h.313c3.202 3.66 7.538 8.64 9.932 11.183 0-3.7 0-7.73-.156-10.912.216.062.453.103.667.103.217 0 .415-.04.63-.103-.12 1.22-.316 5.31-.316 6.923 0 2.107.04 6.676.063 7.606h-.277zM180.96 38.046c-.805-1.013-2.333-2.027-4.317-2.027-3.26 0-5.75 2.045-5.75 6.634 0 4.05 2.16 6.53 5.85 6.53 1.118 0 2.472-.228 3.138-.662.02-.824.04-1.652.04-2.5 0-.97-.058-1.963-.095-2.832.25.062.625.104.94.104.295 0 .588-.02.844-.104-.04.62-.08 1.964-.08 4.195 0 .538.02 1.118.02 1.676-1.12.413-3.475.993-5.007.993-4.67 0-7.575-2.564-7.575-7.4 0-4.69 3.022-7.4 7.674-7.4 2.65 0 4.083.683 5.006 1.2-.197.372-.392 1.075-.453 1.593h-.234zM185.755 40.855c0-1.777-.077-3.574-.155-5.33a66.44 66.44 0 0 0 3.512.103c1.18 0 2.336-.04 3.496-.103a3.172 3.172 0 0 0 0 1.24c-1.65-.126-2.61-.27-5.165-.27-.02.89-.08 1.613-.08 2.626 0 1.076.02 2.212.02 2.728 2.317 0 3.612-.102 4.772-.205a3.278 3.278 0 0 0 0 1.26c-1.354-.145-3.83-.186-4.77-.186-.02.496-.02 1.012-.02 2.996 0 1.57.02 2.584.04 3.1 1.747 0 4.063-.02 5.3-.268-.04.186-.06.455-.06.64 0 .188.02.413.06.6a67.007 67.007 0 0 0-3.534-.103c-1.197 0-2.375.04-3.57.102.077-1.797.154-3.596.154-5.37v-3.56zM207.408 50.054c-2.985-3.7-6.558-7.668-9.912-11.43-.02.764-.06 2.004-.06 4.195 0 1.776.08 6.137.177 6.962a2.554 2.554 0 0 0-.688-.102c-.236 0-.47.04-.725.102.154-.97.412-6.26.412-8.99 0-2.603 0-4.607-.06-5.538h.314c3.2 3.66 7.537 8.64 9.93 11.183 0-3.7 0-7.73-.154-10.912a2.5 2.5 0 0 0 .67.103c.213 0 .408-.04.625-.103-.118 1.22-.313 5.31-.313 6.923 0 2.107.037 6.676.056 7.606h-.272z"/><g transform="translate(-104.577 -384.946)"><defs><path id="a" d="M104.577 384.946h76.553v71.716h-76.553z"/></defs><clipPath id="b"><use xlink:href="#a" overflow="visible" width="100%" height="100%"/></clipPath><path clip-path="url(#b)" d="M124.566 454.073c-.143.346-.17.505-.173.85l-.733-.292c.383-.407.43-.525.6-.937l.98-2.4-.874.28-.152-.17c.16-.056 1.53-.59 1.718-.635l-1.366 3.305zM144.847 452.54l-.69.064c-.747.068-.99.232-1.22.41l.026-.483a.59.59 0 0 0-.014-.22l2.536-.23-.887 2.046c1.095.11 1.17.942 1.183 1.076.03.332-.148 1.32-1.468 1.44-.647.062-.926-.037-1.113-.106l.306-.77c.075.183.253.595.876.538a.985.985 0 0 0 .9-1.068.738.738 0 0 0-.474-.626c-.322-.11-.64-.077-.896-.047l.933-2.022z"/></g><path d="M30.86 69.37l-.017.002-.656-.066 1.11-2.03-2.273-.228c-.15-.015-.232-.023-.296-.036l-.155-.032-.116.74c.308-.205.435-.292 1.452-.19l.702.072-.894 1.658-.66-.066a5.26 5.26 0 0 1-.237-.028c-.045-.01-.077-.018-.123-.027l-.06.27-.018.004h.016v.005l.017-.004.93.095-.4.744c-.254.474-.506.864-.803 1.135l.913.09a2.165 2.165 0 0 1 .005-.233c.027-.268.147-.584.515-1.26l.236-.43.387.04c.12.012.186.018.235.027.047.01.08.02.125.027l.06-.27.018-.002-.017-.002.003-.007zM50.46 68.06l-.016.01-.66.143.436-2.274-2.233.48c-.15.03-.23.048-.293.057-.06.005-.1.008-.158.017l.116.738c.23-.29.325-.41 1.324-.624l.69-.15-.342 1.855-.635.136c-.12.024-.183.04-.234.044-.047.006-.08.008-.126.013l.027.276-.016.01.018-.005v.004l.016-.007.9-.193-.153.83c-.096.53-.214.977-.415 1.325l.897-.19c-.014-.04-.05-.15-.065-.227-.057-.262-.04-.6.104-1.354l.093-.482.395-.087c.118-.024.182-.038.234-.045a5.93 5.93 0 0 0 .126-.012l-.027-.276.018-.01-.017.006v-.01z"/><path d="M14.02 29.907H9.166c0 8.34 5.268 17.172 16.602 20.67.676-1.378 1.356-2.85 2.042-4.425-10.658-2.954-13.79-11.047-13.79-16.245zM36.903 47.282c-2.473 0-4.69-.21-6.687-.58-.792 1.905-1.476 3.524-1.958 4.53 2.603.58 5.478.904 8.646.904 1.5 0 2.946-.144 4.353-.39a45.57 45.57 0 0 1-2.03-4.61c-.762.086-1.533.146-2.324.146z" fill="#c4cedf"/><g transform="translate(-104.577 -384.946)"><defs><path id="c" d="M104.577 384.946h76.553v71.716h-76.553z"/></defs><clipPath id="d"><use xlink:href="#c" overflow="visible" width="100%" height="100%"/></clipPath><path clip-path="url(#d)" d="M147.41 439.538c-1.78.385-3.627.613-5.532.648-3.56.065-7.116-.36-10.492-1.2a63.617 63.617 0 0 1-2.81 4.73c4.283 1.23 8.846 1.87 13.4 1.785a34.718 34.718 0 0 0 8.68-1.27 84.47 84.47 0 0 1-.986-1.294 40.882 40.882 0 0 1-2.26-3.398zM116.32 431.06c-4.216-4.105-6.378-9.115-6.426-14.89-.132-16.036 15.363-25.765 30.42-25.906 14.77-.138 26.958 9.173 27.08 9.268l1.352 1.147 1.288-6.37c-3.367-2.37-15.442-9.497-29.77-9.363-17.666.165-35.846 11.906-35.686 31.267.06 7.144 2.837 13.594 8.033 18.654 3.567 3.473 8.272 6.23 13.514 8.068a53.793 53.793 0 0 0 2.797-4.65c-4.926-1.57-9.338-4.05-12.6-7.227z" fill="#003867"/></g><path d="M72.06 33.63l.998-3.404h-28.71v5.317h21.34c-3.41 7.724-10.613 15.235-19.986 18.28a39.296 39.296 0 0 0 3.134 4.573c11.8-4.362 20.266-14.657 23.225-24.765z" fill="#003867"/><path d="M74.125 9.762H67.65l-.376 1.973c-2.44 12.813-11.008 31.22-25.234 34.886a73.746 73.746 0 0 0 2.14 4.44C59.28 46.5 68.498 28.32 71.61 14.616h.088v35.837h4.854V9.762h-2.427z" fill="#c4cedf"/><path d="M34.846 40.636c-.4-.106-1.424-.38-2.522-.545 1.917-4.464 3.89-8.667 5.037-9.51 0 0-.566 4.01.487 9.58.077.404.178.83.273 1.252-1.544-.248-2.86-.666-3.274-.776zm-5.3.544c0-.55.513-.753 1.287-.76-.066.167-.134.318-.2.487-.173.445-.347.88-.52 1.313-.463-.216-.567-.532-.567-1.04zm35.54 22.086c-.746-.136-1.074 1.332.07 1.495.475.205.34 1.02-.612 1.836-.95.815-5.708 2.242-9.378-.815-3.67-3.058-7.476-7.27-10.058-11.756-1.96-3.406-4.233-8.027-5.51-11.96 5.3.13 4.695-2.243 4.695-2.243-.92 1.578-2.918 1.88-4.853 1.745-.326-1.06-.577-2.063-.72-2.967-.68-4.35-.542-8.63-.338-9.515 0 0-.114.074-.302.22l.03-.152s-5.844 3.74-12.572-.406C18.81 24.6 20.373 9.512 32.062 9.58c2.242-.068 5.776.61 7.203 2.854 0 0 .407-.748 1.36-1.02 0 0-.953.07-1.632-.27-.68-.34-1.63-2.108-7.34-2.108-5.707 0-11.823 4.01-11.823 11.552 0 7.31 7.974 13.086 17.246 9.607-1.427 1.408-3.807 4.348-6.052 9.767-1.236-.044-2.29.197-2.32 1.15-.036 1.125.633 1.433 1.266 1.478-3.373 8.396-6.7 14.69-10.207 18.772-3.194 3.718-6.456 7.067-12.912 6.25-2.31-.338-5.64-3.6-2.853-7.202.335-.433.544.884 1.767.204 1.223-.68-.815-2.378-2.243-.68-1.426 1.7-2.922 8.02 6.185 8.564 9.107.543 16.038-13.592 17.873-17.262.892-1.784 2.685-6.316 4.556-10.697 1.813.293 4.146 1.048 5.5 1.386.212.023.416.043.614.06 1.157 4.793 3.474 10.446 7.34 15.64 9.104 12.23 13.862 11.348 18.415 10.192 1.492-.678 3.802-4.008 1.084-4.552z"/></svg>