<?xml version="1.0" encoding="utf-8"?>
<!-- Generator: Adobe Illustrator 16.0.0, SVG Export Plug-In . SVG Version: 6.00 Build 0)  -->
<!DOCTYPE svg PUBLIC "-//W3C//DTD SVG 1.1//EN" "http://www.w3.org/Graphics/SVG/1.1/DTD/svg11.dtd">
<svg version="1.1" id="Layer_1" xmlns="http://www.w3.org/2000/svg" xmlns:xlink="http://www.w3.org/1999/xlink" x="0px" y="0px"
	 width="206.676px" height="62.574px" viewBox="0 0 206.676 62.574" enable-background="new 0 0 206.676 62.574"
	 xml:space="preserve">
<g>
	<g>
		<rect x="120.5" fill="#231F20" width="20" height="8"/>
		<rect x="81.5" fill="#231F20" width="8" height="26"/>
		<rect x="94.5" fill="#231F20" width="8" height="38"/>
		<rect x="68.5" fill="#231F20" width="8" height="38"/>
		<rect x="120.5" y="13" fill="#231F20" width="8" height="25"/>
		<rect x="107.5" fill="#231F20" width="8" height="8"/>
		<rect x="107.5" y="13" fill="#A41F35" width="8" height="25"/>
	</g>
	<g>
		<path fill="#010101" d="M0.715,52.167h2.871l1.386,5.819h0.022l1.43-5.819h2.838V60H7.415v-6.084H7.393L5.842,60H4.115
			L2.52,53.916H2.498V60H0.715V52.167z"/>
		<path fill="#010101" d="M15.687,58.779c0,0.406,0.011,0.857,0.154,1.221h-1.584c-0.066-0.198-0.099-0.407-0.11-0.605h-0.022
			c-0.286,0.463-1.144,0.76-1.76,0.76c-1.122,0-1.958-0.616-1.958-1.738c0-1.408,1.133-1.903,3.003-2.168l0.627-0.088v-0.484
			c0-0.439-0.352-0.627-0.814-0.627c-0.55,0-0.814,0.198-0.902,0.781h-1.65c0.055-1.684,1.618-1.837,2.41-1.837
			c1.595,0,2.596,0.374,2.607,1.694V58.779z M14.037,57.15l-1.155,0.33c-0.429,0.121-0.825,0.286-0.825,0.76
			c0,0.461,0.385,0.66,0.803,0.66c0.671,0,1.177-0.451,1.177-1.343V57.15z"/>
		<path fill="#010101" d="M21.065,55.875c-0.341-0.408-1.078-0.628-1.617-0.628c-0.429,0-0.737,0.154-0.737,0.451
			c0,1.001,3.465,0.177,3.465,2.365c0,1.54-1.364,2.091-2.64,2.091c-1.276,0-2.002-0.363-2.86-1.155l1.067-0.925
			c0.528,0.506,1.067,0.826,1.848,0.826c0.286,0,0.935-0.066,0.935-0.595c0-0.913-3.465-0.187-3.465-2.267
			c0-1.474,1.287-2.046,2.476-2.046c0.902,0,1.793,0.319,2.585,0.847L21.065,55.875z"/>
		<path fill="#010101" d="M27.182,55.875c-0.341-0.408-1.078-0.628-1.617-0.628c-0.429,0-0.737,0.154-0.737,0.451
			c0,1.001,3.465,0.177,3.465,2.365c0,1.54-1.364,2.091-2.64,2.091c-1.276,0-2.002-0.363-2.86-1.155l1.067-0.925
			c0.528,0.506,1.067,0.826,1.848,0.826c0.286,0,0.935-0.066,0.935-0.595c0-0.913-3.465-0.187-3.465-2.267
			c0-1.474,1.287-2.046,2.476-2.046c0.902,0,1.793,0.319,2.585,0.847L27.182,55.875z"/>
		<path fill="#010101" d="M34.442,58.779c0,0.406,0.011,0.857,0.154,1.221h-1.584c-0.066-0.198-0.099-0.407-0.11-0.605H32.88
			c-0.286,0.463-1.144,0.76-1.76,0.76c-1.122,0-1.958-0.616-1.958-1.738c0-1.408,1.133-1.903,3.003-2.168l0.627-0.088v-0.484
			c0-0.439-0.352-0.627-0.814-0.627c-0.55,0-0.814,0.198-0.902,0.781h-1.65c0.055-1.684,1.618-1.837,2.41-1.837
			c1.595,0,2.596,0.374,2.607,1.694V58.779z M32.792,57.15l-1.155,0.33c-0.429,0.121-0.825,0.286-0.825,0.76
			c0,0.461,0.385,0.66,0.803,0.66c0.671,0,1.177-0.451,1.177-1.343V57.15z"/>
		<path fill="#010101" d="M39.821,56.116c-0.308-0.659-0.836-0.803-1.1-0.803c-0.979,0-1.331,0.759-1.331,1.761
			c0,1,0.418,1.76,1.331,1.76c0.528,0,0.946-0.198,1.221-0.858l1.232,0.628c-0.528,0.935-1.485,1.551-2.607,1.551
			c-1.75,0-2.959-1.111-2.959-3.08c0-1.938,1.287-3.081,2.904-3.081c1.111,0,2.068,0.407,2.629,1.431L39.821,56.116z"/>
		<path fill="#010101" d="M42.142,52.167h1.716v2.53h0.022c0.33-0.451,1.067-0.704,1.606-0.704c1.232,0,1.837,0.715,1.837,1.892V60
			h-1.716v-3.51c0-0.902-0.484-1.111-0.858-1.111c-0.396,0-0.891,0.254-0.891,1.343V60h-1.716V52.167z"/>
		<path fill="#010101" d="M54.044,60h-1.716v-0.518c-0.44,0.518-1.167,0.672-1.694,0.672c-1.386,0-1.771-0.803-1.771-1.684v-4.324
			h1.716v3.829c0,0.517,0.187,0.792,0.836,0.792c0.495,0,0.914-0.275,0.914-0.913v-3.708h1.716V60z"/>
		<path fill="#010101" d="M59.378,55.875c-0.341-0.408-1.078-0.628-1.617-0.628c-0.429,0-0.737,0.154-0.737,0.451
			c0,1.001,3.465,0.177,3.465,2.365c0,1.54-1.364,2.091-2.64,2.091c-1.276,0-2.002-0.363-2.861-1.155l1.067-0.925
			c0.528,0.506,1.067,0.826,1.848,0.826c0.286,0,0.935-0.066,0.935-0.595c0-0.913-3.465-0.187-3.465-2.267
			c0-1.474,1.287-2.046,2.476-2.046c0.902,0,1.793,0.319,2.585,0.847L59.378,55.875z"/>
		<path fill="#010101" d="M62.998,57.426c0.011,1.122,0.726,1.475,1.276,1.475c0.638,0,0.935-0.33,1.43-1.035l1.287,0.672
			c-0.594,1.1-1.529,1.617-2.838,1.617c-1.815,0-2.872-1.254-2.872-2.904c0-2.068,1.089-3.257,2.872-3.257
			c2.134,0,2.86,1.628,2.871,3.433H62.998z M65.308,56.369c-0.055-0.857-0.671-1.122-1.166-1.122s-1.089,0.353-1.166,1.122H65.308z"
			/>
		<path fill="#010101" d="M71.116,55.313h-1.023v2.871c0,0.462,0.231,0.583,0.54,0.583c0.187,0,0.429-0.021,0.517-0.033v1.354
			c-0.22,0.021-0.727,0.066-1.101,0.066c-1.463,0-1.672-0.914-1.672-1.761v-3.08H67.54v-1.056h0.836v-1.695h1.716v1.695h1.023
			V55.313z"/>
		<path fill="#010101" d="M74.988,55.313h-1.023v2.871c0,0.462,0.231,0.583,0.54,0.583c0.187,0,0.429-0.021,0.517-0.033v1.354
			c-0.22,0.021-0.727,0.066-1.101,0.066c-1.463,0-1.672-0.914-1.672-1.761v-3.08h-0.836v-1.056h0.836v-1.695h1.716v1.695h1.023
			V55.313z"/>
		<path fill="#010101" d="M79.762,55.875c-0.341-0.408-1.078-0.628-1.617-0.628c-0.429,0-0.737,0.154-0.737,0.451
			c0,1.001,3.465,0.177,3.465,2.365c0,1.54-1.364,2.091-2.64,2.091c-1.276,0-2.002-0.363-2.86-1.155l1.067-0.925
			c0.528,0.506,1.067,0.826,1.848,0.826c0.286,0,0.935-0.066,0.935-0.595c0-0.913-3.465-0.187-3.465-2.267
			c0-1.474,1.287-2.046,2.476-2.046c0.902,0,1.793,0.319,2.585,0.847L79.762,55.875z"/>
		<path fill="#010101" d="M85.13,52.167h1.958V60H85.13V52.167z"/>
		<path fill="#010101" d="M88.617,54.146h1.716v0.518c0.44-0.518,1.166-0.671,1.694-0.671c1.386,0,1.771,0.804,1.771,1.683V60
			h-1.716v-3.664c0-0.572-0.176-0.957-0.836-0.957c-0.693,0-0.913,0.451-0.913,0.979V60h-1.716V54.146z"/>
		<path fill="#010101" d="M99.133,55.875c-0.341-0.408-1.078-0.628-1.617-0.628c-0.429,0-0.737,0.154-0.737,0.451
			c0,1.001,3.465,0.177,3.465,2.365c0,1.54-1.364,2.091-2.64,2.091c-1.276,0-2.002-0.363-2.86-1.155l1.067-0.925
			c0.528,0.506,1.067,0.826,1.848,0.826c0.286,0,0.935-0.066,0.935-0.595c0-0.913-3.465-0.187-3.465-2.267
			c0-1.474,1.287-2.046,2.476-2.046c0.902,0,1.793,0.319,2.585,0.847L99.133,55.875z"/>
		<path fill="#010101" d="M104.347,55.313h-1.023v2.871c0,0.462,0.231,0.583,0.54,0.583c0.187,0,0.429-0.021,0.517-0.033v1.354
			c-0.22,0.021-0.727,0.066-1.101,0.066c-1.463,0-1.672-0.914-1.672-1.761v-3.08h-0.836v-1.056h0.836v-1.695h1.716v1.695h1.023
			V55.313z"/>
		<path fill="#010101" d="M105.326,53.487v-1.32h1.716v1.32H105.326z M107.042,54.146V60h-1.716v-5.854H107.042z"/>
		<path fill="#010101" d="M111.475,55.313h-1.023v2.871c0,0.462,0.232,0.583,0.54,0.583c0.187,0,0.429-0.021,0.517-0.033v1.354
			c-0.22,0.021-0.727,0.066-1.1,0.066c-1.463,0-1.672-0.914-1.672-1.761v-3.08h-0.837v-1.056h0.837v-1.695h1.715v1.695h1.023V55.313
			z"/>
		<path fill="#010101" d="M117.635,60h-1.715v-0.518c-0.441,0.518-1.167,0.672-1.695,0.672c-1.386,0-1.771-0.803-1.771-1.684v-4.324
			h1.717v3.829c0,0.517,0.188,0.792,0.836,0.792c0.495,0,0.914-0.275,0.914-0.913v-3.708h1.715V60z"/>
		<path fill="#010101" d="M122.068,55.313h-1.023v2.871c0,0.462,0.23,0.583,0.539,0.583c0.188,0,0.429-0.021,0.518-0.033v1.354
			c-0.221,0.021-0.727,0.066-1.102,0.066c-1.463,0-1.672-0.914-1.672-1.761v-3.08h-0.836v-1.056h0.836v-1.695h1.717v1.695h1.023
			V55.313z"/>
		<path fill="#010101" d="M124.345,57.426c0.011,1.122,0.726,1.475,1.276,1.475c0.638,0,0.936-0.33,1.43-1.035l1.287,0.672
			c-0.594,1.1-1.529,1.617-2.838,1.617c-1.815,0-2.871-1.254-2.871-2.904c0-2.068,1.089-3.257,2.871-3.257
			c2.135,0,2.86,1.628,2.871,3.433H124.345z M126.654,56.369c-0.055-0.857-0.67-1.122-1.166-1.122c-0.494,0-1.088,0.353-1.166,1.122
			H126.654z"/>
		<path fill="#010101" d="M138.437,57.074c0,1.969-1.287,3.08-3.114,3.08c-1.826,0-3.113-1.111-3.113-3.08
			c0-1.97,1.287-3.081,3.113-3.081C137.149,53.993,138.437,55.104,138.437,57.074z M133.926,57.074c0,1,0.418,1.76,1.396,1.76
			c0.98,0,1.398-0.76,1.398-1.826c0-0.936-0.418-1.694-1.398-1.694C134.344,55.313,133.926,56.072,133.926,57.074z"/>
		<path fill="#010101" d="M139.777,55.313h-0.902v-1.056h0.902v-0.572c0-0.66,0.209-1.606,1.672-1.606
			c0.375,0,0.902,0.055,1.123,0.132v1.254h-0.484c-0.297,0-0.594,0.088-0.594,0.418v0.375h1.056v1.056h-1.056V60h-1.717V55.313z"/>
		<path fill="#010101" d="M145.85,52.167h6.051v1.519h-2.047V60h-1.958v-6.314h-2.046V52.167z"/>
		<path fill="#010101" d="M153.285,57.426c0.012,1.122,0.727,1.475,1.277,1.475c0.637,0,0.935-0.33,1.43-1.035l1.287,0.672
			c-0.594,1.1-1.529,1.617-2.838,1.617c-1.816,0-2.872-1.254-2.872-2.904c0-2.068,1.089-3.257,2.872-3.257
			c2.134,0,2.859,1.628,2.871,3.433H153.285z M155.596,56.369c-0.055-0.857-0.671-1.122-1.166-1.122s-1.089,0.353-1.166,1.122
			H155.596z"/>
		<path fill="#010101" d="M162.307,56.116c-0.309-0.659-0.836-0.803-1.101-0.803c-0.979,0-1.331,0.759-1.331,1.761
			c0,1,0.418,1.76,1.331,1.76c0.528,0,0.946-0.198,1.222-0.858l1.232,0.628c-0.529,0.935-1.486,1.551-2.607,1.551
			c-1.75,0-2.96-1.111-2.96-3.08c0-1.938,1.287-3.081,2.904-3.081c1.111,0,2.068,0.407,2.63,1.431L162.307,56.116z"/>
		<path fill="#010101" d="M164.627,52.167h1.717v2.53h0.021c0.33-0.451,1.067-0.704,1.606-0.704c1.231,0,1.837,0.715,1.837,1.892V60
			h-1.716v-3.51c0-0.902-0.484-1.111-0.858-1.111c-0.396,0-0.891,0.254-0.891,1.343V60h-1.717V52.167z"/>
		<path fill="#010101" d="M171.348,54.146h1.717v0.518c0.439-0.518,1.166-0.671,1.693-0.671c1.387,0,1.771,0.804,1.771,1.683V60
			h-1.716v-3.664c0-0.572-0.177-0.957-0.837-0.957c-0.692,0-0.912,0.451-0.912,0.979V60h-1.717V54.146z"/>
		<path fill="#010101" d="M183.877,57.074c0,1.969-1.287,3.08-3.113,3.08s-3.113-1.111-3.113-3.08c0-1.97,1.287-3.081,3.113-3.081
			S183.877,55.104,183.877,57.074z M179.367,57.074c0,1,0.418,1.76,1.396,1.76c0.979,0,1.397-0.76,1.397-1.826
			c0-0.936-0.418-1.694-1.397-1.694C179.785,55.313,179.367,56.072,179.367,57.074z"/>
		<path fill="#010101" d="M184.998,60v-7.833h1.717V60H184.998z"/>
		<path fill="#010101" d="M194.062,57.074c0,1.969-1.287,3.08-3.113,3.08s-3.113-1.111-3.113-3.08c0-1.97,1.287-3.081,3.113-3.081
			S194.062,55.104,194.062,57.074z M189.553,57.074c0,1,0.418,1.76,1.396,1.76c0.979,0,1.397-0.76,1.397-1.826
			c0-0.936-0.418-1.694-1.397-1.694C189.971,55.313,189.553,56.072,189.553,57.074z"/>
		<path fill="#010101" d="M200.321,54.146v5.865c0,1.858-1.903,1.925-2.806,1.925c-1.76,0-2.684-0.595-2.695-2.024h1.783
			c0.01,0.639,0.373,0.902,0.99,0.902c0.659,0,1.066-0.133,1.066-0.99v-0.672c-0.374,0.363-1.1,0.484-1.617,0.484
			c-1.639,0-2.277-1.32-2.277-2.794c0-1.431,0.748-2.85,2.299-2.85c0.639,0,1.188,0.144,1.673,0.616v-0.463H200.321z
			 M197.561,55.247c-0.539,0-1.078,0.308-1.078,1.573c0,0.704,0.153,1.562,1.056,1.562c1.101,0,1.134-0.957,1.134-1.562
			C198.672,55.633,198.088,55.247,197.561,55.247z"/>
		<path fill="#010101" d="M201.586,60.594c0.197,0.012,0.396,0.022,0.582,0.022c0.518,0,0.793-0.099,0.793-0.429
			c0-0.088-0.012-0.188-0.154-0.627l-1.717-5.414h1.805l0.946,4.467h0.022l0.957-4.467h1.859l-2.059,6.238
			c-0.297,0.892-0.67,1.552-1.683,1.552h-1.353V60.594z"/>
	</g>
</g>
</svg>
